<svg width="55" height="20" viewBox="0 0 55 20" fill="none" xmlns="http://www.w3.org/2000/svg">
<path d="M53.2162 0.294128H0V19.853H53.2162V0.294128Z" fill="#D22630"/>
<path d="M9.28906 4.92395V15.2233H11.7418V11.0144H18.7778L22.1224 15.2233H25.1697L21.0323 9.99934L25.1449 4.92395H22.0976L18.9017 8.88523H11.7418V4.92395H9.28906Z" fill="white"/>
<path d="M28.4397 6.06282C28.3653 6.3104 28.3653 6.60749 28.3653 7.20169L28.3901 12.9455C28.3901 13.5397 28.3901 13.8368 28.4644 14.0844C28.5388 14.332 28.6874 14.5796 28.8608 14.7529C29.059 14.9262 29.282 15.0747 29.5298 15.149C29.7527 15.2233 30.05 15.2233 30.6446 15.2233H43.9487V13.0941H30.8428V7.05314H43.9487V4.92395H30.6446C30.05 4.92395 29.7527 4.92395 29.505 4.99822C29.2572 5.0725 29.0095 5.22105 28.8361 5.39435C28.6626 5.59242 28.514 5.81524 28.4397 6.06282Z" fill="white"/>
</svg>
