<svg width="20" height="20" viewBox="0 0 20 20" fill="none" xmlns="http://www.w3.org/2000/svg">
<path d="M13.5712 16.4286V15C13.5712 14.2423 13.2701 13.5155 12.7343 12.9797C12.1985 12.4439 11.4718 12.1429 10.714 12.1429H4.99972C4.24196 12.1429 3.51523 12.4439 2.97942 12.9797C2.4436 13.5155 2.14258 14.2423 2.14258 15V16.4286M17.8569 16.4286V15C17.8564 14.367 17.6457 13.752 17.2578 13.2517C16.87 12.7513 16.327 12.394 15.714 12.2357M12.8569 3.6643C13.4714 3.82166 14.0162 4.17909 14.4052 4.68023C14.7942 5.18138 15.0053 5.79775 15.0053 6.43216C15.0053 7.06656 14.7942 7.68293 14.4052 8.18408C14.0162 8.68523 13.4714 9.04266 12.8569 9.20001M10.714 6.42858C10.714 8.00654 9.43482 9.28573 7.85686 9.28573C6.27891 9.28573 4.99972 8.00654 4.99972 6.42858C4.99972 4.85063 6.27891 3.57144 7.85686 3.57144C9.43482 3.57144 10.714 4.85063 10.714 6.42858Z" stroke="#A29994" stroke-linecap="round" stroke-linejoin="round"/>
</svg>
