<svg width="28" height="28" viewBox="0 0 28 28" fill="none" xmlns="http://www.w3.org/2000/svg">
<path d="M17.7916 22.4583V22.9583C18.0677 22.9583 18.2916 22.7344 18.2916 22.4583H17.7916ZM1.45825 22.4583H0.958252C0.958252 22.7344 1.18211 22.9583 1.45825 22.9583V22.4583ZM3.79159 3.79164V3.29164C3.51544 3.29164 3.29159 3.5155 3.29159 3.79164H3.79159ZM11.6666 3.79164L12.1479 3.65627C12.0873 3.44063 11.8906 3.29164 11.6666 3.29164V3.79164ZM24.7916 8.45831H25.2916C25.2916 8.18217 25.0677 7.95831 24.7916 7.95831V8.45831ZM24.7916 15.4583V15.9583C25.0677 15.9583 25.2916 15.7345 25.2916 15.4583H24.7916ZM17.7916 15.4583H17.2916C17.2916 15.7345 17.5154 15.9583 17.7916 15.9583V15.4583ZM18.2916 3.76196C18.2916 3.48582 18.0677 3.26196 17.7916 3.26196C17.5154 3.26196 17.2916 3.48582 17.2916 3.76196H18.2916ZM26.5416 15.9583C26.8177 15.9583 27.0416 15.7345 27.0416 15.4583C27.0416 15.1822 26.8177 14.9583 26.5416 14.9583V15.9583ZM21.2916 14.9583C21.0154 14.9583 20.7916 15.1822 20.7916 15.4583C20.7916 15.7345 21.0154 15.9583 21.2916 15.9583V14.9583ZM15.5879 23.7547C14.872 24.4706 13.7112 24.4706 12.9952 23.7547L12.2881 24.4618C13.3946 25.5683 15.1886 25.5683 16.2951 24.4618L15.5879 23.7547ZM12.9952 21.1619C13.7112 20.446 14.872 20.446 15.5879 21.1619L16.2951 20.4548C15.1886 19.3484 13.3946 19.3484 12.2881 20.4548L12.9952 21.1619ZM6.25461 23.7547C5.53865 24.4706 4.37785 24.4706 3.66189 23.7547L2.95478 24.4618C4.06127 25.5683 5.85524 25.5683 6.96172 24.4618L6.25461 23.7547ZM3.66189 21.1619C4.37785 20.446 5.53865 20.446 6.25461 21.1619L6.96172 20.4548C5.85524 19.3484 4.06127 19.3484 2.95478 20.4548L3.66189 21.1619ZM15.5879 21.1619C15.946 21.52 16.1249 21.9883 16.1249 22.4583H17.1249C17.1249 21.734 16.8482 21.008 16.2951 20.4548L15.5879 21.1619ZM16.1249 22.4583C16.1249 22.9283 15.946 23.3966 15.5879 23.7547L16.2951 24.4618C16.8482 23.9086 17.1249 23.1826 17.1249 22.4583H16.1249ZM12.9952 23.7547C12.6371 23.3966 12.4583 22.9283 12.4583 22.4583H11.4583C11.4583 23.1826 11.735 23.9086 12.2881 24.4618L12.9952 23.7547ZM12.4583 22.4583C12.4583 21.9883 12.6371 21.52 12.9952 21.1619L12.2881 20.4548C11.735 21.008 11.4583 21.734 11.4583 22.4583H12.4583ZM3.66189 23.7547C3.30381 23.3966 3.12492 22.9283 3.12492 22.4583H2.12492C2.12492 23.1826 2.40164 23.9086 2.95478 24.4618L3.66189 23.7547ZM3.12492 22.4583C3.12492 21.9883 3.30381 21.52 3.66189 21.1619L2.95478 20.4548C2.40164 21.008 2.12492 21.734 2.12492 22.4583H3.12492ZM6.25461 21.1619C6.61269 21.52 6.79158 21.9883 6.79158 22.4583H7.79158C7.79158 21.734 7.51487 21.008 6.96172 20.4548L6.25461 21.1619ZM6.79158 22.4583C6.79158 22.9283 6.61269 23.3966 6.25461 23.7547L6.96172 24.4618C7.51487 23.9086 7.79158 23.1826 7.79158 22.4583H6.79158ZM3.79159 13.625H14.2916V12.625H3.79159V13.625ZM17.2916 16.625V22.4583H18.2916V16.625H17.2916ZM1.95825 22.4583V15.4583H0.958252V22.4583H1.95825ZM14.2916 13.625C15.9484 13.625 17.2916 14.9681 17.2916 16.625H18.2916C18.2916 14.4158 16.5007 12.625 14.2916 12.625V13.625ZM3.79159 12.625C2.22678 12.625 0.958252 13.8935 0.958252 15.4583H1.95825C1.95825 14.4458 2.77906 13.625 3.79159 13.625V12.625ZM3.79159 4.29164H11.6666V3.29164H3.79159V4.29164ZM11.1853 3.92701L13.8103 13.2603L14.7729 12.9896L12.1479 3.65627L11.1853 3.92701ZM4.29159 13.125V3.79164H3.29159V13.125H4.29159ZM17.7916 8.95831H24.7916V7.95831H17.7916V8.95831ZM24.2916 8.45831V15.4583H25.2916V8.45831H24.2916ZM24.7916 14.9583H17.7916V15.9583H24.7916V14.9583ZM18.2916 15.4583V8.45831H17.2916V15.4583H18.2916ZM18.2916 8.45831V3.76196H17.2916V8.45831H18.2916ZM26.5416 14.9583H21.2916V15.9583H26.5416V14.9583ZM17.7916 21.9583H16.6249V22.9583H17.7916V21.9583ZM2.62492 21.9583H1.45825V22.9583H2.62492V21.9583ZM11.9583 21.9583H7.29158V22.9583H11.9583V21.9583Z" fill="#101820"/>
</svg>
