<svg width="16" height="16" viewBox="0 0 16 16" fill="none" xmlns="http://www.w3.org/2000/svg">
<path fill-rule="evenodd" clip-rule="evenodd" d="M4.33591 4.33573C4.46609 4.20555 4.67714 4.20555 4.80732 4.33573L8.00019 7.5286L11.1931 4.33573C11.3232 4.20555 11.5343 4.20555 11.6645 4.33573C11.7946 4.4659 11.7946 4.67696 11.6645 4.80713L8.47159 8L11.6645 11.1929C11.7946 11.323 11.7946 11.5341 11.6645 11.6643C11.5343 11.7945 11.3232 11.7945 11.1931 11.6643L8.00019 8.47141L4.80732 11.6643C4.67714 11.7945 4.46609 11.7945 4.33591 11.6643C4.20574 11.5341 4.20574 11.323 4.33591 11.1929L7.52878 8L4.33591 4.80713C4.20574 4.67696 4.20574 4.4659 4.33591 4.33573Z" fill="#261D1D"/>
</svg>
