<svg width="28" height="28" viewBox="0 0 28 28" fill="none" xmlns="http://www.w3.org/2000/svg">
<path d="M4 5V4.5C3.72386 4.5 3.5 4.72386 3.5 5H4ZM15 5H15.5C15.5 4.72386 15.2761 4.5 15 4.5V5ZM15 11V10.5C14.8674 10.5 14.7402 10.5527 14.6464 10.6464C14.5527 10.7402 14.5 10.8674 14.5 11H15ZM4 5.5H15V4.5H4V5.5ZM14.5 5V21H15.5V5H14.5ZM4.5 19V5H3.5V19H4.5ZM15 11.5H20V10.5H15V11.5ZM23.5 15V19H24.5V15H23.5ZM15.5 21L15.5 11H14.5L14.5 21H15.5ZM21.0607 22.0607C20.4749 22.6464 19.5251 22.6464 18.9393 22.0607L18.2322 22.7678C19.2085 23.7441 20.7915 23.7441 21.7678 22.7678L21.0607 22.0607ZM18.9393 19.9393C19.5251 19.3536 20.4749 19.3536 21.0607 19.9393L21.7678 19.2322C20.7915 18.2559 19.2085 18.2559 18.2322 19.2322L18.9393 19.9393ZM9.06066 22.0607C8.47487 22.6464 7.52513 22.6464 6.93934 22.0607L6.23223 22.7678C7.20854 23.7441 8.79146 23.7441 9.76777 22.7678L9.06066 22.0607ZM6.93934 19.9393C7.52513 19.3536 8.47487 19.3536 9.06066 19.9393L9.76777 19.2322C8.79146 18.2559 7.20854 18.2559 6.23223 19.2322L6.93934 19.9393ZM21.0607 19.9393C21.3537 20.2323 21.5 20.6153 21.5 21H22.5C22.5 20.361 22.2558 19.7203 21.7678 19.2322L21.0607 19.9393ZM21.5 21C21.5 21.3847 21.3537 21.7677 21.0607 22.0607L21.7678 22.7678C22.2558 22.2797 22.5 21.639 22.5 21H21.5ZM18 20.5H15V21.5H18V20.5ZM18.9393 22.0607C18.6463 21.7677 18.5 21.3847 18.5 21H17.5C17.5 21.639 17.7442 22.2797 18.2322 22.7678L18.9393 22.0607ZM18.5 21C18.5 20.6153 18.6463 20.2323 18.9393 19.9393L18.2322 19.2322C17.7442 19.7203 17.5 20.361 17.5 21H18.5ZM6.93934 22.0607C6.64635 21.7677 6.5 21.3847 6.5 21H5.5C5.5 21.639 5.74418 22.2797 6.23223 22.7678L6.93934 22.0607ZM6.5 21C6.5 20.6153 6.64635 20.2323 6.93934 19.9393L6.23223 19.2322C5.74418 19.7203 5.5 20.361 5.5 21H6.5ZM15 20.5H10V21.5H15V20.5ZM9.06066 19.9393C9.35365 20.2323 9.5 20.6153 9.5 21H10.5C10.5 20.361 10.2558 19.7203 9.76777 19.2322L9.06066 19.9393ZM9.5 21C9.5 21.3847 9.35365 21.7677 9.06066 22.0607L9.76777 22.7678C10.2558 22.2797 10.5 21.639 10.5 21H9.5ZM23.5 19C23.5 19.8284 22.8284 20.5 22 20.5V21.5C23.3807 21.5 24.5 20.3807 24.5 19H23.5ZM20 11.5C21.933 11.5 23.5 13.067 23.5 15H24.5C24.5 12.5147 22.4853 10.5 20 10.5V11.5ZM3.5 19C3.5 20.3807 4.61929 21.5 6 21.5V20.5C5.17157 20.5 4.5 19.8284 4.5 19H3.5Z" fill="#101820"/>
<path d="M4 10H7" stroke="#101820" stroke-linecap="round" stroke-linejoin="round"/>
<path d="M4 14H9" stroke="#101820" stroke-linecap="round" stroke-linejoin="round"/>
</svg>
