<svg width="20" height="20" viewBox="0 0 20 20" fill="none" xmlns="http://www.w3.org/2000/svg">
<path d="M16.4275 8.57142C16.4275 13.5714 9.99888 17.8571 9.99888 17.8571C9.99888 17.8571 3.57031 13.5714 3.57031 8.57142C3.57031 6.86646 4.24761 5.23133 5.4532 4.02574C6.65879 2.82015 8.29392 2.14285 9.99888 2.14285C11.7038 2.14285 13.339 2.82015 14.5446 4.02574C15.7502 5.23133 16.4275 6.86646 16.4275 8.57142Z" stroke="white" stroke-linecap="round" stroke-linejoin="round"/>
<path d="M9.99888 10.7143C11.1824 10.7143 12.1417 9.75489 12.1417 8.57142C12.1417 7.38796 11.1824 6.42857 9.99888 6.42857C8.81542 6.42857 7.85603 7.38796 7.85603 8.57142C7.85603 9.75489 8.81542 10.7143 9.99888 10.7143Z" stroke="white" stroke-linecap="round" stroke-linejoin="round"/>
</svg>
