<svg width="20" height="20" viewBox="0 0 20 20" fill="none" xmlns="http://www.w3.org/2000/svg">
<path d="M12.8569 16.4286V15C12.8569 14.2423 12.5558 13.5155 12.02 12.9797C11.4842 12.4439 10.7575 12.1429 9.99972 12.1429H4.99972C4.24196 12.1429 3.51523 12.4439 2.97942 12.9797C2.4436 13.5155 2.14258 14.2423 2.14258 15V16.4286M13.5712 9.28573L14.9997 10.7143L17.8569 7.85716M10.3569 6.42858C10.3569 8.00654 9.07768 9.28573 7.49972 9.28573C5.92176 9.28573 4.64258 8.00654 4.64258 6.42858C4.64258 4.85063 5.92176 3.57144 7.49972 3.57144C9.07768 3.57144 10.3569 4.85063 10.3569 6.42858Z" stroke="#A29994" stroke-linecap="round" stroke-linejoin="round"/>
</svg>
