<svg width="24" height="24" viewBox="0 0 24 24" fill="none" xmlns="http://www.w3.org/2000/svg">
<path d="M4.28516 6.85714H5.99944M5.99944 6.85714H19.7137M5.99944 6.85714V18.8571C5.99944 19.3118 6.18005 19.7478 6.50154 20.0693C6.82304 20.3908 7.25907 20.5714 7.71373 20.5714H16.2852C16.7398 20.5714 17.1758 20.3908 17.4973 20.0693C17.8188 19.7478 17.9994 19.3118 17.9994 18.8571V6.85714H5.99944ZM8.57087 6.85714V5.14286C8.57087 4.6882 8.75148 4.25216 9.07297 3.93067C9.39446 3.60918 9.8305 3.42857 10.2852 3.42857H13.7137C14.1684 3.42857 14.6044 3.60918 14.9259 3.93067C15.2474 4.25216 15.428 4.6882 15.428 5.14286V6.85714M10.2852 11.1429V16.2857M13.7137 11.1429V16.2857" stroke="#101820" stroke-linecap="round" stroke-linejoin="round"/>
</svg>
