<svg width="56" height="56" viewBox="0 0 56 56" fill="none" xmlns="http://www.w3.org/2000/svg">
<path fill-rule="evenodd" clip-rule="evenodd" d="M21.4125 37.445L22.279 35.3807L28.5173 45.4294L47.5444 14.8549L49 16.1013L42.4844 42.703L41.7219 40.2493L45.1183 23.2678L28.5173 48L21.4125 37.445ZM14.5156 42.703L8 16.0623L9.45562 14.816L18.6399 29.5774L17.8428 32.148L11.8817 23.2678L15.2781 40.2493L14.5156 42.703ZM37.4243 37.7176L40.4396 45.4294H41.8605L38.672 35.926L37.4243 37.7176ZM27.6509 8H28.4827H29.3145L36.4886 29.4606L35.1023 31.7975L28.5173 14.816L16.5951 45.4294H15.1741L27.6509 8Z" fill="#D29F13"/>
</svg>
