<svg width="112" height="12" viewBox="0 0 112 12" fill="none" xmlns="http://www.w3.org/2000/svg">
<path d="M35.0156 8.61043V2.66992H36.4571V4.96901H40.6087L42.4826 2.66992H44.2557L41.8484 5.59733L44.2557 8.61043H42.4826L40.5366 6.18282H36.4571V8.61043H35.0156Z" fill="#261D1D"/>
<path d="M47.5708 7.3395H54.7784V8.62471H47.4555C47.124 8.62471 46.951 8.62471 46.8068 8.58187C46.6627 8.53903 46.5185 8.45335 46.4176 8.35339C46.3167 8.23915 46.2302 8.11063 46.187 7.96782C46.1437 7.82502 46.1437 7.65366 46.1437 7.31094V3.98369C46.1437 3.64097 46.1437 3.46961 46.187 3.3268C46.2302 3.184 46.3167 3.0412 46.4176 2.94124C46.5329 2.84128 46.6627 2.7556 46.8068 2.71276C46.951 2.66992 47.124 2.66992 47.4699 2.66992H54.7928V3.92657H47.5708V5.02608H53.7551V6.25416H47.5708V7.3395Z" fill="#261D1D"/>
<path fill-rule="evenodd" clip-rule="evenodd" d="M70.2168 2.66992H72.7255C72.985 2.66992 73.1147 2.66992 73.23 2.69848C73.4607 2.7556 73.6769 2.88412 73.8355 3.05548C73.8924 3.12324 73.9404 3.20885 74.0222 3.35469L74.0243 3.35855C74.0454 3.39613 74.0687 3.43767 74.0949 3.48389L76.7473 8.59615H75.1905L74.273 6.86821H68.6837L67.7663 8.59615H66.2094L68.8618 3.48389C68.9771 3.2555 69.0348 3.14115 69.1069 3.05548C69.2654 2.88412 69.4817 2.7556 69.7123 2.69848C69.8276 2.66992 69.9574 2.66992 70.2168 2.66992ZM70.2457 3.92657H72.7111L73.6209 5.64012H69.3358L70.2457 3.92657Z" fill="#261D1D"/>
<path d="M91.3639 8.61043H93.2811L98.7733 3.89515V8.61043H100.2V2.66992H98.139L92.791 7.26835V2.66992H91.3639V8.61043Z" fill="#261D1D"/>
<path d="M78.3471 2.66992H80.4229L83.551 6.6255L86.679 2.66992H88.6539V8.61043H87.2268V4.19789L84.2573 7.96783H82.8446L79.7886 4.09793V8.61043H78.3471V2.66992Z" fill="#261D1D"/>
<path fill-rule="evenodd" clip-rule="evenodd" d="M63.7737 2.66992C64.3215 2.66992 64.7396 2.81272 65.0134 3.06976C65.3017 3.3268 65.4315 3.72665 65.4315 4.26929V4.92617C65.4315 5.46881 65.2873 5.88294 65.0134 6.13998C64.7396 6.39702 64.3215 6.52554 63.7737 6.52554H58.3825V8.61043H56.9554V2.66992H63.7737ZM58.3969 5.29745H64.0188V3.92657H58.3969V5.29745Z" fill="#261D1D"/>
<path d="M102.766 2.66992V8.61043H104.208V6.18282H108.302L110.233 8.61043H112.006L109.599 5.59733L112.006 2.66992H110.233L108.359 4.95473H104.208V2.66992H102.766Z" fill="#261D1D"/>
<path d="M30.9636 0H0V11.2812H30.9636V0Z" fill="#D22630"/>
<path d="M5.40625 2.66992V8.61043H6.83334V6.18282H10.9272L12.8733 8.61043H14.6463L12.239 5.59733L14.6319 2.66992H12.8588L10.9993 4.95473H6.83334V2.66992H5.40625Z" fill="white"/>
<path d="M16.5489 3.3268C16.5057 3.46961 16.5057 3.64097 16.5057 3.98369L16.5201 7.29666C16.5201 7.63938 16.5201 7.81074 16.5634 7.95355C16.6066 8.09635 16.6931 8.23915 16.794 8.33911C16.9093 8.43907 17.0391 8.52475 17.1832 8.56759C17.3129 8.61043 17.4859 8.61043 17.8319 8.61043H25.5728V7.38234H17.9472V3.89801H25.5728V2.66992H17.8319C17.4859 2.66992 17.3129 2.66992 17.1688 2.71276C17.0246 2.7556 16.8805 2.84128 16.7796 2.94124C16.6787 3.05548 16.5922 3.184 16.5489 3.3268Z" fill="white"/>
</svg>
