<svg width="117" height="26" viewBox="0 0 117 26" fill="none" xmlns="http://www.w3.org/2000/svg">
<path d="M81.4987 10.6639C79.5477 10.6639 77.5885 10.6556 75.6375 10.6723C75.315 10.6723 75.2158 10.5889 75.2241 10.2556C75.2489 9.28901 75.2406 8.3224 75.2241 7.34744C75.2241 7.08912 75.2902 7.02246 75.5465 7.02246C79.5229 7.03079 83.4993 7.03079 87.4758 7.02246C87.7238 7.02246 87.8064 7.08912 87.8064 7.34744C87.7899 8.34739 87.7899 9.33901 87.8064 10.339C87.8147 10.6473 87.6824 10.6723 87.4427 10.6723C85.4586 10.6556 83.4745 10.6639 81.4987 10.6639Z" fill="#ED2A2C"/>
<path d="M112.185 1.51432C113.252 1.66431 114.153 2.18095 114.996 2.89758C115.084 2.69634 115.169 2.4992 115.253 2.30487C115.436 1.87974 115.613 1.46768 115.806 1.05601C115.872 0.906015 115.872 0.847685 115.699 0.797687C114.144 0.34771 112.565 0.047725 110.937 0.306045C108.349 0.722691 106.869 2.94758 107.522 5.42246C107.795 6.45574 108.523 7.1057 109.366 7.67234C109.874 8.01533 110.42 8.29073 110.966 8.56594C111.256 8.71197 111.546 8.85795 111.83 9.01394C112.408 9.33892 112.979 9.67224 113.409 10.1972C113.979 10.8972 114.02 11.6638 113.632 12.4471C113.235 13.2554 112.631 13.8054 111.673 13.797C110.788 13.7804 109.961 13.5554 109.192 13.1137C108.787 12.8721 108.391 12.6304 108.002 12.3638C107.812 12.2221 107.746 12.2471 107.671 12.4721C107.522 12.9387 107.365 13.3887 107.184 13.8387C107.093 14.0554 107.15 14.1304 107.349 14.197C107.52 14.2532 107.689 14.3168 107.858 14.3803C108.09 14.4675 108.322 14.5545 108.556 14.622C110.16 15.072 111.763 15.272 113.392 14.7637C116.095 13.922 117.261 10.1472 115.153 8.05566C114.582 7.49735 113.905 7.1057 113.185 6.78072C112.359 6.40574 111.532 6.03076 110.796 5.48079C109.862 4.78915 109.531 3.73087 109.895 2.65593C110.085 2.08929 110.474 1.73097 111.036 1.56432C111.416 1.44765 111.797 1.45599 112.185 1.51432Z" fill="white"/>
<path d="M70.8412 7.70568C70.8412 8.27062 70.8407 8.83505 70.8402 9.39921V9.41086C70.8387 11.0979 70.8371 12.7826 70.8495 14.472C70.8495 14.772 70.7999 14.8803 70.4775 14.8636C69.8327 14.8303 69.1796 14.8387 68.5348 14.8636C68.2289 14.872 68.1462 14.797 68.1462 14.4803C68.1545 13.5137 68.1545 12.545 68.1545 11.5763C68.1545 10.6076 68.1545 9.63891 68.1627 8.67229C68.1627 8.36398 68.1049 8.24732 67.7659 8.24732C65.6165 8.26398 63.4754 8.26398 61.326 8.24732C61.0283 8.24732 60.9291 8.30565 60.9374 8.63063C60.9457 9.59725 60.9457 10.5659 60.9457 11.5347C60.9457 12.5034 60.9457 13.4721 60.9539 14.4387C60.9539 14.797 60.8547 14.872 60.5241 14.8553C59.8958 14.8303 59.2592 14.8303 58.6227 14.8553C58.3168 14.8637 58.2672 14.7637 58.2672 14.4803C58.2754 11.2138 58.2754 7.94733 58.2754 4.68083C58.2754 3.38089 58.2341 2.08096 58.1266 0.781022C58.1018 0.497703 58.168 0.406041 58.4656 0.414374C59.1765 0.439373 59.8958 0.439373 60.615 0.414374C60.8961 0.406041 60.9457 0.506036 60.9457 0.764357C60.9424 1.54313 60.9417 2.32189 60.941 3.10066V3.10402C60.94 4.27404 60.9391 5.44405 60.9291 6.61406C60.9291 6.93071 60.9953 7.03071 61.326 7.03071C63.4754 7.01404 65.6165 7.01404 67.7659 7.03071C68.0635 7.03071 68.1627 6.97238 68.1545 6.6474C68.1507 6.20708 68.15 5.76676 68.1492 5.32645C68.1465 3.81686 68.1438 2.30728 68.0222 0.797688C67.9974 0.48937 68.0718 0.397708 68.3859 0.406041C69.0721 0.43104 69.7665 0.43104 70.4527 0.406041C70.7586 0.397708 70.8412 0.472705 70.833 0.789355C70.833 1.94756 70.835 3.1016 70.8371 4.25355L70.8371 4.26V4.34969C70.8392 5.46963 70.8412 6.58765 70.8412 7.70568Z" fill="white"/>
<path d="M101.04 5.62242C101.04 5.2201 101.041 4.81829 101.041 4.41675V4.40516C101.043 3.20546 101.044 2.00805 101.032 0.805995C101.032 0.531009 101.082 0.414348 101.388 0.431014C101.867 0.456013 102.355 0.44768 102.834 0.431014C103.024 0.431014 103.107 0.464345 103.107 0.681001C103.104 1.63614 103.11 2.59209 103.115 3.5481V3.54965C103.128 5.65408 103.14 7.75875 103.066 9.85554C102.942 13.322 100.668 15.2719 97.221 15.0636C96.5018 15.0219 95.7991 14.9136 95.1212 14.6553C93.1702 13.922 92.1037 12.3054 92.0955 10.0805C92.0872 7.53066 92.0789 4.98912 92.0624 2.43925C92.0552 1.9644 92.0034 1.49595 91.9518 1.0283L91.9515 1.02542L91.9512 1.0228C91.9441 0.958856 91.9371 0.894925 91.9301 0.830994C91.8971 0.547675 91.9219 0.414348 92.2691 0.431014C92.98 0.464345 93.6993 0.456013 94.4185 0.431014C94.7492 0.414348 94.7988 0.531009 94.7988 0.830994C94.7946 2.25364 94.7946 3.67628 94.7946 5.09995V5.10781C94.7946 6.53345 94.7946 7.96013 94.7905 9.3889C94.7905 10.2972 94.9062 11.1805 95.3031 12.0138C95.9396 13.347 97.1135 14.0303 98.5024 13.872C99.4448 13.7637 100.081 13.222 100.511 12.3971C100.933 11.5888 101.049 10.7222 101.057 9.82221C101.04 8.42292 101.04 7.02364 101.04 5.62435V5.62242Z" fill="white"/>
<path d="M9.91818 7.2067C9.9142 7.19788 9.90914 7.18666 9.9056 7.17237C9.86426 7.16404 9.81466 7.16404 9.74853 7.16404C9.0651 7.1807 8.38167 7.19644 7.69824 7.21219C6.33146 7.24366 4.96468 7.27514 3.5979 7.31403C3.30855 7.32236 3.20108 7.27237 3.20108 6.93905C3.21759 5.33358 3.20938 3.73641 3.20112 2.13097L3.20108 2.12262C3.20108 1.84764 3.24242 1.75598 3.55656 1.76431C5.35876 1.83097 7.16096 1.8643 8.96316 1.89764C9.08075 1.89764 9.20861 1.91755 9.33624 1.93743C9.62136 1.98185 9.90533 2.02608 10.0709 1.84764C10.2247 1.68113 10.2569 1.39989 10.289 1.1184C10.3035 0.991375 10.318 0.864297 10.3437 0.747693C10.3934 0.531038 10.3768 0.431043 10.104 0.431043C6.93775 0.439376 3.7715 0.439376 0.605252 0.431043C0.36551 0.431043 0.315908 0.48104 0.340709 0.731028C0.47298 1.8643 0.539116 2.99758 0.539116 4.13086C0.534983 5.85576 0.534983 7.57859 0.534983 9.30142C0.534983 11.0242 0.534983 12.7471 0.530849 14.472C0.530849 14.7803 0.596985 14.8803 0.91113 14.8637C1.39505 14.8458 1.87475 14.8492 2.35625 14.8526C2.54926 14.854 2.74256 14.8553 2.93654 14.8553C3.74395 14.8553 4.55135 14.8562 5.35876 14.8572C6.97358 14.859 8.58839 14.8609 10.2032 14.8553C10.2343 14.8553 10.2675 14.8593 10.3012 14.8634C10.4287 14.8787 10.5625 14.8948 10.6083 14.697C10.6462 14.5281 10.6842 14.3604 10.7226 14.1907C10.7846 13.9166 10.8478 13.6372 10.9142 13.3387C10.7144 13.3526 10.5433 13.3665 10.3722 13.3804L10.2693 13.3887C8.03726 13.6054 5.79691 13.722 3.55656 13.7804C3.28375 13.7804 3.21762 13.697 3.21762 13.4304C3.22588 11.8555 3.22588 10.2722 3.21762 8.69729C3.21762 8.46397 3.26722 8.38898 3.51523 8.39731C5.16862 8.43064 6.81375 8.44731 8.46714 8.44731C8.58029 8.44731 8.70324 8.46426 8.82682 8.48131C9.12765 8.5228 9.4322 8.5648 9.60799 8.36398C9.7718 8.18116 9.81555 7.88566 9.85935 7.58971C9.87745 7.46748 9.89555 7.34518 9.92213 7.2307C9.92686 7.22594 9.92348 7.21846 9.91818 7.2067Z" fill="white"/>
<path d="M30.8455 7.83068C30.8339 7.2398 30.8386 6.60579 30.8435 5.94379C30.8525 4.72003 30.8623 3.40037 30.7711 2.08097C30.7656 2.0085 30.7604 1.93602 30.7552 1.86358L30.7552 1.86284C30.7287 1.49411 30.7023 1.12633 30.6471 0.764371C30.6057 0.506051 30.6553 0.422722 30.9199 0.431054C31.3539 0.443554 31.7879 0.441991 32.2219 0.440429C32.3666 0.439908 32.5113 0.439387 32.6559 0.439387C35.2187 0.439387 37.7732 0.439387 40.336 0.431054C40.6088 0.431054 40.7493 0.456053 40.6418 0.78937C40.5509 1.06436 40.5013 1.35601 40.4765 1.63933C40.4517 1.90598 40.3194 1.93931 40.0962 1.93098C39.4045 1.91154 38.7129 1.89394 38.0212 1.87635C36.6379 1.84117 35.2545 1.80599 33.8712 1.75599C33.5488 1.74766 33.5157 1.84765 33.5157 2.12264L33.5157 2.13167V2.13279C33.524 3.73752 33.5322 5.3343 33.5157 6.93906C33.5157 7.27238 33.6232 7.32238 33.9125 7.31404C34.9129 7.285 35.9134 7.26215 36.9128 7.23933L36.9134 7.23931C37.9206 7.2163 38.9268 7.19333 39.9309 7.16405C40.1706 7.15572 40.2368 7.18905 40.1789 7.44737L40.1737 7.47097C40.0657 7.96313 40.0112 8.21135 39.8569 8.33553C39.6999 8.46189 39.4395 8.45982 38.9142 8.45566C38.345 8.45008 37.7747 8.44544 37.2043 8.4408C36.0681 8.43155 34.9305 8.4223 33.7968 8.40565C33.5818 8.40565 33.5074 8.45565 33.5074 8.68064L33.5075 8.68821V8.68975C33.5157 10.2949 33.5239 11.8919 33.5074 13.4971C33.5074 13.7901 33.6419 13.7896 33.8326 13.7888L33.8629 13.7887C36.1033 13.7387 38.3436 13.6137 40.5757 13.3971C40.6121 13.3942 40.6494 13.3924 40.6871 13.3905C40.7606 13.3868 40.8353 13.3831 40.9064 13.3721C41.1461 13.3221 41.2371 13.3804 41.1544 13.6471C41.1159 13.7773 41.093 13.9231 41.0701 14.0687C41.0241 14.3611 40.9783 14.6523 40.8072 14.8137C40.6267 14.9839 40.3108 14.9474 39.9953 14.9109C39.8629 14.8956 39.7306 14.8803 39.6085 14.8803C38.2117 14.8845 36.8149 14.8845 35.4181 14.8845H35.4161C34.0193 14.8845 32.6225 14.8845 31.2257 14.8887C30.8951 14.8887 30.8289 14.797 30.8289 14.4803C30.8487 12.7972 30.8475 11.1298 30.8462 9.2896C30.8458 8.81582 30.8455 8.33059 30.8455 7.83068Z" fill="white"/>
<path d="M45.421 7.66402C45.4071 6.98077 45.4127 6.25178 45.4186 5.49268C45.4302 3.9836 45.4427 2.35544 45.3052 0.731034C45.2887 0.497712 45.3383 0.422716 45.5863 0.431049C46.2973 0.447715 47.0165 0.456048 47.7357 0.431049C48.0499 0.422716 48.116 0.514378 48.116 0.822696C48.1127 2.47166 48.112 4.11928 48.1114 5.76664V5.76846C48.1104 8.24115 48.1094 10.7136 48.0995 13.1887C48.0995 13.5637 48.1739 13.6637 48.5707 13.6471C50.8524 13.5721 53.134 13.4137 55.4075 13.2471C55.6637 13.2304 55.7629 13.2471 55.672 13.5387C55.5728 13.8554 55.5149 14.1804 55.4736 14.5137C55.4323 14.7803 55.3248 14.8637 55.0437 14.8637C53.7729 14.8512 52.5068 14.8527 51.2384 14.8543C50.8152 14.8548 50.3918 14.8553 49.9678 14.8553C49.6206 14.8553 49.2733 14.8548 48.9261 14.8543C47.8845 14.8527 46.8429 14.8512 45.8012 14.8637C45.4788 14.872 45.421 14.772 45.421 14.472V7.66402Z" fill="white"/>
<path d="M78.6428 5.34504C78.4844 5.68907 78.3249 6.03531 78.1574 6.38074C78.2137 6.38742 78.2621 6.39008 78.3056 6.39249C78.3708 6.39608 78.4253 6.39909 78.4799 6.41408C79.381 6.58073 79.9266 6.26408 80.1911 5.33913C80.3205 4.89136 80.5301 4.47059 80.7498 4.02959C80.8531 3.82228 80.9587 3.61039 81.0592 3.38923C81.456 4.34751 81.8197 5.22247 82.1917 6.09742C82.2021 6.11966 82.2115 6.14252 82.2208 6.16525C82.2707 6.28715 82.3192 6.40574 82.5141 6.40574C83.1592 6.39324 83.8089 6.39481 84.4563 6.39637H84.458C84.6729 6.39689 84.8876 6.39741 85.1017 6.39741C85.1051 6.37361 85.1098 6.35398 85.1137 6.33794C85.1193 6.3147 85.1231 6.29894 85.1182 6.28908C84.6967 5.34765 84.2731 4.40413 83.8495 3.46061L83.8493 3.46007L83.8408 3.44124C83.4199 2.50381 82.9991 1.56639 82.5803 0.631033C82.5389 0.531043 82.4976 0.431043 82.3571 0.431043H79.5298C79.5529 0.480269 79.572 0.524661 79.5894 0.564972C79.6279 0.654313 79.6578 0.723604 79.7034 0.781025C80.3317 1.55599 80.249 2.28928 79.753 3.13091C79.3376 3.83637 78.9927 4.58533 78.6428 5.34504Z" fill="white"/>
<path d="M55.0818 22.4338C55.0785 23.2251 55.0753 23.9795 55.0929 24.7298C55.1011 25.0715 54.9358 25.0798 54.6961 25.0548C54.6487 25.0491 54.5988 25.0521 54.55 25.055C54.3858 25.065 54.235 25.0741 54.2414 24.7465C54.2662 23.1715 54.2579 21.5883 54.2496 20.0134C54.2496 19.8051 54.3075 19.7467 54.5225 19.7217C54.9275 19.6884 55.2003 19.8217 55.4732 20.1384C56.041 20.807 56.6279 21.4603 57.2339 22.1348C57.519 22.4522 57.8085 22.7743 58.1021 23.1049C58.1021 22.7969 58.1035 22.4974 58.1048 22.2039L58.1048 22.2025C58.1082 21.4881 58.1114 20.8089 58.0938 20.13C58.0855 19.7967 58.1847 19.7217 58.4989 19.7217C58.8296 19.7217 58.937 19.7967 58.937 20.1467C58.9215 21.1051 58.9222 22.0667 58.9228 23.0274V23.028C58.9232 23.6041 58.9236 24.1802 58.9205 24.7548C58.9205 24.7871 58.9248 24.8225 58.9292 24.8585C58.944 24.9804 58.9598 25.1098 58.813 25.1548C58.6063 25.2131 58.3997 25.2048 58.2178 25.0048C57.5905 24.2735 56.9524 23.5459 56.3154 22.8195L56.3147 22.8187C55.9865 22.4445 55.6586 22.0706 55.3326 21.6966C55.2665 21.6383 55.2003 21.5716 55.0846 21.4383C55.0846 21.777 55.0832 22.1073 55.0818 22.4314V22.4338Z" fill="white"/>
<path d="M65.8421 21.6548C65.6929 21.8175 65.5405 21.9836 65.385 22.155C65.385 21.5967 65.385 21.155 65.3602 20.7134C65.3602 20.219 65.3602 19.9753 65.2384 19.8541C65.1198 19.7362 64.8859 19.7343 64.4244 19.7305L64.3765 19.7301C64.1119 19.7301 64.0375 19.7968 64.0375 20.0717C64.0499 21.0656 64.0484 22.0641 64.0468 23.0603C64.0463 23.3921 64.0458 23.7239 64.0458 24.0549C64.0458 24.5728 64.0458 24.8291 64.1739 24.9538C64.2993 25.076 64.5476 25.0719 65.039 25.0639L65.0874 25.0632C65.3437 25.0548 65.3768 24.9632 65.3685 24.7465C65.3591 24.5179 65.3604 24.2894 65.3618 24.0608C65.3628 23.8894 65.3638 23.718 65.3602 23.5466C65.3602 23.3132 65.5256 23.1799 65.6744 23.0883C65.7773 23.0212 65.8403 23.1237 65.8991 23.2195C65.9206 23.2546 65.9416 23.2887 65.9637 23.3132C66.2632 23.6549 66.5588 24.0005 66.8531 24.3447L66.8556 24.3476L66.8581 24.3505C66.9928 24.508 67.1272 24.6652 67.2616 24.8215C67.2834 24.8457 67.3029 24.8733 67.3224 24.9009C67.3768 24.978 67.431 25.0548 67.5345 25.0548C67.833 25.0603 68.1316 25.0586 68.4489 25.0568C68.6148 25.0558 68.7858 25.0548 68.9646 25.0548L68.9638 25.0538L68.9615 25.0512C68.1525 24.1193 67.4012 23.2538 66.6416 22.405C66.4928 22.2383 66.4928 22.1466 66.6499 21.98C67.1562 21.4417 67.6509 20.8857 68.1437 20.3319L68.1444 20.3311L68.4273 20.0134C68.4437 19.9948 68.4641 19.9783 68.4848 19.9615C68.5478 19.9106 68.6134 19.8575 68.5761 19.7384C68.5344 19.7384 68.4928 19.7412 68.4515 19.744C68.3697 19.7496 68.2892 19.755 68.2123 19.7384C67.7246 19.6468 67.4022 19.8717 67.0963 20.2384C66.7061 20.7129 66.288 21.1687 65.8421 21.6548Z" fill="white"/>
<path d="M35.4837 19.7384C35.367 19.8684 35.2522 19.9967 35.1387 20.1233C34.569 20.7593 34.0346 21.356 33.4831 21.9466C33.3012 22.1383 33.2929 22.2466 33.4748 22.4466C34.0468 23.0733 34.6048 23.7142 35.1875 24.3834C35.3795 24.604 35.5742 24.8276 35.773 25.0548H34.3428C34.2524 25.0548 34.2015 24.9883 34.1517 24.9232C34.1333 24.8991 34.1149 24.8751 34.0948 24.8548C33.8799 24.6048 33.6649 24.3527 33.4499 24.1006C33.235 23.8485 33.0201 23.5965 32.8052 23.3465C32.7802 23.3191 32.7565 23.281 32.7321 23.2418C32.6678 23.1384 32.599 23.0278 32.491 23.0882C32.334 23.1799 32.1686 23.3382 32.1852 23.5882C32.1934 23.7882 32.1914 23.9882 32.1893 24.1882C32.1872 24.3882 32.1852 24.5882 32.1934 24.7881C32.2017 25.0131 32.1273 25.0548 31.9123 25.0631L31.8876 25.0637C31.3804 25.0759 31.1262 25.082 30.9988 24.958C30.8707 24.8332 30.8707 24.577 30.8707 24.0632C30.8707 23.734 30.8712 23.4043 30.8717 23.0744V23.069C30.8733 22.0727 30.8748 21.074 30.8624 20.08C30.8624 19.8134 30.9286 19.7301 31.2014 19.7301L31.2494 19.7305C31.7067 19.7342 31.9385 19.7362 32.0561 19.853C32.1769 19.9732 32.1769 20.2149 32.1769 20.705V22.0299C32.2849 22.0748 32.3246 22.0064 32.3596 21.9458C32.3702 21.9276 32.3804 21.9101 32.3918 21.8966C32.5041 21.7744 32.6172 21.6526 32.7304 21.5307C33.1421 21.0873 33.5552 20.6423 33.9378 20.1717C34.2188 19.8301 34.5247 19.6717 34.9546 19.7301C35.0567 19.7472 35.1549 19.7448 35.2839 19.7415C35.3429 19.74 35.4084 19.7384 35.4837 19.7384Z" fill="white"/>
<path d="M73.0004 21.813C72.9999 22.0024 72.9994 22.1914 72.9994 22.3799C72.9994 22.6463 73.0003 22.9126 73.0012 23.1793C73.003 23.7135 73.0049 24.249 72.9994 24.7881C72.9911 25.0048 73.049 25.0715 73.2722 25.0715C74.413 25.0631 75.5539 25.0548 76.6947 25.0715C76.9551 25.0715 76.9594 24.9576 76.9665 24.7734L76.9675 24.7465C76.9758 24.5215 76.9097 24.4382 76.6699 24.4465C76.3225 24.4548 75.9771 24.4527 75.6328 24.4507C75.2889 24.4486 74.946 24.4465 74.6032 24.4548C74.38 24.4632 74.2973 24.3965 74.3055 24.1548C74.3304 23.7465 74.3304 23.3299 74.3055 22.9132C74.289 22.6383 74.3965 22.5883 74.6362 22.5966C74.9197 22.6061 75.2031 22.6048 75.4865 22.6034C75.699 22.6024 75.9118 22.6014 76.1243 22.6049C76.2979 22.6049 76.3971 22.5883 76.3971 22.3633C76.3888 22.1549 76.3392 22.0716 76.116 22.08C75.8232 22.0895 75.533 22.0881 75.2425 22.0868H75.242C75.0243 22.0857 74.8061 22.0847 74.5866 22.0883C74.38 22.0966 74.289 22.055 74.2973 21.8216C74.3138 21.4217 74.3138 21.0217 74.2973 20.6217C74.289 20.3967 74.3634 20.3467 74.5784 20.3467C74.9254 20.3509 75.2704 20.3509 75.6144 20.3509C75.9585 20.3509 76.3021 20.3509 76.6451 20.355C76.8518 20.355 76.9675 20.3384 76.9593 20.0717C76.951 19.8384 76.9262 19.7301 76.6534 19.7384C75.5456 19.7551 74.4296 19.7551 73.3135 19.7384C73.0159 19.7301 72.9828 19.8467 72.9911 20.0967C73.0035 20.6654 73.002 21.2388 73.0004 21.8098V21.813Z" fill="white"/>
<path d="M84.358 11.2722H87.2018C87.3175 11.2722 87.3754 11.3305 87.4167 11.4222C87.7645 12.1978 88.1122 12.9775 88.4653 13.7692L88.4676 13.7744C88.6259 14.1292 88.7852 14.4865 88.9461 14.847H86.061C85.9204 14.847 85.8378 14.797 85.7881 14.6637C85.6457 14.3261 85.5032 13.9892 85.3603 13.6513C85.0305 12.8716 84.6982 12.0861 84.358 11.2722Z" fill="white"/>
<path d="M39.7839 21.8118C39.7834 22.0091 39.7829 22.2068 39.7829 22.405C39.7829 22.6657 39.7838 22.9275 39.7847 23.1895C39.7866 23.7145 39.7884 24.2407 39.7829 24.7632C39.7746 24.9965 39.849 25.0632 40.0805 25.0632C41.2213 25.0548 42.3623 25.0465 43.503 25.0632C43.7511 25.0632 43.7759 24.9632 43.7841 24.7465C43.7924 24.5132 43.7097 24.4465 43.4782 24.4549C43.2174 24.4582 42.9552 24.4562 42.6922 24.4542C42.2968 24.4512 41.8995 24.4482 41.5024 24.4632C41.1883 24.4715 41.0808 24.4049 41.0891 24.0632C41.1068 23.2719 41.1034 22.4848 41.1001 21.6959C41.0987 21.3799 41.0974 21.0637 41.0974 20.7467C41.0974 20.2246 41.0974 19.9663 40.9683 19.8406C40.8418 19.7175 40.5916 19.7216 40.0965 19.7297L40.0723 19.7301C39.8325 19.7384 39.7664 19.8051 39.7746 20.0384C39.787 20.6318 39.7855 21.2207 39.7839 21.8118Z" fill="white"/>
<path d="M49.0742 22.4216C49.0742 22.6154 49.0737 22.8091 49.0731 23.0029C49.0716 23.5841 49.07 24.1653 49.0824 24.7465C49.0907 25.0048 49.0163 25.0715 48.76 25.0715L48.7352 25.0717C48.2529 25.0758 48.0111 25.0778 47.8899 24.9579C47.768 24.8374 47.768 24.5936 47.768 24.1048C47.768 23.7694 47.7685 23.434 47.769 23.0985C47.7706 22.0924 47.7721 21.0862 47.7597 20.08C47.7597 19.8134 47.8176 19.7301 48.0987 19.7384L48.1462 19.7388C49.0742 19.7465 49.0742 19.7465 49.0742 20.7217V22.4216Z" fill="white"/>
<path d="M76.658 13.6861C76.8474 12.8767 77.0384 12.0605 77.4633 11.2722H77.1161C76.9768 11.2776 76.828 11.2629 76.6792 11.2481C76.3687 11.2174 76.0583 11.1867 75.8347 11.3388C75.6117 11.4968 75.4898 11.8054 75.3696 12.1095C75.3249 12.2226 75.2805 12.335 75.2312 12.4388C74.851 13.2221 74.4707 14.0137 74.0739 14.847C74.2734 14.847 74.468 14.8456 74.6592 14.8442C75.1254 14.8408 75.571 14.8376 76.0166 14.8553C76.2894 14.872 76.3886 14.7637 76.4547 14.5137C76.5285 14.2395 76.5932 13.9632 76.658 13.6861Z" fill="white"/>
<path fill-rule="evenodd" clip-rule="evenodd" d="M27.0346 5.21414C26.7204 3.45589 25.8441 2.04763 24.2238 1.18934C23.4219 0.764361 22.5621 0.522707 21.661 0.481042C20.2818 0.419934 18.9026 0.42729 17.5234 0.434645C16.6457 0.439326 15.7681 0.444007 14.8904 0.431045C14.6589 0.431045 14.6507 0.53104 14.6837 0.706031C14.8408 1.52266 14.9235 2.34761 14.9235 3.18091C14.929 4.35307 14.9271 5.52523 14.9253 6.6974C14.9244 7.28348 14.9235 7.86956 14.9235 8.45564H14.94C14.94 8.95767 14.9405 9.4597 14.941 9.96173C14.9426 11.4679 14.9441 12.9741 14.9317 14.4803C14.9317 14.7553 14.9731 14.8637 15.2789 14.8637C15.9876 14.8565 16.6963 14.8586 17.4043 14.8606C18.3481 14.8633 19.2909 14.866 20.2309 14.847C23.0664 14.797 25.1497 13.5054 26.3402 10.8972C27.1834 9.08894 27.3818 7.17237 27.0346 5.21414ZM23.364 11.4555C22.6117 12.9304 21.4048 13.722 19.7018 13.6554C19.1231 13.6304 18.5444 13.6387 17.9657 13.6554C17.6929 13.6637 17.6185 13.5804 17.6268 13.3054C17.635 11.4222 17.635 9.54725 17.635 7.66401C17.635 7.1974 17.6355 6.73078 17.6361 6.26417V6.26359C17.6376 4.86383 17.6392 3.46406 17.6268 2.0643C17.6268 1.78931 17.6764 1.68098 17.9822 1.69765C18.3016 1.71327 18.6221 1.7078 18.9425 1.70233C19.4763 1.69322 20.0098 1.68411 20.5367 1.77264C22.2067 2.05596 23.2814 3.08924 23.827 4.63083C24.6372 6.95572 24.4884 9.2556 23.364 11.4555Z" fill="white"/>
<path fill-rule="evenodd" clip-rule="evenodd" d="M84.9695 22.6883C84.7132 22.8299 84.7298 22.9216 84.8786 23.1299C85.2402 23.6388 85.5905 24.1534 85.9574 24.6923C86.0351 24.8065 86.1136 24.9217 86.193 25.0382C84.8124 25.1215 84.8124 25.1215 84.1345 24.0215C84.0822 23.9354 84.027 23.8502 83.9719 23.7651C83.8617 23.5947 83.7515 23.4243 83.6633 23.2466C83.5476 23.0133 83.3822 22.9549 83.159 22.9966C82.9618 23.0277 82.9851 23.1606 83.0064 23.2815C83.0136 23.3228 83.0206 23.3626 83.0185 23.3966C83.002 23.8632 83.002 24.3382 83.0185 24.8048C83.0267 25.0132 82.9606 25.0548 82.7622 25.0632C82.2343 25.0841 81.9719 25.0966 81.8414 24.9715C81.7123 24.8478 81.7123 24.5894 81.7123 24.0715C81.7123 23.7406 81.7128 23.4092 81.7133 23.0775C81.7149 22.0812 81.7164 21.0824 81.704 20.0884C81.6958 19.7968 81.7867 19.7218 82.0678 19.7301C82.4631 19.7479 82.8543 19.7446 83.2472 19.7412C83.4048 19.7398 83.5626 19.7384 83.7212 19.7384C84.1097 19.7384 84.49 19.8134 84.8372 19.9884C85.3746 20.2551 85.7053 20.6634 85.7301 21.28C85.7549 21.905 85.5151 22.3883 84.9695 22.6883ZM83.1921 22.48C83.8121 22.5716 84.2916 22.2216 84.3825 21.6133C84.4817 20.9634 84.1345 20.4467 83.5393 20.3551C83.0433 20.2801 83.0102 20.3134 83.0102 20.8217V22.23C83.0102 22.355 83.0102 22.455 83.1921 22.48Z" fill="white"/>
</svg>
