<svg width="97" height="24" viewBox="0 0 97 24" fill="none" xmlns="http://www.w3.org/2000/svg">
<path d="M74.2177 7.45703H64.1426V10.3655H74.2177V7.45703Z" fill="#D22630"/>
<path d="M96.5416 8.74836C96.1685 8.19281 95.552 7.70262 94.7246 7.32679C93.4915 6.77124 92.8101 6.39543 92.4045 6.00327C91.9989 5.61111 91.8529 5.21896 91.8529 4.59804C91.8529 4.10785 91.9989 3.69935 92.2747 3.42157C92.4207 3.29085 92.5992 3.17647 92.7939 3.11111C92.9886 3.04576 93.1833 3.01307 93.3942 3.01307C93.8647 3.01307 94.8219 3.14379 95.8765 3.99347L96.0711 4.14052L96.7688 2.52288L96.5741 2.45751C95.6331 2.1634 94.6921 2.01634 93.7349 2C92.5343 2 91.5447 2.34313 90.8633 2.99673C90.555 3.29085 90.3279 3.65032 90.1656 4.05882C90.0034 4.45098 89.9223 4.87581 89.9385 5.30066C89.9385 6.08497 90.1332 6.6732 90.5874 7.19608C91.0093 7.70262 91.6907 8.16013 92.7939 8.69935H92.8101C93.7187 9.14053 94.2703 9.48366 94.6272 9.84314C94.7894 9.9902 94.9355 10.1699 95.0166 10.3824C95.1139 10.5948 95.1464 10.8072 95.1464 11.0359C95.1302 11.5098 94.9517 11.9837 94.6272 12.3268C94.4812 12.4902 94.319 12.6373 94.1243 12.7353C93.9296 12.8333 93.7187 12.8987 93.4915 12.8987C92.2098 12.8987 91.4149 12.4248 90.4414 11.7712L90.2467 11.6405L89.7113 13.1274L89.8736 13.1928C90.9281 13.6503 92.0476 13.8791 93.1833 13.8954C94.4812 13.8954 95.5195 13.4869 96.1847 12.6863C96.7201 12.0327 97.0121 11.2157 96.9959 10.3824C97.0284 9.81046 96.8661 9.23856 96.5416 8.74836Z" fill="#261D1D"/>
<path d="M10.9203 12.6559C11.2504 12.6304 11.5237 12.6093 11.7226 12.5882C11.8796 12.5882 12.4616 12.5271 12.4847 12.5083L12.2093 13.732H4.17846V5.02288C4.17846 4.30392 4.12979 3.61765 4.09734 3.17647C4.08112 2.93137 4.06489 2.73529 4.04867 2.58823C4.04867 2.52288 4 2.1634 4 2.1634H12.0958L11.8686 3.37255L6.33625 3.22549V7.68627L11.7226 7.55556L11.463 8.60131L6.32003 8.56863V12.8823C7.81016 12.8662 9.28447 12.7704 10.2897 12.7051L10.3274 12.7026C10.5403 12.6852 10.7389 12.6699 10.9203 12.6559Z" fill="#261D1D"/>
<path d="M12.4851 12.5065L12.4847 12.5083C12.4855 12.5077 12.4857 12.5071 12.4851 12.5065Z" fill="#261D1D"/>
<path d="M64.5804 10.8725L63.2013 13.732H65.0184L65.5863 11.5752L65.9108 10.8725H64.5804Z" fill="#261D1D"/>
<path d="M73.8443 10.8725H71.4594L72.6599 13.732H75.126L73.8443 10.8725Z" fill="#261D1D"/>
<path d="M84.8441 9.72876V2.1634H86.499V9.45098C86.499 10.7418 86.1258 11.8203 85.4282 12.6046C84.6495 13.4542 83.4976 13.9118 82.0861 13.9118C80.8206 13.9118 79.7498 13.585 78.9711 12.9477C78.1274 12.2614 77.6731 11.1993 77.6731 9.92484V4.56536C77.6731 4.23856 77.6569 3.7647 77.6082 3.17647C77.592 2.94771 77.5758 2.75163 77.5596 2.60458L77.5109 2.1634H79.8147V9.5C79.8147 10.4804 80.0743 11.3627 80.5448 11.9837C80.7719 12.2941 81.064 12.5556 81.4047 12.719C81.7454 12.8823 82.1185 12.964 82.5079 12.964C82.8648 12.9804 83.2055 12.8987 83.5138 12.7353C83.8058 12.5719 84.0654 12.3268 84.2601 12.0327C84.6332 11.4608 84.8441 10.6438 84.8441 9.72876Z" fill="#261D1D"/>
<path d="M58.3504 2.1634V2.27778L58.3666 2.63726C58.3758 2.72966 58.3798 2.84819 58.3844 2.98693C58.388 3.09354 58.392 3.21208 58.399 3.33987C58.4021 3.43981 58.4058 3.54931 58.4098 3.6663C58.4265 4.16138 58.4477 4.79072 58.4477 5.39869V7.49019H52.6395V2.1634H50.3682L50.3844 2.35948L50.4006 2.62091C50.4098 2.71332 50.4138 2.83186 50.4184 2.97062C50.422 3.07721 50.426 3.19574 50.4331 3.32353C50.4655 4.0915 50.4817 4.76144 50.4817 5.34967V13.732H52.6233V8.43791H58.4315V13.7484H60.5731V2.1634H58.3504Z" fill="#261D1D"/>
<path d="M42.3373 12.7843C43.2621 12.768 44.5275 12.719 46.0364 12.6209C46.4333 12.5894 47.3281 12.5239 47.9107 12.4813L47.915 12.481C48.2349 12.4576 48.4595 12.4412 48.4537 12.4412L48.1779 13.732H40.1957V4.45098C40.1957 4.04248 40.1795 3.56862 40.1471 3.02941C40.1399 2.94236 40.1358 2.85854 40.1322 2.78223C40.1276 2.68669 40.1236 2.6028 40.1146 2.53921L40.0822 2.1634H42.3373V12.7843Z" fill="#261D1D"/>
<path d="M36.0424 12.5882C35.8436 12.6093 35.5706 12.6304 35.2408 12.6558L35.2387 12.656C35.0576 12.67 34.8595 12.6853 34.6471 12.7026L34.6086 12.7051L34.6078 12.7052L34.6071 12.7052L34.606 12.7053L34.6056 12.7053L34.6051 12.7054C33.5999 12.7706 32.1277 12.8662 30.6398 12.8823V8.56862L35.7828 8.61765L36.0424 7.57189L30.656 7.70261V3.22549L36.1884 3.37254L36.4155 2.17973H28.336C28.336 2.17973 28.3847 2.53921 28.3847 2.60457C28.4009 2.75163 28.4171 2.94771 28.4333 3.19281C28.4658 3.63399 28.5145 4.32025 28.5145 5.03921V13.7484H36.5453L36.8211 12.5229C36.8211 12.5229 36.2046 12.5882 36.0424 12.5882Z" fill="#261D1D"/>
<path fill-rule="evenodd" clip-rule="evenodd" d="M20.4187 2.1634C22.0573 2.1634 23.3552 2.63726 24.2475 3.58497C25.1074 4.46732 25.5455 5.75817 25.5455 7.31046C25.5455 9.04248 25.0587 10.6111 24.1664 11.7549C23.1605 13.0457 21.6842 13.732 19.8995 13.732H15.7299V4.95751C15.7299 4.3366 15.6975 3.73202 15.6326 3.11111C15.6195 2.9133 15.5958 2.75806 15.5787 2.64541C15.5746 2.61847 15.5708 2.59397 15.5677 2.5719C15.5677 2.50653 15.5028 2.1634 15.5028 2.1634H20.4187ZM22.398 11.2157C22.9496 10.317 23.2579 9.09151 23.2579 7.83334C23.2579 6.46078 22.9172 5.30066 22.3169 4.46732C21.6679 3.61765 20.7269 3.17647 19.6075 3.17647H17.904V12.7843H19.8508C21.165 12.7843 21.96 11.9346 22.398 11.2157Z" fill="#261D1D"/>
<path d="M72.0921 6.95098L69.9505 2.1634H67.5818L68.2146 3.37255L66.4786 6.95098H67.6954L68.7986 4.53268L68.8311 4.5817L69.8207 6.95098H72.0921Z" fill="#261D1D"/>
<path fill-rule="evenodd" clip-rule="evenodd" d="M70.3723 20.3007H70.7878L71.8001 21.9346L72.9357 21.951L71.7298 20.1857C71.8538 20.1323 71.9692 20.0574 72.0759 19.9739C72.2219 19.8595 72.3354 19.7288 72.4328 19.5654C72.5301 19.3856 72.5788 19.1895 72.5626 18.9935C72.5626 18.781 72.5139 18.585 72.4166 18.4216C72.3192 18.2582 72.2057 18.1111 72.0434 18.0131C71.8812 17.8987 71.6865 17.817 71.4918 17.7516C71.2647 17.7026 71.0375 17.6699 70.8104 17.6699H69.334V21.9346H70.3723V20.3007ZM70.3723 19.8758H70.7455C70.8591 19.8758 70.9726 19.8595 71.07 19.8105C71.1511 19.7614 71.2322 19.6961 71.2971 19.6144C71.362 19.5327 71.4107 19.4346 71.4431 19.3366C71.4756 19.2222 71.4918 19.1242 71.4918 19.0098C71.4918 18.8954 71.4756 18.7647 71.4269 18.6503C71.3945 18.5523 71.3458 18.4706 71.2647 18.3889C71.1835 18.3235 71.1024 18.2582 71.0051 18.2255C70.9077 18.1765 70.7942 18.1601 70.6968 18.1601H70.3723V19.8758Z" fill="#261D1D"/>
<path d="M65.5052 17.6699V18.1601H63.3798V19.549H65.0671V19.9575H63.3798V21.4608H65.5052V21.951H62.3415V17.6699H65.5052Z" fill="#261D1D"/>
<path d="M47.9508 17.6699H47.2856V21.951H47.9508V19.0098L50.5791 22H51.0171V17.6699H50.3682V20.3824L47.9508 17.6699Z" fill="#261D1D"/>
<path d="M43.1323 17.6699H42.0939V21.9346H43.1323V17.6699Z" fill="#261D1D"/>
<path d="M36.7238 17.6699H35.6692V21.951H38.8816V21.4608H36.7238V17.6699Z" fill="#261D1D"/>
<path d="M29.569 19.6324L31.3212 17.6699H32.2135L30.436 19.6486L32.4569 21.9346H31.2563L29.8582 20.2918L29.569 20.6137V21.9346H28.5307V17.6699H29.569V19.6324Z" fill="#261D1D"/>
<path d="M57.9934 17.6699L56.2088 19.6517V17.6699H55.1705V21.9346H56.2088V20.6318L56.5142 20.2918L57.9123 21.9346H59.1129L57.092 19.6486L58.8695 17.6699H57.9934Z" fill="#261D1D"/>
</svg>
