<svg width="25" height="24" viewBox="0 0 25 24" fill="none" xmlns="http://www.w3.org/2000/svg">
<mask id="path-1-inside-1_4784_25491" fill="white">
<path fill-rule="evenodd" clip-rule="evenodd" d="M0.5 7.20001H24.5V16.8H0.5V7.20001ZM4.7 10.2H5.9V13.8H4.7V10.2ZM10.7 10.2H9.5V13.8H10.7V10.2ZM14.3 10.2H15.5V13.8H14.3V10.2ZM20.3 10.2H19.1V13.8H20.3V10.2Z"/>
</mask>
<path fill-rule="evenodd" clip-rule="evenodd" d="M0.5 7.20001H24.5V16.8H0.5V7.20001ZM4.7 10.2H5.9V13.8H4.7V10.2ZM10.7 10.2H9.5V13.8H10.7V10.2ZM14.3 10.2H15.5V13.8H14.3V10.2ZM20.3 10.2H19.1V13.8H20.3V10.2Z" fill="white"/>
<path d="M24.5 7.20001H25.5V6.20001H24.5V7.20001ZM0.5 7.20001V6.20001H-0.5V7.20001H0.5ZM24.5 16.8V17.8H25.5V16.8H24.5ZM0.5 16.8H-0.5V17.8H0.5V16.8ZM5.9 10.2H6.9V9.20001H5.9V10.2ZM4.7 10.2V9.20001H3.7V10.2H4.7ZM5.9 13.8V14.8H6.9V13.8H5.9ZM4.7 13.8H3.7V14.8H4.7V13.8ZM9.5 10.2V9.20001H8.5V10.2H9.5ZM10.7 10.2H11.7V9.20001H10.7V10.2ZM9.5 13.8H8.5V14.8H9.5V13.8ZM10.7 13.8V14.8H11.7V13.8H10.7ZM15.5 10.2H16.5V9.20001H15.5V10.2ZM14.3 10.2V9.20001H13.3V10.2H14.3ZM15.5 13.8V14.8H16.5V13.8H15.5ZM14.3 13.8H13.3V14.8H14.3V13.8ZM19.1 10.2V9.20001H18.1V10.2H19.1ZM20.3 10.2H21.3V9.20001H20.3V10.2ZM19.1 13.8H18.1V14.8H19.1V13.8ZM20.3 13.8V14.8H21.3V13.8H20.3ZM24.5 6.20001H0.5V8.20001H24.5V6.20001ZM25.5 16.8V7.20001H23.5V16.8H25.5ZM0.5 17.8H24.5V15.8H0.5V17.8ZM-0.5 7.20001V16.8H1.5V7.20001H-0.5ZM5.9 9.20001H4.7V11.2H5.9V9.20001ZM6.9 13.8V10.2H4.9V13.8H6.9ZM4.7 14.8H5.9V12.8H4.7V14.8ZM3.7 10.2V13.8H5.7V10.2H3.7ZM9.5 11.2H10.7V9.20001H9.5V11.2ZM10.5 13.8V10.2H8.5V13.8H10.5ZM10.7 12.8H9.5V14.8H10.7V12.8ZM9.7 10.2V13.8H11.7V10.2H9.7ZM15.5 9.20001H14.3V11.2H15.5V9.20001ZM16.5 13.8V10.2H14.5V13.8H16.5ZM14.3 14.8H15.5V12.8H14.3V14.8ZM13.3 10.2V13.8H15.3V10.2H13.3ZM19.1 11.2H20.3V9.20001H19.1V11.2ZM20.1 13.8V10.2H18.1V13.8H20.1ZM20.3 12.8H19.1V14.8H20.3V12.8ZM19.3 10.2V13.8H21.3V10.2H19.3Z" fill="#A29994" mask="url(#path-1-inside-1_4784_25491)"/>
</svg>
