<svg width="25" height="24" viewBox="0 0 25 24" fill="none" xmlns="http://www.w3.org/2000/svg">
<mask id="path-1-inside-1_4784_25482" fill="white">
<path fill-rule="evenodd" clip-rule="evenodd" d="M0.5 7.20001H24.5V16.8H0.5V7.20001ZM4.7 11.4H5.9V12.6H4.7V11.4ZM10.7 11.4H9.5V12.6H10.7V11.4ZM14.3 11.4H15.5V12.6H14.3V11.4ZM20.3 11.4H19.1V12.6H20.3V11.4Z"/>
</mask>
<path fill-rule="evenodd" clip-rule="evenodd" d="M0.5 7.20001H24.5V16.8H0.5V7.20001ZM4.7 11.4H5.9V12.6H4.7V11.4ZM10.7 11.4H9.5V12.6H10.7V11.4ZM14.3 11.4H15.5V12.6H14.3V11.4ZM20.3 11.4H19.1V12.6H20.3V11.4Z" fill="white"/>
<path d="M24.5 7.20001H25.5V6.20001H24.5V7.20001ZM0.5 7.20001V6.20001H-0.5V7.20001H0.5ZM24.5 16.8V17.8H25.5V16.8H24.5ZM0.5 16.8H-0.5V17.8H0.5V16.8ZM5.9 11.4H6.9V10.4H5.9V11.4ZM4.7 11.4V10.4H3.7V11.4H4.7ZM5.9 12.6V13.6H6.9V12.6H5.9ZM4.7 12.6H3.7V13.6H4.7V12.6ZM9.5 11.4V10.4H8.5V11.4H9.5ZM10.7 11.4H11.7V10.4H10.7V11.4ZM9.5 12.6H8.5V13.6H9.5V12.6ZM10.7 12.6V13.6H11.7V12.6H10.7ZM15.5 11.4H16.5V10.4H15.5V11.4ZM14.3 11.4V10.4H13.3V11.4H14.3ZM15.5 12.6V13.6H16.5V12.6H15.5ZM14.3 12.6H13.3V13.6H14.3V12.6ZM19.1 11.4V10.4H18.1V11.4H19.1ZM20.3 11.4H21.3V10.4H20.3V11.4ZM19.1 12.6H18.1V13.6H19.1V12.6ZM20.3 12.6V13.6H21.3V12.6H20.3ZM24.5 6.20001H0.5V8.20001H24.5V6.20001ZM25.5 16.8V7.20001H23.5V16.8H25.5ZM0.5 17.8H24.5V15.8H0.5V17.8ZM-0.5 7.20001V16.8H1.5V7.20001H-0.5ZM5.9 10.4H4.7V12.4H5.9V10.4ZM6.9 12.6V11.4H4.9V12.6H6.9ZM4.7 13.6H5.9V11.6H4.7V13.6ZM3.7 11.4V12.6H5.7V11.4H3.7ZM9.5 12.4H10.7V10.4H9.5V12.4ZM10.5 12.6V11.4H8.5V12.6H10.5ZM10.7 11.6H9.5V13.6H10.7V11.6ZM9.7 11.4V12.6H11.7V11.4H9.7ZM15.5 10.4H14.3V12.4H15.5V10.4ZM16.5 12.6V11.4H14.5V12.6H16.5ZM14.3 13.6H15.5V11.6H14.3V13.6ZM13.3 11.4V12.6H15.3V11.4H13.3ZM19.1 12.4H20.3V10.4H19.1V12.4ZM20.1 12.6V11.4H18.1V12.6H20.1ZM20.3 11.6H19.1V13.6H20.3V11.6ZM19.3 11.4V12.6H21.3V11.4H19.3Z" fill="#A29994" mask="url(#path-1-inside-1_4784_25482)"/>
</svg>
