<svg width="48" height="48" viewBox="0 0 48 48" fill="none" xmlns="http://www.w3.org/2000/svg">
<path d="M26.5719 6.85704L36.8576 17.1428M26.5719 6.85704V17.1428H36.8576M26.5719 6.85704C22.694 6.85704 10.2861 6.85693 10.2861 6.85693V40.1384H36.8576C36.8576 40.1384 36.8576 22.2264 36.8576 17.1428" stroke="#101820" stroke-linecap="round" stroke-linejoin="round"/>
<path d="M14.4746 36.5561V29.1431H17.1941C18.5486 29.1431 19.5146 30.0566 19.5146 31.4636C19.5146 32.8706 18.5486 33.8156 17.1941 33.8156H15.5141V36.5561H14.4746ZM15.5141 32.9126H17.0261C17.9081 32.9126 18.4646 32.3561 18.4646 31.4636C18.4646 30.5816 17.9081 30.0461 17.0366 30.0461H15.5141V32.9126Z" fill="black"/>
<path d="M20.8423 36.5561V29.1431H23.3098C25.5673 29.1431 27.0583 30.4976 27.0583 32.8391C27.0583 35.1911 25.5673 36.5561 23.3098 36.5561H20.8423ZM21.8818 35.6531H23.2363C24.8953 35.6531 25.9873 34.6766 25.9873 32.8391C25.9873 31.0226 24.8848 30.0461 23.2363 30.0461H21.8818V35.6531Z" fill="black"/>
<path d="M28.584 36.5561V29.1431H32.6685V30.0461H29.6235V32.4926H32.217V33.3956H29.6235V36.5561H28.584Z" fill="black"/>
</svg>
