<svg width="26" height="26" viewBox="0 0 26 26" fill="none" xmlns="http://www.w3.org/2000/svg">
<g clip-path="url(#clip0_4786_25653)">
<rect x="1" y="1" width="24" height="24" fill="white"/>
<path d="M-0.799805 4.34884H4.33508M13.0002 4.34884H8.8281M-0.799805 7.69768H4.33508M13.0002 7.69768H6.10019M-0.799805 11.3256H0.965311M13.0002 11.3256H10.9141M-0.799805 14.9535H0.965311M13.0002 14.9535H10.9141M-0.799805 18.3023H3.69322M13.0002 18.3023H8.8281M-0.799805 21.9302H0.965311M13.0002 21.9302H10.9141M8.8281 4.34884V1M8.8281 4.34884H4.33508M4.33508 4.34884V7.69768M4.33508 7.69768H6.10019M6.10019 7.69768V11.3256M6.10019 11.3256H10.9141M6.10019 11.3256H0.965311M10.9141 11.3256V14.9535M10.9141 14.9535H3.69322M8.8281 18.3023V21.9302M8.8281 18.3023H3.69322M8.8281 21.9302H0.965311M8.8281 21.9302H10.9141M3.69322 14.9535V18.3023M3.69322 14.9535H0.965311M0.965311 11.3256V14.9535M0.965311 21.9302V25M10.9141 21.9302V25" stroke="#A29994"/>
<path d="M13 4.34884H18.1349M26.8 4.34884H22.6279M13 7.69768H18.1349M26.8 7.69768H19.9M13 11.3256H14.7651M26.8 11.3256H24.714M13 14.9535H14.7651M26.8 14.9535H24.714M13 18.3023H17.493M26.8 18.3023H22.6279M13 21.9302H14.7651M26.8 21.9302H24.714M22.6279 4.34884V1M22.6279 4.34884H18.1349M18.1349 4.34884V7.69768M18.1349 7.69768H19.9M19.9 7.69768V11.3256M19.9 11.3256H24.714M19.9 11.3256H14.7651M24.714 11.3256V14.9535M24.714 14.9535H17.493M22.6279 18.3023V21.9302M22.6279 18.3023H17.493M22.6279 21.9302H14.7651M22.6279 21.9302H24.714M17.493 14.9535V18.3023M17.493 14.9535H14.7651M14.7651 11.3256V14.9535M14.7651 21.9302V25M24.714 21.9302V25" stroke="#A29994"/>
</g>
<rect x="1" y="1" width="24" height="24" stroke="#A29994"/>
<defs>
<clipPath id="clip0_4786_25653">
<rect x="1" y="1" width="24" height="24" fill="white"/>
</clipPath>
</defs>
</svg>
