<svg width="24" height="24" viewBox="0 0 24 24" fill="none" xmlns="http://www.w3.org/2000/svg">
<mask id="path-1-inside-1_4786_25704" fill="white">
<path fill-rule="evenodd" clip-rule="evenodd" d="M2.4 7.79999H0V13.8V16.2H2.4H24V13.8H2.4V7.79999Z"/>
</mask>
<path fill-rule="evenodd" clip-rule="evenodd" d="M2.4 7.79999H0V13.8V16.2H2.4H24V13.8H2.4V7.79999Z" fill="white"/>
<path d="M0 7.79999V6.79999H-1V7.79999H0ZM2.4 7.79999H3.4V6.79999H2.4V7.79999ZM0 16.2H-1V17.2H0V16.2ZM24 16.2V17.2H25V16.2H24ZM24 13.8H25V12.8H24V13.8ZM2.4 13.8H1.4V14.8H2.4V13.8ZM0 8.79999H2.4V6.79999H0V8.79999ZM1 13.8V7.79999H-1V13.8H1ZM1 16.2V13.8H-1V16.2H1ZM2.4 15.2H0V17.2H2.4V15.2ZM24 15.2H2.4V17.2H24V15.2ZM23 13.8V16.2H25V13.8H23ZM2.4 14.8H24V12.8H2.4V14.8ZM1.4 7.79999V13.8H3.4V7.79999H1.4Z" fill="#A29994" mask="url(#path-1-inside-1_4786_25704)"/>
</svg>
