<svg width="25" height="24" viewBox="0 0 25 24" fill="none" xmlns="http://www.w3.org/2000/svg">
<mask id="path-1-inside-1_4786_25698" fill="white">
<path d="M0.5 10H24.5V14H0.5V10Z"/>
</mask>
<path d="M0.5 10H24.5V14H0.5V10Z" fill="white"/>
<path d="M0.5 10V9H-0.5V10H0.5ZM24.5 10H25.5V9H24.5V10ZM24.5 14V15H25.5V14H24.5ZM0.5 14H-0.5V15H0.5V14ZM0.5 11H24.5V9H0.5V11ZM23.5 10V14H25.5V10H23.5ZM24.5 13H0.5V15H24.5V13ZM1.5 14V10H-0.5V14H1.5Z" fill="#A29994" mask="url(#path-1-inside-1_4786_25698)"/>
</svg>
