<svg width="87" height="13" viewBox="0 0 87 13" fill="none" xmlns="http://www.w3.org/2000/svg">
<path d="M17.3789 0.0166016H12.2383V1.52609H17.3789V0.0166016Z" fill="#D22630"/>
<path d="M3.46435 12.6162V12.3143C3.04528 12.2507 2.84971 12.0124 2.84971 11.6787V0.937473C2.86368 0.603795 3.05925 0.365454 3.46435 0.301897V0H0V0.301897C0.419075 0.365454 0.614645 0.603795 0.614645 0.937473V11.6787C0.600675 12.0124 0.405105 12.2507 0 12.3143V12.6162H3.46435Z" fill="white"/>
<path d="M3.42245 6.46698V6.95955L7.04046 12.6321H9.89017V12.203L5.90896 6.35575H4.98699L8.54913 1.08048C8.91233 0.587909 9.17774 0.429015 9.61079 0.429015V0.0158904H6.92871V0.429015H6.99856C7.29191 0.429015 7.47351 0.540238 7.16619 0.969253L3.42245 6.46698Z" fill="white"/>
<path d="M27.4075 2.68531C27.8266 2.74887 28.0222 2.97132 28.0222 3.30499V8.85039L23.4263 2.38341H20.5766V2.73298C20.8699 2.78065 20.9677 2.92365 21.1912 3.25733V11.7105C21.1773 12.0283 20.9817 12.2666 20.5766 12.3302V12.6321H22.8815V12.3302C22.4624 12.2666 22.2669 12.0442 22.2669 11.7105V4.84627L27.7148 12.6797H29.0698V12.6162H29.0978V3.2891C29.1118 2.95543 29.3073 2.73298 29.7124 2.66942V2.36752H27.4075V2.68531Z" fill="white"/>
<path fill-rule="evenodd" clip-rule="evenodd" d="M19.7664 7.56335C19.7664 10.6459 17.657 12.8545 14.7095 12.8545C11.9297 12.8545 9.84827 10.9796 9.86224 7.72224C9.86224 4.46492 12.0135 2.41519 14.8772 2.41519C17.7408 2.41519 19.7664 4.48081 19.7664 7.56335ZM14.7934 3.27321C16.8468 3.27321 17.3497 5.22761 17.3497 7.67457C17.3497 9.74019 16.9446 11.9329 14.7654 11.9329C12.8237 11.9329 12.2789 10.2328 12.2789 7.57924C12.2789 5.29117 12.7399 3.27321 14.7934 3.27321Z" fill="white"/>
<path d="M34.5737 12.3143V12.6162H31.1233V12.3143C31.5284 12.2507 31.724 12.0283 31.738 11.6946V3.27321C31.738 2.93954 31.5424 2.71709 31.1233 2.65353V2.35163H34.5737V2.65353C34.1686 2.71709 33.973 2.95543 33.9591 3.27321V11.6946C33.9591 12.0283 34.1546 12.2507 34.5737 12.3143Z" fill="white"/>
<path d="M38.2895 7.3409C38.2895 5.00516 38.9041 3.05076 41.0135 3.05076C42.3545 3.05076 43.2905 3.82934 43.7095 5.59306H44.0867V2.79653C43.2625 2.36752 42.0472 2.14507 41.0973 2.14507C38.1777 2.14507 35.9147 4.27424 35.9147 7.64279C35.9147 11.0113 37.9542 12.8068 40.8039 12.8386C42.2986 12.8386 43.8353 12.4573 44.3242 11.9806V7.94469H42.0891V11.5834C41.8516 11.7899 41.4186 11.9011 40.9576 11.9011C38.946 11.917 38.2895 10.1851 38.2895 7.3409Z" fill="white"/>
<path d="M49.3671 12.8386C48.3752 12.8386 46.8386 12.5367 45.9027 11.9806V9.26351H46.2799C47.0482 11.1861 48.0959 11.8217 49.3671 11.8217C50.6243 11.8217 51.3088 11.2497 51.3088 10.1692C51.3088 9.08873 50.4986 8.78683 49.3671 8.3896L48.4311 8.04003C47.0761 7.54746 45.9027 6.94366 45.9027 5.13227C45.9027 3.30499 47.2018 2.19274 49.6464 2.20863C50.4566 2.22451 51.5323 2.47874 52.2307 2.89187V5.2435H51.8955C51.3786 3.67045 50.5125 3.16199 49.3671 3.09843C48.2076 3.03487 47.6349 3.51155 47.6349 4.24247C47.6349 5.10049 48.3473 5.46595 49.1435 5.76785L50.2471 6.14919C52.0631 6.78477 53.1946 7.9288 53.1946 9.56541C53.1946 11.631 51.7698 12.8386 49.3671 12.8386Z" fill="white"/>
<path d="M53.935 2.38341V5.17994H54.2004C54.5915 3.76579 55.1084 3.13021 56.6171 3.13021H56.6729V11.7105C56.659 12.0441 56.4634 12.2666 56.0583 12.3302V12.6321H59.5226V12.3302C59.1036 12.2666 58.908 12.0441 58.908 11.7105V3.13021H58.9639C60.4725 3.13021 60.9754 3.78167 61.3805 5.17994H61.646V2.38341H53.935Z" fill="white"/>
<path d="M67.2476 11.8694C68.882 11.8694 69.2172 11.2179 69.6922 9.45418H70.0694V12.6479H63.0149V12.3461C63.42 12.2825 63.6156 12.06 63.6296 11.7264V3.30499C63.6296 2.97132 63.434 2.74886 63.0149 2.6853V2.38341H69.9157V5.3865H69.5385C69.1753 3.86112 68.7563 3.1461 67.2476 3.1461H65.8507V6.89599H68.1975V7.70635H65.8507V11.8694H67.2476Z" fill="white"/>
<path d="M75.0843 12.6162V12.3143C74.6652 12.2507 74.4697 12.0283 74.4697 11.6946V3.27321C74.4836 2.95543 74.6792 2.71709 75.0843 2.65353V2.35163H71.6339V2.65353C72.053 2.71709 72.2486 2.93954 72.2486 3.27321V11.6946C72.2346 12.0283 72.039 12.2507 71.6339 12.3143V12.6162H75.0843Z" fill="white"/>
<path d="M84.5414 0.317788V0.0158904H87V0.317788C86.5949 0.381344 86.3993 0.619685 86.3853 0.953363V12.6797H85.0303L78.1855 2.74887V11.6787C78.1855 12.0124 78.395 12.2507 78.8001 12.3143V12.6162H76.3275V12.3143C76.7327 12.2507 76.9282 12.0124 76.9422 11.6787V0.905697L76.9214 0.874648C76.7123 0.562107 76.6116 0.411622 76.3275 0.365459V0.0158904H79.1773L85.1561 8.51671V0.953363C85.1561 0.619685 84.9605 0.381344 84.5414 0.317788Z" fill="white"/>
</svg>
