<svg width="113" height="18" viewBox="0 0 113 18" fill="none" xmlns="http://www.w3.org/2000/svg">
<path fill-rule="evenodd" clip-rule="evenodd" d="M5.63544 12.7668L5.99949 11.8998L8.62062 16.1203L16.6151 3.27897L17.2267 3.80243L14.489 14.9752L14.1687 13.9446L15.5957 6.81237L8.62062 17.1999L5.63544 12.7668ZM2.73763 14.9752L0 3.78608L0.611598 3.26261L4.47049 9.46242L4.13557 10.5421L1.63093 6.81237L3.05799 13.9446L2.73763 14.9752ZM12.363 12.8813L13.6299 16.1203H14.2269L12.8872 12.1288L12.363 12.8813ZM8.25657 0.399902H8.60606H8.95554L11.9698 9.41334L11.3874 10.3948L8.62062 3.26261L3.61134 16.1203H3.0143L8.25657 0.399902Z" fill="#D29F13"/>
<path d="M40.4252 3.16455H35.0664V4.71859H40.4252V3.16455Z" fill="#D22630"/>
<path d="M25.9199 16.1369V15.8261C25.4831 15.7607 25.2792 15.5153 25.2792 15.1718V4.11358C25.2938 3.77005 25.4976 3.52468 25.9199 3.45924V3.14844H22.3086V3.45924C22.7454 3.52468 22.9493 3.77005 22.9493 4.11358V15.1718C22.9348 15.5153 22.7309 15.7607 22.3086 15.8261V16.1369H25.9199Z" fill="#101820"/>
<path d="M25.8762 9.80628V10.3134L29.6478 16.1533H32.6184V15.7116L28.4683 9.69177H27.5072L31.2204 4.26081C31.5991 3.7537 31.8757 3.59011 32.3272 3.59011V3.1648H29.5313V3.59011H29.6041C29.9099 3.59011 30.0992 3.70462 29.7788 4.1463L25.8762 9.80628Z" fill="#101820"/>
<path d="M50.879 5.913C51.3158 5.97843 51.5197 6.20745 51.5197 6.55097V12.26L46.7288 5.60219H43.7582V5.96207C44.064 6.01115 44.1659 6.15837 44.3989 6.5019V15.2045C44.3844 15.5317 44.1805 15.7771 43.7582 15.8425V16.1533H46.1609V15.8425C45.7241 15.7771 45.5202 15.5481 45.5202 15.2045V8.13773L51.1993 16.2024H52.6118V16.137H52.6409V6.53461C52.6555 6.19109 52.8594 5.96207 53.2817 5.89664V5.58583H50.879V5.913Z" fill="#101820"/>
<path fill-rule="evenodd" clip-rule="evenodd" d="M42.9136 10.935C42.9136 14.1085 40.7148 16.3823 37.6422 16.3823C34.7444 16.3823 32.5747 14.452 32.5893 11.0986C32.5893 7.74513 34.8318 5.63491 37.817 5.63491C40.8022 5.63491 42.9136 7.76149 42.9136 10.935ZM37.7296 6.51825C39.8702 6.51825 40.3944 8.53033 40.3944 11.0495C40.3944 13.1761 39.9721 15.4335 37.7005 15.4335C35.6764 15.4335 35.1085 13.6832 35.1085 10.9514C35.1085 8.59576 35.589 6.51825 37.7296 6.51825Z" fill="#101820"/>
<path d="M58.3492 15.8261V16.137H54.7524V15.8261C55.1747 15.7607 55.3786 15.5317 55.3931 15.1882V6.51825C55.3931 6.17473 55.1893 5.94571 54.7524 5.88028V5.56947H58.3492V5.88028C57.9269 5.94571 57.723 6.19109 57.7085 6.51825V15.1882C57.7085 15.5317 57.9123 15.7607 58.3492 15.8261Z" fill="#101820"/>
<path d="M62.2226 10.706C62.2226 8.30131 62.8634 6.28924 65.0622 6.28924C66.4601 6.28924 67.4358 7.0908 67.8726 8.90657H68.2658V6.0275C67.4067 5.58583 66.1398 5.35681 65.1496 5.35681C62.1061 5.35681 59.7471 7.54883 59.7471 11.0168C59.7471 14.4848 61.8732 16.3332 64.8438 16.366C66.4019 16.366 68.0037 15.9734 68.5134 15.4826V11.3276H66.1835V15.0737C65.9359 15.2863 65.4845 15.4008 65.004 15.4008C62.907 15.4172 62.2226 13.6341 62.2226 10.706Z" fill="#101820"/>
<path d="M73.7702 16.366C72.7363 16.366 71.1345 16.0552 70.1588 15.4826V12.6853H70.552C71.3529 14.6647 72.4451 15.319 73.7702 15.319C75.0808 15.319 75.7943 14.7301 75.7943 13.6178C75.7943 12.5054 74.9497 12.1946 73.7702 11.7856L72.7945 11.4258C71.382 10.9186 70.1588 10.297 70.1588 8.43218C70.1588 6.55097 71.5131 5.40589 74.0614 5.42225C74.906 5.4386 76.0273 5.70034 76.7554 6.12565V8.54669H76.4059C75.8671 6.92721 74.9643 6.40375 73.7702 6.33831C72.5616 6.27288 71.9645 6.76363 71.9645 7.51611C71.9645 8.39946 72.7072 8.77571 73.5372 9.08651L74.6876 9.47911C76.5806 10.1334 77.7601 11.3112 77.7601 12.9962C77.7601 15.1227 76.2748 16.366 73.7702 16.366Z" fill="#101820"/>
<path d="M78.5319 5.60219V8.48125H78.8086C79.2163 7.02536 79.7551 6.37103 81.3278 6.37103H81.386V15.2045C81.3715 15.548 81.1676 15.7771 80.7453 15.8425V16.1533H84.3567V15.8425C83.9198 15.7771 83.7159 15.548 83.7159 15.2045V6.37103H83.7742C85.3469 6.37103 85.8711 7.04172 86.2934 8.48125H86.5701V5.60219H78.5319Z" fill="#101820"/>
<path d="M92.4094 15.3681C94.1131 15.3681 94.4626 14.6974 94.9577 12.8816H95.3509V16.1697H87.9971V15.8589C88.4194 15.7934 88.6233 15.5644 88.6378 15.2209V6.55097C88.6378 6.20745 88.434 5.97843 87.9971 5.91299V5.60219H95.1907V8.69391H94.7975C94.4189 7.12351 93.982 6.38738 92.4094 6.38738H90.9532V10.248H93.3996V11.0822H90.9532V15.3681H92.4094Z" fill="#101820"/>
<path d="M100.579 16.137V15.8261C100.142 15.7607 99.9378 15.5317 99.9378 15.1882V6.51825C99.9524 6.19109 100.156 5.94571 100.579 5.88028V5.56947H96.9818V5.88028C97.4186 5.94571 97.6225 6.17473 97.6225 6.51825V15.1882C97.608 15.5317 97.4041 15.7607 96.9818 15.8261V16.137H100.579Z" fill="#101820"/>
<path d="M110.437 3.4756V3.1648H113V3.4756C112.578 3.54104 112.374 3.78641 112.359 4.12994V16.2024H110.947L103.811 5.97843V15.1718C103.811 15.5153 104.03 15.7607 104.452 15.8261V16.1369H101.875V15.8261C102.297 15.7607 102.501 15.5153 102.515 15.1718V4.08086L102.494 4.0489C102.276 3.72713 102.171 3.57221 101.875 3.52468V3.1648H104.845L111.078 11.9165V4.12994C111.078 3.78641 110.874 3.54104 110.437 3.4756Z" fill="#101820"/>
</svg>
