<svg width="120" height="27" viewBox="0 0 120 27" fill="none" xmlns="http://www.w3.org/2000/svg">
<path fill-rule="evenodd" clip-rule="evenodd" d="M6.1866 10.8057L6.52165 10.0833L8.93402 13.6003L16.2918 2.89922L16.8546 3.33544L14.3351 12.6461L14.0402 11.7872L15.3536 5.84372L8.93402 14.5L6.1866 10.8057ZM3.51959 12.6461L1 3.32181L1.56289 2.88559L5.11443 8.05209L4.80619 8.9518L2.50103 5.84372L3.81443 11.7872L3.51959 12.6461ZM12.3784 10.9012L13.5443 13.6003H14.0938L12.8608 10.2741L12.3784 10.9012ZM8.59897 0.5H8.92062H9.24227L12.0165 8.0112L11.4804 8.82911L8.93402 2.88559L4.32371 13.6003H3.77423L8.59897 0.5Z" fill="#D29F13"/>
<path d="M38.2054 2.80469H33.2734V4.09972H38.2054V2.80469Z" fill="#D22630"/>
<path d="M24.855 13.6148V13.3558C24.4529 13.3012 24.2653 13.0968 24.2653 12.8105V3.5953C24.2787 3.30903 24.4663 3.10455 24.855 3.05002V2.79102H21.5312V3.05002C21.9333 3.10455 22.1209 3.30903 22.1209 3.5953V12.8105C22.1075 13.0968 21.9199 13.3012 21.5312 13.3558V13.6148H24.855Z" fill="#101820"/>
<path d="M24.8148 8.33922V8.7618L28.2859 13.6284H31.0199V13.2603L27.2003 8.24379H26.3158L29.7333 3.71799C30.0818 3.2954 30.3364 3.15908 30.7519 3.15908V2.80465H28.1787V3.15908H28.2457C28.5271 3.15908 28.7014 3.2545 28.4065 3.62256L24.8148 8.33922Z" fill="#101820"/>
<path d="M47.8261 5.09482C48.2282 5.14934 48.4158 5.34019 48.4158 5.62646V10.384L44.0065 4.83581H41.2725V5.13571C41.5539 5.17661 41.6477 5.2993 41.8622 5.58557V12.8378C41.8488 13.1104 41.6611 13.3149 41.2725 13.3694V13.6284H43.4838V13.3694C43.0818 13.3149 42.8941 13.124 42.8941 12.8378V6.94876L48.1209 13.6693H49.4209V13.6148H49.4477V5.61283C49.4611 5.32656 49.6488 5.13571 50.0374 5.08118V4.82218H47.8261V5.09482Z" fill="#101820"/>
<path fill-rule="evenodd" clip-rule="evenodd" d="M40.4952 9.27982C40.4952 11.9244 38.4715 13.8193 35.6436 13.8193C32.9766 13.8193 30.9797 12.2107 30.9931 9.41614C30.9931 6.62159 33.057 4.86307 35.8044 4.86307C38.5519 4.86307 40.4952 6.63522 40.4952 9.27982ZM35.724 5.5992C37.6941 5.5992 38.1766 7.27593 38.1766 9.37524C38.1766 11.1474 37.788 13.0286 35.6972 13.0286C33.8343 13.0286 33.3117 11.57 33.3117 9.29345C33.3117 7.33045 33.7539 5.5992 35.724 5.5992Z" fill="#101820"/>
<path d="M54.7014 13.3558V13.6148H51.391V13.3558C51.7797 13.3012 51.9673 13.1104 51.9807 12.8241V5.5992C51.9807 5.31293 51.7931 5.12208 51.391 5.06755V4.80855H54.7014V5.06755C54.3127 5.12208 54.1251 5.32656 54.1117 5.5992V12.8241C54.1117 13.1104 54.2993 13.3012 54.7014 13.3558Z" fill="#101820"/>
<path d="M58.2663 9.08897C58.2663 7.08508 58.856 5.40835 60.8797 5.40835C62.1663 5.40835 63.0642 6.07631 63.4663 7.58946H63.8282V5.19024C63.0374 4.82217 61.8715 4.63133 60.9601 4.63133C58.1591 4.63133 55.9879 6.45801 55.9879 9.34798C55.9879 12.2379 57.9447 13.7784 60.6787 13.8056C62.1127 13.8056 63.5869 13.4785 64.056 13.0695V9.60698H61.9117V12.7287C61.6838 12.9059 61.2684 13.0013 60.8261 13.0013C58.8962 13.015 58.2663 11.5291 58.2663 9.08897Z" fill="#101820"/>
<path d="M68.8941 13.8056C67.9426 13.8056 66.4684 13.5466 65.5704 13.0695V10.7384H65.9323C66.6694 12.3879 67.6746 12.9332 68.8941 12.9332C70.1003 12.9332 70.757 12.4424 70.757 11.5155C70.757 10.5885 69.9797 10.3295 68.8941 9.98868L67.9962 9.68878C66.6962 9.26619 65.5704 8.74817 65.5704 7.19413C65.5704 5.62646 66.8168 4.67223 69.1622 4.68586C69.9395 4.69949 70.9715 4.9176 71.6416 5.27203V7.28956H71.3199C70.824 5.93999 69.9931 5.50377 68.8941 5.44924C67.7818 5.39472 67.2323 5.80367 67.2323 6.43074C67.2323 7.16687 67.9158 7.48041 68.6797 7.73941L69.7385 8.06658C71.4807 8.61186 72.5663 9.59336 72.5663 10.9974C72.5663 12.7696 71.1993 13.8056 68.8941 13.8056Z" fill="#101820"/>
<path d="M73.2766 4.83581V7.23503H73.5313C73.9065 6.02179 74.4024 5.47651 75.8498 5.47651H75.9034V12.8378C75.89 13.124 75.7024 13.3149 75.3137 13.3694V13.6284H78.6374V13.3694C78.2354 13.3149 78.0477 13.124 78.0477 12.8378V5.47651H78.1014C79.5488 5.47651 80.0312 6.03542 80.4199 7.23503H80.6745V4.83581H73.2766Z" fill="#101820"/>
<path d="M86.0488 12.9741C87.6168 12.9741 87.9385 12.4152 88.3941 10.902H88.756V13.642H81.988V13.383C82.3766 13.3285 82.5642 13.1377 82.5776 12.8514V5.62646C82.5776 5.34019 82.39 5.14934 81.988 5.09481V4.83581H88.6086V7.41224H88.2467C87.8983 6.10357 87.4962 5.49014 86.0488 5.49014H84.7086V8.70728H86.9601V9.40251H84.7086V12.9741H86.0488Z" fill="#101820"/>
<path d="M93.5673 13.6148V13.3558C93.1653 13.3012 92.9776 13.1104 92.9776 12.8241V5.5992C92.991 5.32656 93.1787 5.12208 93.5673 5.06755V4.80855H90.257V5.06755C90.6591 5.12208 90.8467 5.31293 90.8467 5.5992V12.8241C90.8333 13.1104 90.6457 13.3012 90.257 13.3558V13.6148H93.5673Z" fill="#101820"/>
<path d="M102.641 3.06365V2.80465H104.999V3.06365C104.611 3.11818 104.423 3.32266 104.41 3.60893V13.6693H103.11L96.5426 5.14934V12.8105C96.5426 13.0968 96.7436 13.3012 97.1323 13.3558V13.6148H94.7601V13.3558C95.1488 13.3012 95.3364 13.0968 95.3498 12.8105V3.56804L95.3299 3.5414C95.1293 3.27326 95.0327 3.14416 94.7601 3.10455V2.80465H97.4941L103.23 10.0977V3.60893C103.23 3.32266 103.043 3.11818 102.641 3.06365Z" fill="#101820"/>
</svg>
