<svg width="151" height="22" viewBox="0 0 151 22" fill="none" xmlns="http://www.w3.org/2000/svg">
<path d="M15.2364 13.0841C13.9486 10.1725 13.0225 7.19771 12.2992 4.15055C12.0522 3.09264 11.7347 2.05281 11.5671 0.976807C11.5406 0.976807 11.5054 0.976807 11.4789 0.976807C11.4524 1.12148 11.4172 1.26615 11.3907 1.41082C10.7909 4.12343 10.2264 6.85411 9.37078 9.49438C8.98268 10.6879 8.5593 11.8543 7.92422 12.9394C7.74781 13.2378 7.62432 13.3101 7.37734 13.0027C6.84811 12.3607 6.30124 11.7368 5.75436 11.1129C4.48421 9.68426 3.20523 8.25563 1.67045 7.11633C1.30881 6.85411 0.94717 6.58285 0.426758 6.46531C2.17322 10.6337 3.76092 14.7749 4.24605 19.3683C5.60441 17.8492 6.66288 16.2668 7.74781 14.6483C9.26494 16.8184 10.4645 19.1241 11.523 21.5926C12.7314 19.2236 13.5958 16.7642 15.0865 14.6302C16.1538 16.3754 17.2387 17.9939 18.7735 19.3863C19.0116 14.7297 20.4582 10.5433 22.3811 6.49243C19.4791 8.12 17.4857 10.7331 15.2364 13.0841ZM6.9716 14.4042C6.33652 15.5164 5.54267 16.511 4.74 17.6412C4.23723 14.4584 3.28461 11.5108 2.22615 8.48168C2.74656 8.84336 3.07292 9.24121 3.43456 9.60289C4.66062 10.8326 5.79847 12.1346 6.88339 13.4819C7.12155 13.7893 7.17447 14.0516 6.9716 14.4042ZM14.4867 14.151C13.4106 15.9413 12.3345 17.7407 11.523 19.7119C10.5263 17.7678 9.51191 15.869 8.38288 14.0425C8.3035 13.9069 8.3476 13.8255 8.40053 13.726C9.82945 10.8688 10.8085 7.84874 11.5406 4.66595C11.9111 5.95896 12.2816 7.17963 12.6256 8.4003C13.1283 10.1816 13.7193 11.9176 14.4955 13.5904C14.5837 13.7893 14.619 13.934 14.4867 14.151ZM18.1649 17.5418C17.5298 16.8455 17.0182 16.1583 16.5154 15.4712C16.242 15.0914 15.9862 14.6935 15.7833 14.2595C15.6687 14.0154 15.6686 13.8436 15.8539 13.6266C17.2034 11.99 18.6147 10.4257 20.1583 8.98803C20.2906 8.86144 20.4494 8.76198 20.6434 8.67156C19.4968 11.5017 18.6765 14.4313 18.1649 17.5418Z" fill="#DCAD53"/>
<path d="M139.985 4.76541C140.223 4.81966 140.364 4.68403 140.505 4.51223C141.193 3.72558 141.837 3.57186 142.79 3.95163C143.001 4.03725 143.21 4.12287 143.418 4.20849L143.421 4.20946C143.63 4.29531 143.84 4.38117 144.051 4.46702C144.245 4.5484 144.439 4.60265 144.651 4.56649C144.995 4.51223 145.18 4.23193 145.074 3.89738C145.068 3.87688 145.057 3.85753 145.047 3.83875C145.016 3.78297 144.989 3.73221 145.074 3.67133C145.184 3.5932 145.254 3.65675 145.329 3.72596L145.339 3.73462C145.718 4.0963 146.089 4.44894 146.468 4.80158C146.472 4.80592 146.477 4.81025 146.481 4.8146L146.488 4.82185C146.537 4.8696 146.587 4.91908 146.556 4.98242C146.521 5.0638 146.442 5.13613 146.345 5.09996C146.028 4.97512 145.876 5.16437 145.709 5.37154C145.695 5.38945 145.68 5.40749 145.665 5.42548C145.083 6.1398 144.536 6.29351 143.672 5.99512C143.367 5.88714 143.066 5.76844 142.765 5.65026C142.588 5.58042 142.411 5.51073 142.234 5.44356C142.067 5.38027 141.899 5.32601 141.723 5.31697C141.343 5.30793 141.096 5.60632 141.176 5.968C141.179 5.98594 141.184 6.00353 141.189 6.02062C141.208 6.08947 141.225 6.15065 141.14 6.19405C141.051 6.23997 140.999 6.18224 140.948 6.12505C140.939 6.1147 140.929 6.10428 140.92 6.09459C140.549 5.75099 140.188 5.40739 139.817 5.05475C139.803 5.04165 139.785 5.02893 139.768 5.01587C139.7 4.96589 139.625 4.91099 139.667 4.81062C139.718 4.71323 139.805 4.73239 139.889 4.75094C139.922 4.75822 139.955 4.76541 139.985 4.76541Z" fill="white"/>
<path d="M146.936 7.45089C146.915 7.45089 146.891 7.44701 146.867 7.44301C146.78 7.42871 146.683 7.41297 146.663 7.56844C146.645 7.70407 146.68 7.78544 146.822 7.83065C147.201 7.95724 147.289 8.26467 147.289 8.65348C147.285 9.92388 147.285 11.1965 147.285 12.4692C147.285 13.7419 147.285 15.0145 147.28 16.2849C147.28 16.3055 147.283 16.3274 147.287 16.3498C147.298 16.4263 147.31 16.5094 147.201 16.5652C145.234 14.4856 143.267 12.415 141.291 10.3353L141.291 10.3347C140.797 9.81952 140.303 9.30431 139.827 8.78007C139.439 8.35509 139.439 8.17425 139.871 7.81257C139.975 7.72339 139.968 7.64301 139.96 7.5454L139.959 7.54131C139.938 7.41321 139.852 7.42514 139.773 7.43603C139.752 7.43898 139.731 7.44185 139.712 7.44185C139.262 7.44185 138.812 7.44084 138.363 7.43984C137.463 7.43783 136.563 7.43582 135.664 7.44185C135.644 7.44185 135.622 7.43884 135.599 7.43574C135.511 7.42363 135.411 7.41005 135.39 7.56844C135.372 7.70407 135.425 7.78544 135.558 7.83065C135.919 7.95724 136.016 8.23755 136.016 8.60827C136.008 12.4059 136.008 16.2126 136.016 20.0102C136.016 20.3719 135.946 20.6613 135.575 20.7969C135.452 20.8421 135.381 20.8964 135.39 21.0501C135.397 21.2114 135.497 21.2003 135.587 21.1903C135.607 21.188 135.628 21.1857 135.646 21.1857H139.077C139.097 21.1857 139.118 21.1888 139.14 21.1919C139.218 21.2031 139.303 21.2152 139.324 21.0953C139.351 20.9777 139.342 20.8602 139.183 20.815C138.768 20.6884 138.698 20.3629 138.707 19.965C138.711 18.6724 138.711 17.3774 138.711 16.0825V16.0745C138.711 14.7816 138.711 13.4886 138.715 12.1979C138.715 12.1719 138.711 12.1449 138.707 12.1175C138.694 12.0308 138.681 11.9412 138.795 11.8724C141.326 14.5217 143.849 17.1711 146.372 19.8294C146.486 19.947 146.583 20.0826 146.672 20.2182C146.804 20.4262 146.786 20.6251 146.575 20.7607C146.556 20.7731 146.536 20.7849 146.517 20.7966C146.408 20.8618 146.302 20.9254 146.354 21.0862C146.408 21.2308 146.528 21.2129 146.641 21.1961C146.676 21.1909 146.711 21.1857 146.742 21.1857C147.601 21.1917 148.464 21.1897 149.325 21.1877H149.334C149.761 21.1867 150.188 21.1857 150.614 21.1857V20.9144C150.023 20.7336 149.935 20.2905 149.935 19.7299C149.953 16.1222 149.953 12.5054 149.935 8.89761C149.935 8.33701 150.032 7.89395 150.614 7.71311V7.44185C149.397 7.44185 148.171 7.44185 146.936 7.45089Z" fill="white"/>
<path d="M36.7119 8.61971L36.7135 8.6184L36.7148 8.61731C37.1646 8.23754 37.1382 8.10191 36.5825 7.81257C36.4678 7.74928 36.4413 7.68598 36.4413 7.57748C36.4413 7.43455 36.5329 7.44182 36.6145 7.4483C36.631 7.44961 36.647 7.45089 36.6619 7.45089H41.769C41.7811 7.45089 41.7934 7.45047 41.8058 7.45005C41.8929 7.44708 41.9818 7.44405 41.9895 7.58652C41.9895 7.69502 41.9806 7.78544 41.8395 7.81257C41.4991 7.88843 41.2456 8.1107 40.9957 8.32983C40.9477 8.37187 40.8999 8.4138 40.8516 8.45455C40.4447 8.78907 40.0384 9.1236 39.6321 9.45801L39.6244 9.46433C38.2983 10.556 36.9736 11.6463 35.6387 12.7314C35.3829 12.9394 35.3211 13.0569 35.5593 13.3463C36.818 14.8706 38.0671 16.3999 39.3173 17.9305L39.3259 17.9411C39.7636 18.477 40.2015 19.013 40.6399 19.5491C40.6991 19.6207 40.7574 19.6936 40.8157 19.7666C41.1915 20.2371 41.5685 20.709 42.21 20.8421C42.3168 20.8674 42.3241 20.9476 42.3318 21.0316L42.3335 21.0501C42.3415 21.1982 42.2399 21.1965 42.1485 21.195C42.1394 21.1949 42.1305 21.1947 42.1218 21.1947H37.3234C37.3086 21.1947 37.2932 21.1956 37.2776 21.1964C37.1913 21.2012 37.1015 21.2061 37.0941 21.0682C37.0853 20.9597 37.1029 20.8692 37.2352 20.824C37.7115 20.6794 37.6498 20.4081 37.394 20.0916L33.3189 14.9648C33.1954 14.8111 33.116 14.8111 32.9661 14.9286C32.4104 15.3988 31.8547 15.86 31.2902 16.3121C31.1578 16.4206 31.1314 16.5381 31.1314 16.7009C31.1314 17.081 31.1324 17.4611 31.1334 17.8408V17.8443C31.1353 18.6016 31.1373 19.3578 31.1314 20.1097C31.1314 20.4533 31.2637 20.6884 31.5724 20.8059C31.7047 20.8512 31.7576 20.9235 31.7488 21.0591C31.7352 21.2127 31.6428 21.2046 31.5567 21.1971C31.5312 21.1949 31.5063 21.1927 31.4842 21.1947C30.267 21.2038 29.0497 21.2038 27.8325 21.1947C27.8117 21.1947 27.7884 21.1981 27.7643 21.2015C27.6764 21.2141 27.578 21.2282 27.5502 21.0862C27.515 20.9144 27.612 20.8512 27.7531 20.7969C28.0795 20.6794 28.1765 20.4171 28.1765 20.0916V8.55402C28.1765 8.21946 28.0707 7.96628 27.7443 7.85778C27.5944 7.80353 27.515 7.72215 27.5591 7.55939C27.5935 7.42543 27.6922 7.43991 27.78 7.45279C27.8048 7.45642 27.8288 7.45993 27.8501 7.45993C29.0497 7.45089 30.2582 7.45089 31.4577 7.45993C31.4799 7.45993 31.5049 7.45568 31.5307 7.45128C31.6178 7.43643 31.7148 7.41989 31.7488 7.55939C31.8018 7.74928 31.6783 7.82161 31.5283 7.87586C31.2637 7.97533 31.1314 8.17425 31.1314 8.46359V13.292C33.0444 11.6925 34.8783 10.156 36.7119 8.61971Z" fill="white"/>
<path d="M66.7221 11.0135V17.1349C66.5457 16.9721 66.4398 16.8727 66.3252 16.7461C65.4348 15.8469 64.5421 14.9476 63.6495 14.0484L63.6481 14.047C62.7551 13.1474 61.862 12.2477 60.9711 11.348C60.8564 11.2395 60.733 11.122 60.6359 10.9954C60.4154 10.7151 60.3272 10.4348 60.733 10.2358C60.8388 10.1816 60.9094 10.1273 60.8741 10.0007C60.8429 9.89674 60.7564 9.89892 60.6819 9.9008L60.6633 9.90121L60.6536 9.90129H56.8607L56.8431 9.90121C56.761 9.90064 56.682 9.9001 56.6491 10.0098C56.6138 10.1364 56.6755 10.2087 56.7902 10.2449C57.1695 10.3805 57.2665 10.6789 57.2665 11.0587V19.9922C57.2665 20.3629 57.1959 20.6794 56.799 20.815C56.6931 20.8512 56.6226 20.9235 56.6402 21.0501C56.6619 21.1763 56.755 21.1684 56.8364 21.1615C56.8542 21.16 56.8714 21.1586 56.8872 21.1586H60.0626C60.0789 21.1586 60.0963 21.1605 60.1139 21.1624C60.1824 21.1699 60.2551 21.1778 60.2831 21.0772C60.3184 20.9687 60.2919 20.8602 60.1684 20.824C59.7098 20.6794 59.6745 20.3086 59.6745 19.8927C59.6789 18.9433 59.6789 17.9916 59.6789 17.04C59.6789 16.0883 59.6789 15.1366 59.6833 14.1872C59.6833 14.1586 59.6791 14.1284 59.6749 14.0974C59.6615 14.0009 59.6471 13.8964 59.7539 13.8074L59.8807 13.9347C61.8844 15.9444 63.8799 17.9459 65.8753 19.956C65.9282 20.0102 65.9812 20.0645 66.0253 20.1188C66.2458 20.39 66.3516 20.6432 65.9371 20.824C65.84 20.8692 65.7607 20.9325 65.7871 21.0591C65.8153 21.1821 65.9056 21.172 65.9858 21.163C66.0059 21.1608 66.0253 21.1586 66.0429 21.1586H69.4829C69.4881 21.1586 69.4935 21.1588 69.4989 21.1592C69.5054 21.1596 69.5121 21.1603 69.5189 21.1611C69.5277 21.1622 69.5367 21.1635 69.5458 21.1648C69.6245 21.1759 69.7112 21.1882 69.7387 21.0682C69.7652 20.9325 69.6946 20.8512 69.5623 20.806C69.2536 20.6884 69.1213 20.4443 69.1213 20.1097V10.9502C69.1213 10.6427 69.2271 10.3986 69.527 10.272C69.5434 10.2644 69.5609 10.2576 69.5787 10.2506C69.6668 10.2164 69.7607 10.1798 69.7387 10.0369C69.7172 9.88956 69.6195 9.8983 69.5268 9.90658C69.5057 9.90847 69.4849 9.91033 69.4653 9.91033H66.3781C66.3607 9.91033 66.3424 9.90911 66.3238 9.90788C66.229 9.90158 66.1268 9.89479 66.1047 10.046C66.087 10.1906 66.184 10.2268 66.2811 10.263C66.6163 10.3986 66.7221 10.6699 66.7221 11.0135Z" fill="white"/>
<path d="M83.9927 15.9775V14.7659C83.9927 14.7478 83.9906 14.7278 83.9884 14.7073C83.9796 14.6251 83.9698 14.5326 84.0897 14.5036C84.222 14.4675 84.2661 14.5579 84.3102 14.6664C84.4513 15.0823 84.7865 15.1456 85.1658 15.1366H89.876C89.9078 15.1366 89.9426 15.1308 89.978 15.125C90.0901 15.1065 90.2084 15.0871 90.2553 15.2451C90.3005 15.4041 90.1942 15.4417 90.089 15.479C90.0507 15.4925 90.0125 15.5061 89.9818 15.5254C89.7437 15.6701 89.6466 15.8871 89.6466 16.1583V18.672C89.6466 18.9975 89.7966 19.2055 90.0877 19.323C90.3258 19.4225 90.3523 19.5581 90.1141 19.6938C87.318 21.2038 84.3984 21.9723 81.2583 21.041C78.8062 20.3086 77.3067 18.1566 77.3067 15.5706C77.3067 13.0207 78.9297 10.8326 81.4259 10.0459C83.4105 9.42203 85.3687 9.61191 87.3092 10.2629C87.6443 10.3714 87.9797 10.48 88.3147 10.5975C88.5264 10.6698 88.7381 10.7331 88.9498 10.5975C89.0468 10.5342 89.1527 10.5432 89.2409 10.6156C89.3131 10.6822 89.279 10.7487 89.2448 10.8153C89.2373 10.8301 89.2297 10.8449 89.2233 10.8597C89.038 11.2666 88.8506 11.6712 88.6632 12.0759C88.4757 12.4805 88.2883 12.8851 88.1031 13.292C87.9884 13.5452 87.8473 13.4909 87.7855 13.292C87.6885 12.9936 87.4856 12.8128 87.2475 12.6681C85.7744 11.8091 84.2132 11.565 82.5814 12.0442C80.879 12.5415 79.8735 14.0787 79.997 15.8509C80.1205 17.6503 81.2848 18.9161 83.1106 19.1964C84.5043 19.4135 85.8626 19.2869 87.1681 18.7353C87.4327 18.6268 87.565 18.4821 87.5297 18.1747C87.4944 17.8673 87.5121 17.5418 87.5297 17.2343C87.5474 16.9631 87.4944 16.8274 87.1769 16.8455C86.4712 16.8726 85.7656 16.8636 85.06 16.8546C84.7248 16.8546 84.4513 16.945 84.3279 17.2976C84.3249 17.306 84.322 17.3144 84.3191 17.3229C84.2873 17.4158 84.2543 17.5124 84.125 17.4875C83.9842 17.4659 83.9951 17.3636 84.0052 17.2681C84.0078 17.2439 84.0103 17.2201 84.0103 17.1982C83.9892 16.8727 83.9906 16.5473 83.992 16.2218L83.9925 16.0729L83.9927 15.9775Z" fill="white"/>
<path d="M101.298 10.7421C99.9571 10.1182 98.5811 9.63901 97.1963 9.68422C95.5821 9.67518 94.3561 9.99165 93.3947 10.6246C92.2568 11.4022 91.7981 12.5053 91.9834 13.8707C92.1774 15.2541 92.9889 16.086 94.2943 16.4386C94.9941 16.6274 95.7123 16.69 96.4336 16.753C96.576 16.7654 96.7186 16.7778 96.8611 16.7912C97.0848 16.8133 97.3095 16.8305 97.5344 16.8477C98.2318 16.9011 98.9307 16.9546 99.6043 17.1529C99.9571 17.2614 100.257 17.4513 100.31 17.8672C100.372 18.2922 100.213 18.6268 99.8513 18.8528C99.6661 18.9613 99.4632 19.0698 99.2515 19.1241C97.3286 19.6666 95.4763 19.3863 93.6857 18.5544C93.4123 18.4278 93.1389 18.238 93.1212 17.8672C93.1212 17.7587 93.0154 17.7135 92.936 17.7045C92.8654 17.6954 92.8301 17.7859 92.8037 17.8582C92.4783 18.6606 92.1528 19.4541 91.8274 20.2475L91.827 20.2485L91.8246 20.2543C91.8223 20.2607 91.8197 20.2671 91.8171 20.2734L91.8124 20.2846L91.8091 20.2923C91.7837 20.3515 91.7591 20.4085 91.8246 20.4533C91.8952 20.4985 91.9834 20.5437 92.0628 20.4533C92.2745 20.2091 92.5038 20.2995 92.7419 20.408C94.0386 21.0048 95.3969 21.3484 96.817 21.4208C98.4488 21.5021 100.054 21.3755 101.474 20.4261C102.533 19.7209 103.036 18.7081 102.886 17.4061C102.736 16.1221 102.021 15.2812 100.866 14.811C99.966 14.4494 99.0222 14.3499 98.0695 14.2685C97.8742 14.2531 97.6782 14.2397 97.4819 14.2262C96.6414 14.1684 95.7959 14.1104 94.9735 13.8978C94.6648 13.8255 94.3826 13.6808 94.312 13.3191C94.2326 12.9303 94.3737 12.6138 94.6736 12.3697C94.9294 12.1617 95.2293 12.0261 95.5381 11.9447C97.2845 11.5107 98.9428 11.7639 100.522 12.6138C100.804 12.7675 101.077 12.9484 101.139 13.3282C101.166 13.4728 101.298 13.6898 101.448 13.4095C101.743 12.8578 102.023 12.2965 102.304 11.7361L102.304 11.7351L102.305 11.7338L102.305 11.7328L102.306 11.7323C102.41 11.5226 102.515 11.3127 102.621 11.1038C102.625 11.0962 102.628 11.0888 102.632 11.0814C102.664 11.0182 102.693 10.9616 102.63 10.9049C102.577 10.8597 102.497 10.8054 102.436 10.8597C102.086 11.1587 101.778 10.9942 101.482 10.8362C101.42 10.8031 101.359 10.7703 101.298 10.7421Z" fill="white"/>
<path d="M121.471 9.92841H126.014C126.437 9.92841 126.852 9.92841 127.01 9.40397C127.046 9.29547 127.125 9.26834 127.213 9.29547C127.303 9.32052 127.302 9.39183 127.301 9.45957L127.301 9.47631V12.3969L127.301 12.4136C127.302 12.4814 127.303 12.5527 127.213 12.5777C127.116 12.5958 127.046 12.5777 127.01 12.4692C126.86 11.9719 126.472 11.9538 126.058 11.9538C124.047 11.9629 122.036 11.9629 120.024 11.9448C119.698 11.9448 119.592 12.0171 119.61 12.3607C119.636 12.9394 119.628 13.5271 119.61 14.1149C119.601 14.359 119.663 14.4494 119.927 14.4494C121.18 14.4404 122.424 14.4404 123.676 14.4494C124.029 14.4494 124.311 14.3409 124.444 13.9792C124.488 13.8707 124.532 13.7894 124.664 13.8165C124.782 13.8467 124.777 13.94 124.772 14.0279L124.772 14.0285C124.771 14.0401 124.77 14.0515 124.77 14.0626C124.77 14.068 124.77 14.0734 124.77 14.0787V16.7732C124.77 16.783 124.77 16.7929 124.771 16.8031L124.772 16.8241C124.777 16.9117 124.782 17.0037 124.664 17.0264C124.539 17.052 124.501 16.9645 124.46 16.8709L124.452 16.8546C124.32 16.4839 124.038 16.3934 123.685 16.4025C122.432 16.4115 121.189 16.4115 119.936 16.4025C119.689 16.4025 119.61 16.4748 119.619 16.728C119.636 17.4423 119.628 18.1657 119.619 18.88C119.619 19.097 119.68 19.1603 119.892 19.1603C122.141 19.1513 124.391 19.1513 126.631 19.1513C126.949 19.1513 127.169 19.0156 127.275 18.7172C127.319 18.5907 127.372 18.4912 127.522 18.5274C127.66 18.5558 127.647 18.6566 127.634 18.7468C127.631 18.7715 127.628 18.7953 127.628 18.8167C127.637 19.73 127.637 20.6432 127.628 21.5564C127.628 21.5757 127.63 21.597 127.632 21.619C127.642 21.7104 127.654 21.8131 127.504 21.8277C127.381 21.8367 127.328 21.7825 127.284 21.6649C127.143 21.24 126.816 21.1948 126.437 21.1948C123.217 21.2038 120.007 21.2038 116.787 21.1948C116.752 21.1948 116.711 21.2023 116.67 21.21C116.548 21.2328 116.417 21.2574 116.364 21.0953C116.311 20.919 116.437 20.8749 116.555 20.8334C116.594 20.8195 116.633 20.806 116.664 20.7879C116.964 20.607 116.981 20.3086 116.981 20.0012V10.9773C116.981 10.6879 116.876 10.4619 116.602 10.3263C116.581 10.3155 116.557 10.3062 116.533 10.2966C116.435 10.2581 116.329 10.2163 116.364 10.064C116.405 9.89706 116.529 9.91745 116.64 9.93573C116.674 9.94121 116.706 9.94649 116.734 9.94649C117.99 9.9248 119.251 9.92624 120.518 9.92769C120.836 9.92805 121.153 9.92841 121.471 9.92841Z" fill="white"/>
<path d="M110.808 17.4527V17.4477C110.807 17.0354 110.806 16.6235 110.806 16.2126C110.806 16.0293 110.807 15.8461 110.807 15.6628C110.808 14.562 110.809 13.46 110.771 12.3516C110.771 12.0533 110.824 11.9357 111.15 11.9447C112.068 11.9719 112.976 11.9628 113.885 11.9538C114.264 11.9447 114.59 12.0171 114.732 12.433C114.776 12.5506 114.846 12.6048 114.961 12.5777C115.062 12.5537 115.06 12.4663 115.058 12.3839C115.058 12.373 115.058 12.3622 115.058 12.3516V9.52149C115.058 9.51225 115.058 9.50278 115.058 9.49319C115.06 9.39962 115.061 9.29459 114.926 9.2864C114.829 9.27736 114.767 9.34065 114.74 9.44011C114.608 9.86509 114.273 9.92838 113.902 9.92838H105.003C104.641 9.92838 104.332 9.85604 104.2 9.4582C104.165 9.34065 104.12 9.25927 103.988 9.29544C103.891 9.31836 103.895 9.3994 103.899 9.47307C103.899 9.48146 103.899 9.48976 103.9 9.49787L103.9 9.50467L103.9 9.51245V12.3426C103.9 12.3578 103.899 12.3735 103.898 12.3895C103.894 12.4781 103.889 12.5714 104.023 12.5867C104.129 12.6048 104.173 12.5415 104.209 12.4421C104.35 12.0261 104.676 11.9538 105.055 11.9538L105.062 11.9539C105.977 11.9629 106.883 11.9718 107.79 11.9447C108.125 11.9357 108.169 12.0533 108.169 12.3516C108.16 14.9105 108.16 17.4694 108.169 20.0283C108.169 20.4081 108.099 20.7155 107.702 20.8421C107.596 20.8783 107.534 20.9506 107.552 21.0772C107.566 21.2134 107.652 21.2018 107.731 21.1912C107.751 21.1884 107.772 21.1857 107.79 21.1857H111.186C111.203 21.1857 111.223 21.1879 111.243 21.1901C111.323 21.1991 111.412 21.2091 111.433 21.0862C111.45 20.9687 111.406 20.8783 111.292 20.8421C110.859 20.6884 110.806 20.3357 110.806 19.9379C110.812 19.1117 110.81 18.2815 110.808 17.4527Z" fill="white"/>
<path d="M72.3039 14.4518V14.4502C72.3023 13.3288 72.3006 12.2046 72.3139 11.0857C72.3139 10.706 72.2345 10.4076 71.8552 10.2629C71.7494 10.2268 71.67 10.1815 71.6876 10.0459C71.7099 9.91619 71.8014 9.9217 71.8824 9.92658C71.8974 9.92748 71.912 9.92836 71.9258 9.92836H75.3129C75.3289 9.92836 75.3455 9.92737 75.3622 9.92637C75.446 9.92134 75.5319 9.91619 75.5687 10.0369C75.6128 10.1996 75.4893 10.2448 75.3834 10.281C75.0571 10.4076 74.96 10.6698 74.96 10.9953V20.1006C74.96 20.4442 75.0835 20.7155 75.4275 20.833C75.5334 20.8692 75.6039 20.9415 75.5863 21.0681C75.5718 21.202 75.4857 21.1952 75.4016 21.1885C75.3834 21.1871 75.3654 21.1857 75.3481 21.1857H71.917L71.9083 21.1858L71.8989 21.1862L71.8893 21.1868L71.8702 21.1882C71.8006 21.1938 71.7267 21.1998 71.7052 21.1043C71.67 20.9867 71.7229 20.8963 71.8376 20.8602C72.2874 20.7245 72.3315 20.3719 72.3227 19.974C72.3015 18.7949 72.3029 17.6216 72.3043 16.4495V16.4488C72.3047 16.1561 72.3051 15.8632 72.3051 15.5706C72.3051 15.1981 72.3045 14.8251 72.3039 14.4518Z" fill="white"/>
<path d="M129.559 21.1857H131.235C131.374 21.1857 131.514 21.1863 131.653 21.1868C132.071 21.1885 132.488 21.1902 132.885 21.1767C132.906 21.1767 132.931 21.1807 132.956 21.1848C133.046 21.1994 133.146 21.2159 133.167 21.0682C133.194 20.9144 133.096 20.8602 132.973 20.815C132.664 20.6884 132.55 20.4352 132.55 20.1007V10.9954C132.55 10.6698 132.647 10.4076 132.973 10.281L132.982 10.278L132.999 10.2723C133.099 10.2395 133.208 10.2037 133.176 10.0459C133.147 9.90692 133.049 9.91592 132.957 9.92442C132.935 9.92642 132.914 9.9284 132.894 9.9284C131.8 9.91935 130.697 9.91935 129.595 9.9284C129.573 9.9284 129.549 9.92563 129.525 9.92282C129.434 9.9122 129.339 9.90103 129.304 10.0369C129.263 10.1871 129.365 10.2295 129.464 10.2707L129.489 10.281C129.824 10.4167 129.921 10.6789 129.921 11.0315C129.915 13.0426 129.917 15.0536 129.919 17.0646V17.0716C129.92 18.0783 129.921 19.0849 129.921 20.0916C129.921 20.4443 129.824 20.7155 129.48 20.8331C129.348 20.8783 129.268 20.9506 129.304 21.0953C129.331 21.2153 129.418 21.203 129.497 21.1919C129.509 21.1901 129.522 21.1883 129.533 21.1872C129.542 21.1863 129.551 21.1857 129.559 21.1857Z" fill="white"/>
<path d="M45.3237 7.32431C45.3237 8.05671 45.8882 8.61732 46.6115 8.61732C47.3259 8.60828 47.8905 8.03863 47.8816 7.30623C47.8728 6.56478 47.3083 5.99513 46.5938 6.00418C45.8794 6.01322 45.3237 6.59191 45.3237 7.32431Z" fill="white"/>
<path d="M51.7707 7.29718C51.7707 8.06576 51.2239 8.62636 50.4653 8.61732C49.7773 8.60828 49.2216 8.04767 49.204 7.33335C49.1863 6.61903 49.7685 6.02226 50.4741 6.00418C51.1974 5.99513 51.7707 6.56478 51.7707 7.29718Z" fill="white"/>
<path fill-rule="evenodd" clip-rule="evenodd" d="M48.5424 9.68428C50.5094 9.70237 52.2912 10.2358 53.6319 11.7911C56.4192 15.0191 54.7962 20.0826 50.6417 21.1857C48.9217 21.6288 47.2017 21.5836 45.5435 20.9054C43.206 19.947 41.8653 17.7769 42.0152 15.2542C42.174 12.6049 43.7176 10.697 46.2844 9.98267C46.5666 9.90129 46.8489 9.838 47.14 9.79279C47.5986 9.71141 48.0661 9.6662 48.5424 9.68428ZM44.6967 15.4983C44.679 17.7136 46.2315 19.2869 48.4454 19.2959C50.6505 19.305 52.2647 17.7498 52.2735 15.6158C52.2735 13.3644 50.7387 11.8363 48.463 11.8272C46.2667 11.8182 44.7143 13.3373 44.6967 15.4983Z" fill="white"/>
</svg>
