<svg width="95" height="18" viewBox="0 0 95 18" fill="none" xmlns="http://www.w3.org/2000/svg">
<path fill-rule="evenodd" clip-rule="evenodd" d="M4.6962 12.139L4.99957 11.4165L7.18385 14.9335L13.8459 4.23247L14.3556 4.6687L12.0742 13.9793L11.8072 13.1205L12.9965 7.17697L7.18385 15.8333L4.6962 12.139ZM2.28136 13.9793L0 4.65506L0.509665 4.21884L3.72541 9.38535L3.44631 10.2851L1.35911 7.17697L2.54832 13.1205L2.28136 13.9793ZM10.3025 12.2344L11.3582 14.9335H11.8558L10.7394 11.6074L10.3025 12.2344ZM6.88048 1.83325H7.17171H7.46295L9.97487 9.34445L9.48948 10.1624L7.18385 4.21884L3.00945 14.9335H2.51192L6.88048 1.83325Z" fill="#D29F13"/>
<path d="M33.6863 4.13708H29.2207V5.43212H33.6863V4.13708Z" fill="#D22630"/>
<path d="M21.6003 14.9474V14.6884C21.2362 14.6339 21.0663 14.4294 21.0663 14.1431V4.92794C21.0785 4.64167 21.2484 4.43719 21.6003 4.38266V4.12366H18.5908V4.38266C18.9549 4.43719 19.1248 4.64167 19.1248 4.92794V14.1431C19.1126 14.4294 18.9427 14.6339 18.5908 14.6884V14.9474H21.6003Z" fill="#101820"/>
<path d="M21.5639 9.67186V10.0944L24.7068 14.961H27.1823V14.593L23.7239 9.57643H22.923L26.0174 5.05063C26.3329 4.62804 26.5634 4.49172 26.9396 4.49172V4.13729H24.6097V4.49172H24.6704C24.9252 4.49172 25.083 4.58714 24.816 4.95521L21.5639 9.67186Z" fill="#101820"/>
<path d="M42.3995 6.42746C42.7635 6.48199 42.9334 6.67283 42.9334 6.9591V11.7166L38.941 6.16845H36.4655V6.46835C36.7203 6.50925 36.8053 6.63194 36.9994 6.91821V14.1704C36.9873 14.443 36.8174 14.6475 36.4655 14.702V14.9611H38.4678V14.702C38.1037 14.6475 37.9338 14.4567 37.9338 14.1704V8.2814L42.6664 15.0019H43.8435V14.9474H43.8678V6.94547C43.8799 6.6592 44.0498 6.46835 44.4017 6.41383V6.15482H42.3995V6.42746Z" fill="#101820"/>
<path fill-rule="evenodd" clip-rule="evenodd" d="M35.7617 10.6125C35.7617 13.2571 33.9293 15.1519 31.3688 15.1519C28.954 15.1519 27.1459 13.5433 27.158 10.7488C27.158 7.95423 29.0268 6.19571 31.5145 6.19571C34.0021 6.19571 35.7617 7.96787 35.7617 10.6125ZM31.4417 6.93184C33.2255 6.93184 33.6623 8.60857 33.6623 10.7079C33.6623 12.48 33.3104 14.3612 31.4174 14.3612C29.7306 14.3612 29.2574 12.9026 29.2574 10.6261C29.2574 8.6631 29.6578 6.93184 31.4417 6.93184Z" fill="#101820"/>
<path d="M48.6247 14.6884V14.9474H45.6273V14.6884C45.9792 14.6339 46.1491 14.443 46.1613 14.1568V6.93184C46.1613 6.64557 45.9914 6.45472 45.6273 6.40019V6.14119H48.6247V6.40019C48.2727 6.45472 48.1028 6.6592 48.0907 6.93184V14.1568C48.0907 14.443 48.2606 14.6339 48.6247 14.6884Z" fill="#101820"/>
<path d="M51.8525 10.4216C51.8525 8.41772 52.3865 6.74099 54.2188 6.74099C55.3838 6.74099 56.1968 7.40896 56.5609 8.9221H56.8885V6.52288C56.1725 6.15482 55.1168 5.96397 54.2916 5.96397C51.7555 5.96397 49.7896 7.79065 49.7896 10.6806C49.7896 13.5706 51.5613 15.111 54.0368 15.1383C55.3352 15.1383 56.6701 14.8111 57.0948 14.4021V10.9396H55.1532V14.0613C54.9469 14.2386 54.5707 14.334 54.1703 14.334C52.4229 14.3476 51.8525 12.8617 51.8525 10.4216Z" fill="#101820"/>
<path d="M61.4755 15.1383C60.6139 15.1383 59.2791 14.8793 58.466 14.4021V12.0711H58.7937C59.4611 13.7205 60.3712 14.2658 61.4755 14.2658C62.5676 14.2658 63.1622 13.7751 63.1622 12.8481C63.1622 11.9211 62.4584 11.6621 61.4755 11.3213L60.6625 11.0214C59.4854 10.5988 58.466 10.0808 58.466 8.52678C58.466 6.9591 59.5946 6.00487 61.7182 6.0185C62.422 6.03213 63.3564 6.25024 63.9631 6.60467V8.6222H63.6719C63.2229 7.27264 62.4706 6.83642 61.4755 6.78189C60.4683 6.72736 59.9708 7.13632 59.9708 7.76339C59.9708 8.49951 60.5896 8.81305 61.2813 9.07205L62.24 9.39922C63.8175 9.9445 64.8004 10.926 64.8004 12.3301C64.8004 14.1022 63.5627 15.1383 61.4755 15.1383Z" fill="#101820"/>
<path d="M65.4436 6.16845V8.56767H65.6742C66.0139 7.35443 66.4629 6.80915 67.7735 6.80915H67.822V14.1704C67.8099 14.4567 67.64 14.6475 67.2881 14.702V14.961H70.2975V14.702C69.9335 14.6475 69.7636 14.4567 69.7636 14.1704V6.80915H69.8121C71.1227 6.80915 71.5596 7.36806 71.9115 8.56767H72.142V6.16845H65.4436Z" fill="#101820"/>
<path d="M77.0081 14.3067C78.4279 14.3067 78.7191 13.7478 79.1317 12.2347H79.4594V14.9747H73.3313V14.7157C73.6832 14.6611 73.8531 14.4703 73.8652 14.184V6.9591C73.8652 6.67283 73.6953 6.48198 73.3313 6.42745V6.16845H79.3259V8.74488H78.9983C78.6827 7.43622 78.3187 6.82278 77.0081 6.82278H75.7946V10.0399H77.8333V10.7351H75.7946V14.3067H77.0081Z" fill="#101820"/>
<path d="M83.8158 14.9474V14.6884C83.4518 14.6339 83.2819 14.443 83.2819 14.1568V6.93184C83.294 6.6592 83.4639 6.45472 83.8158 6.40019V6.14119H80.8185V6.40019C81.1825 6.45472 81.3524 6.64557 81.3524 6.93184V14.1568C81.3403 14.443 81.1704 14.6339 80.8185 14.6884V14.9474H83.8158Z" fill="#101820"/>
<path d="M92.0311 4.3963V4.13729H94.1669V4.3963C93.8149 4.45082 93.6451 4.6553 93.6329 4.94157V15.0019H92.4558L86.5097 6.48199V14.1431C86.5097 14.4294 86.6918 14.6339 87.0437 14.6884V14.9474H84.8958V14.6884C85.2477 14.6339 85.4176 14.4294 85.4297 14.1431V4.90068L85.4117 4.87404C85.2301 4.6059 85.1426 4.4768 84.8958 4.43719V4.13729H87.3713L92.565 11.4304V4.94157C92.565 4.6553 92.3952 4.45082 92.0311 4.3963Z" fill="#101820"/>
</svg>
