<svg width="120" height="24" viewBox="0 0 120 24" fill="none" xmlns="http://www.w3.org/2000/svg">
<path fill-rule="evenodd" clip-rule="evenodd" d="M5.63544 15.7668L5.99949 14.8998L8.62062 19.1203L16.6151 6.27897L17.2267 6.80243L14.489 17.9752L14.1687 16.9446L15.5957 9.81237L8.62062 20.1999L5.63544 15.7668ZM2.73763 17.9752L0 6.78608L0.611598 6.26261L4.47049 12.4624L4.13557 13.5421L1.63093 9.81237L3.05799 16.9446L2.73763 17.9752ZM12.363 15.8813L13.6299 19.1203H14.2269L12.8872 15.1288L12.363 15.8813ZM8.25657 3.3999H8.60606H8.95554L11.9698 12.4133L11.3874 13.3948L8.62062 6.26261L3.61134 19.1203H3.0143L8.25657 3.3999Z" fill="#D29F13"/>
<path d="M40.4232 6.16455H35.0645V7.71859H40.4232V6.16455Z" fill="#D22630"/>
<path d="M25.9199 19.1369V18.8261C25.4831 18.7607 25.2792 18.5153 25.2792 18.1718V7.11358C25.2938 6.77005 25.4976 6.52468 25.9199 6.45924V6.14844H22.3086V6.45924C22.7454 6.52468 22.9493 6.77005 22.9493 7.11358V18.1718C22.9348 18.5153 22.7309 18.7607 22.3086 18.8261V19.1369H25.9199Z" fill="white"/>
<path d="M25.8762 12.8063V13.3134L29.6478 19.1533H32.6184V18.7116L28.4683 12.6918H27.5072L31.2204 7.26081C31.5991 6.7537 31.8757 6.59011 32.3272 6.59011V6.1648H29.5313V6.59011H29.6041C29.9099 6.59011 30.0992 6.70462 29.7788 7.1463L25.8762 12.8063Z" fill="white"/>
<path d="M50.879 8.913C51.3158 8.97843 51.5197 9.20745 51.5197 9.55097V15.26L46.7288 8.60219H43.7582V8.96207C44.064 9.01115 44.1659 9.15837 44.3989 9.5019V18.2045C44.3844 18.5317 44.1805 18.7771 43.7582 18.8425V19.1533H46.1609V18.8425C45.7241 18.7771 45.5202 18.5481 45.5202 18.2045V11.1377L51.1993 19.2024H52.6118V19.137H52.6409V9.53461C52.6555 9.19109 52.8594 8.96207 53.2817 8.89664V8.58583H50.879V8.913Z" fill="white"/>
<path fill-rule="evenodd" clip-rule="evenodd" d="M42.9136 13.935C42.9136 17.1085 40.7148 19.3823 37.6422 19.3823C34.7444 19.3823 32.5747 17.452 32.5893 14.0986C32.5893 10.7451 34.8318 8.63491 37.817 8.63491C40.8022 8.63491 42.9136 10.7615 42.9136 13.935ZM37.7296 9.51825C39.8702 9.51825 40.3944 11.5303 40.3944 14.0495C40.3944 16.1761 39.9721 18.4335 37.7005 18.4335C35.6764 18.4335 35.1085 16.6832 35.1085 13.9514C35.1085 11.5958 35.589 9.51825 37.7296 9.51825Z" fill="white"/>
<path d="M58.3492 18.8261V19.137H54.7524V18.8261C55.1747 18.7607 55.3786 18.5317 55.3931 18.1882V9.51825C55.3931 9.17473 55.1893 8.94571 54.7524 8.88028V8.56947H58.3492V8.88028C57.9269 8.94571 57.723 9.19109 57.7085 9.51825V18.1882C57.7085 18.5317 57.9123 18.7607 58.3492 18.8261Z" fill="white"/>
<path d="M62.2226 13.706C62.2226 11.3013 62.8634 9.28924 65.0622 9.28924C66.4601 9.28924 67.4358 10.0908 67.8726 11.9066H68.2658V9.0275C67.4067 8.58583 66.1398 8.35681 65.1496 8.35681C62.1061 8.35681 59.7471 10.5488 59.7471 14.0168C59.7471 17.4848 61.8732 19.3332 64.8438 19.366C66.4019 19.366 68.0037 18.9734 68.5134 18.4826V14.3276H66.1835V18.0737C65.9359 18.2863 65.4845 18.4008 65.004 18.4008C62.9071 18.4172 62.2226 16.6341 62.2226 13.706Z" fill="white"/>
<path d="M73.7702 19.366C72.7363 19.366 71.1345 19.0552 70.1588 18.4826V15.6853H70.552C71.3529 17.6647 72.4451 18.319 73.7702 18.319C75.0808 18.319 75.7943 17.7301 75.7943 16.6178C75.7943 15.5054 74.9497 15.1946 73.7702 14.7856L72.7945 14.4258C71.382 13.9186 70.1588 13.297 70.1588 11.4322C70.1588 9.55097 71.5131 8.40589 74.0614 8.42225C74.906 8.4386 76.0273 8.70034 76.7554 9.12565V11.5467H76.4059C75.8671 9.92721 74.9643 9.40375 73.7702 9.33831C72.5616 9.27288 71.9645 9.76363 71.9645 10.5161C71.9645 11.3995 72.7072 11.7757 73.5372 12.0865L74.6876 12.4791C76.5806 13.1334 77.7601 14.3112 77.7601 15.9962C77.7601 18.1227 76.2748 19.366 73.7702 19.366Z" fill="white"/>
<path d="M78.5319 8.60219V11.4813H78.8086C79.2163 10.0254 79.7551 9.37103 81.3278 9.37103H81.386V18.2045C81.3715 18.548 81.1676 18.7771 80.7453 18.8425V19.1533H84.3567V18.8425C83.9198 18.7771 83.7159 18.548 83.7159 18.2045V9.37103H83.7742C85.3469 9.37103 85.8711 10.0417 86.2934 11.4813H86.5701V8.60219H78.5319Z" fill="white"/>
<path d="M92.4094 18.3681C94.1131 18.3681 94.4626 17.6974 94.9577 15.8816H95.3509V19.1697H87.9971V18.8589C88.4194 18.7934 88.6233 18.5644 88.6378 18.2209V9.55097C88.6378 9.20745 88.434 8.97843 87.9971 8.91299V8.60219H95.1907V11.6939H94.7975C94.4189 10.1235 93.982 9.38738 92.4094 9.38738H90.9532V13.248H93.3996V14.0822H90.9532V18.3681H92.4094Z" fill="white"/>
<path d="M100.579 19.137V18.8261C100.142 18.7607 99.9378 18.5317 99.9378 18.1882V9.51825C99.9524 9.19109 100.156 8.94571 100.579 8.88028V8.56947H96.9818V8.88028C97.4186 8.94571 97.6225 9.17473 97.6225 9.51825V18.1882C97.6079 18.5317 97.4041 18.7607 96.9818 18.8261V19.137H100.579Z" fill="white"/>
<path d="M110.437 6.4756V6.1648H113V6.4756C112.578 6.54104 112.374 6.78641 112.359 7.12994V19.2024H110.947L103.811 8.97843V18.1718C103.811 18.5153 104.03 18.7607 104.452 18.8261V19.1369H101.875V18.8261C102.297 18.7607 102.501 18.5153 102.515 18.1718V7.08086L102.494 7.0489C102.276 6.72713 102.171 6.57221 101.875 6.52468V6.1648H104.845L111.078 14.9165V7.12994C111.078 6.78641 110.874 6.54104 110.437 6.4756Z" fill="white"/>
</svg>
