<svg width="64" height="24" viewBox="0 0 64 24" fill="none" xmlns="http://www.w3.org/2000/svg">
<path d="M36.0106 3.08643C37.7171 3.08643 38.8984 3.75952 39.2594 5.20666H37.9468C37.7171 4.33164 37.192 3.89413 36.3716 3.89413C34.8292 3.89413 34.5667 5.37493 34.5667 7.36054C34.5667 9.34616 34.862 10.827 36.3716 10.827C37.2576 10.827 37.7499 10.2885 37.8811 9.27885H39.2922C38.9969 10.8943 37.7827 11.601 36.0106 11.601C33.615 11.601 32.4993 9.71636 32.4993 7.36054C32.4665 5.00473 33.615 3.08643 36.0106 3.08643Z" fill="#261D1D"/>
<path d="M13.0064 11.3999H13.7284V5.14014H13.794L16.1896 10.4575H17.01L19.4056 5.14014H19.504V11.3999H21.5714V3.3228H19.5697L17.2069 8.43828L14.877 3.3228H13.0064V11.3999Z" fill="#261D1D"/>
<path d="M43.0329 3.99589H40.7358V3.3228H47.3975V3.99589H45.1004V11.3999H43.0329V3.99589Z" fill="#261D1D"/>
<path d="M49.3662 11.3999V3.3228H55.2403V3.99589H51.4336V6.65459H53.9276V7.36133H51.4336V10.7268H55.2403V11.3999H49.3662Z" fill="#261D1D"/>
<path fill-rule="evenodd" clip-rule="evenodd" d="M57.6361 3.3228H60.9833C62.9851 3.3228 64.0024 4.60167 64.0024 6.48632C64.0024 8.77482 62.6241 9.71715 61.049 9.71715H59.7363V11.3999H57.6361V3.3228ZM59.7363 8.97675V3.99589H60.6223C61.6068 3.99589 62.1319 4.97187 62.1319 6.48632C62.1319 8.60655 61.4099 8.97675 60.6223 8.97675H59.7363Z" fill="#261D1D"/>
<path fill-rule="evenodd" clip-rule="evenodd" d="M26.625 3.3228L23.3106 11.3999H24.0654L24.8202 9.44791H28.6268L29.4144 11.3999H31.4818L28.1674 3.3228H26.625ZM28.3643 8.77482L26.7563 4.73628H26.6907L25.1155 8.77482H28.3643Z" fill="#261D1D"/>
<path d="M9.49446 21.9998H15.4014V21.3268H11.5947V17.9613H14.0887V17.2546H11.5947V14.5959H15.4014V13.9228H9.52727L9.49446 21.9998Z" fill="#261D1D"/>
<path d="M36.371 21.9998H35.6491V13.9228H37.5196L39.8495 19.0383L42.2123 13.9228H44.2141V21.9998H42.1139L42.1467 15.7401H42.0482L39.6527 21.0575H38.8322L36.4367 15.7401H36.371V21.9998Z" fill="#261D1D"/>
<path d="M47.2339 21.9998V13.9228H47.9558V19.745H48.0214L52.7141 13.9228H53.6986V21.9998H53.0095L52.9767 16.8171H52.911L48.5465 21.9998H47.2339Z" fill="#261D1D"/>
<path fill-rule="evenodd" clip-rule="evenodd" d="M18.0595 13.9228V21.9998H20.1269V20.3171H21.4395C23.0147 20.3171 24.393 19.3748 24.393 17.0863C24.393 15.2016 23.4085 13.9228 21.4067 13.9228H18.0595ZM20.1269 14.5959V19.5767H21.0129C21.7677 19.5767 22.5225 19.2065 22.5225 17.0863C22.5225 15.5718 21.9974 14.5959 21.0129 14.5959H20.1269Z" fill="#261D1D"/>
<path d="M31.5803 21.9998L31.1209 20.8219H33.1555L33.6477 21.9998H31.5803Z" fill="#261D1D"/>
<path d="M28.7909 13.9228H30.3333L32.1382 18.2642H30.1364L28.955 15.3026H28.8894L26.2641 21.9998H25.5093L28.7909 13.9228Z" fill="#261D1D"/>
<path d="M0.109375 13.9228H2.17679V18.3315L5.26151 13.9228H6.18036L4.17858 16.7497L7.26329 21.9998H5.16306L3.09564 18.2979L2.17679 19.5767V21.9998H0.109375V13.9228Z" fill="#261D1D"/>
<path d="M58.6866 13.9228H56.5536L56.5864 21.9998H58.6866V19.5767L59.6055 18.2979L61.7385 21.9998H63.9044L60.754 16.7497L62.7886 13.9228H61.837L58.6866 18.3315V13.9228Z" fill="#261D1D"/>
<path d="M34.3982 18.7358H29.4102V20.2166H34.3982V18.7358Z" fill="#D22630"/>
<path fill-rule="evenodd" clip-rule="evenodd" d="M10.0089 5.57701V11.2646H0V5.57701C0 2.88465 2.2315 1 4.98805 1C7.77743 1 10.0089 2.88465 10.0089 5.57701ZM2.75609 5.73735C3.27043 5.19202 3.75832 4.67474 3.87267 4.02976C3.97112 3.45763 3.90549 2.88551 3.67578 2.58261C3.61424 3.27682 3.29306 3.64558 2.82043 4.18822C2.78898 4.22433 2.75686 4.2612 2.72411 4.29899C2.69129 4.33265 2.65847 4.37472 2.62566 4.41678C2.59284 4.45885 2.56003 4.50092 2.52721 4.53457L2.51396 4.55011C1.83428 5.34666 1.54272 5.68835 1.54272 7.15962C1.77244 6.78942 2.13342 6.38557 2.52721 5.98172C2.60333 5.89931 2.68 5.81802 2.75609 5.73735ZM6.1581 8.85371C5.99178 9.02097 5.61083 9.40407 5.28377 9.95295V9.91929H3.97112C4.10239 9.51544 4.49618 9.01062 5.11969 8.37118L5.1424 8.34865C6.14967 7.349 6.9929 6.51216 7.35118 5.44325C7.54808 4.87112 7.64653 4.09707 7.44963 3.28936C7.44963 3.28936 8.43412 4.16438 8.2044 5.8471C8.04581 6.92056 7.21273 7.77394 6.29783 8.71112C6.26618 8.74354 6.23444 8.77606 6.20262 8.80869C6.19029 8.82134 6.17535 8.83636 6.1581 8.85371ZM8.66383 8.16926C8.4013 8.77504 8.2044 9.48178 8.13877 9.95295H6.99021C7.31837 9.2462 8.07314 8.53946 8.66383 8.16926ZM6.13699 4.50092C6.20262 3.1884 5.57911 2.48165 5.21813 2.21242C5.41503 2.78454 5.41503 3.76052 5.18532 4.3663C4.8282 5.39845 4.14989 6.06826 3.27749 6.92972L3.24916 6.9577C3.05227 7.12597 2.88819 7.29424 2.69129 7.49617C1.80526 8.37118 1.50991 9.01062 1.37864 9.91929H2.56003C2.65847 9.31351 2.921 8.84235 3.67578 8.06829C3.74044 7.97987 3.81927 7.90597 3.90295 7.82751C3.94667 7.78652 3.99171 7.74429 4.03675 7.6981C4.98842 6.75577 6.07135 5.67883 6.13699 4.50092Z" fill="#D22630"/>
</svg>
