<svg width="71" height="24" viewBox="0 0 71 24" fill="none" xmlns="http://www.w3.org/2000/svg">
<path d="M36.0087 3.08643C37.7151 3.08643 38.8965 3.75952 39.2575 5.20666H37.9448C37.7151 4.33164 37.19 3.89413 36.3696 3.89413C34.8273 3.89413 34.5647 5.37493 34.5647 7.36054C34.5647 9.34616 34.8601 10.827 36.3696 10.827C37.2557 10.827 37.7479 10.2885 37.8792 9.27885H39.2903C38.9949 10.8943 37.7807 11.601 36.0087 11.601C33.6131 11.601 32.4973 9.71636 32.4973 7.36054C32.4645 5.00473 33.6131 3.08643 36.0087 3.08643Z" fill="white"/>
<path d="M13.0045 11.3999H13.7264V5.14014H13.7921L16.1876 10.4575H17.0081L19.4036 5.14014H19.5021V11.3999H21.5695V3.3228H19.5677L17.2049 8.43828L14.875 3.3228H13.0045V11.3999Z" fill="white"/>
<path d="M43.031 3.99589H40.7338V3.3228H47.3955V3.99589H45.0984V11.3999H43.031V3.99589Z" fill="white"/>
<path d="M49.3642 11.3999V3.3228H55.2383V3.99589H51.4317V6.65459H53.9257V7.36133H51.4317V10.7268H55.2383V11.3999H49.3642Z" fill="white"/>
<path fill-rule="evenodd" clip-rule="evenodd" d="M57.6341 3.3228H60.9814C62.9832 3.3228 64.0005 4.60167 64.0005 6.48632C64.0005 8.77482 62.6222 9.71715 61.047 9.71715H59.7344V11.3999H57.6341V3.3228ZM59.7344 8.97675V3.99589H60.6204C61.6049 3.99589 62.1299 4.97187 62.1299 6.48632C62.1299 8.60655 61.408 8.97675 60.6204 8.97675H59.7344Z" fill="white"/>
<path fill-rule="evenodd" clip-rule="evenodd" d="M26.6231 3.3228L23.3087 11.3999H24.0634L24.8182 9.44791H28.6249L29.4125 11.3999H31.4799L28.1654 3.3228H26.6231ZM28.3623 8.77482L26.7544 4.73628H26.6887L25.1135 8.77482H28.3623Z" fill="white"/>
<path d="M9.4925 21.9998H15.3994V21.3268H11.5927V17.9613H14.0868V17.2546H11.5927V14.5959H15.3994V13.9228H9.52532L9.4925 21.9998Z" fill="white"/>
<path d="M36.3691 21.9998H35.6471V13.9228H37.5176L39.8476 19.0383L42.2104 13.9228H44.2121V21.9998H42.1119L42.1447 15.7401H42.0463L39.6507 21.0575H38.8303L36.4347 15.7401H36.3691V21.9998Z" fill="white"/>
<path d="M47.2319 21.9998V13.9228H47.9539V19.745H48.0195L52.7122 13.9228H53.6967V21.9998H53.0075L52.9747 16.8171H52.9091L48.5445 21.9998H47.2319Z" fill="white"/>
<path fill-rule="evenodd" clip-rule="evenodd" d="M18.0575 13.9228V21.9998H20.1249V20.3171H21.4376C23.0128 20.3171 24.391 19.3748 24.391 17.0863C24.391 15.2016 23.4066 13.9228 21.4048 13.9228H18.0575ZM20.1249 14.5959V19.5767H21.011C21.7658 19.5767 22.5205 19.2065 22.5205 17.0863C22.5205 15.5718 21.9955 14.5959 21.011 14.5959H20.1249Z" fill="white"/>
<path d="M31.5783 21.9998L31.1189 20.8219H33.1535L33.6458 21.9998H31.5783Z" fill="white"/>
<path d="M28.789 13.9228H30.3313L32.1362 18.2642H30.1344L28.9531 15.3026H28.8874L26.2621 21.9998H25.5074L28.789 13.9228Z" fill="white"/>
<path d="M0.107422 13.9228H2.17484V18.3315L5.25956 13.9228H6.17841L4.17662 16.7497L7.26134 21.9998H5.16111L3.09369 18.2979L2.17484 19.5767V21.9998H0.107422V13.9228Z" fill="white"/>
<path d="M58.6847 13.9228H56.5516L56.5844 21.9998H58.6847V19.5767L59.6035 18.2979L61.7366 21.9998H63.9024L60.7521 16.7497L62.7867 13.9228H61.835L58.6847 18.3315V13.9228Z" fill="white"/>
<path d="M34.3982 18.7358H29.4102V20.2166H34.3982V18.7358Z" fill="#D22630"/>
<path fill-rule="evenodd" clip-rule="evenodd" d="M10.0089 5.57701V11.2646H0V5.57701C0 2.88465 2.2315 1 4.98805 1C7.77743 1 10.0089 2.88465 10.0089 5.57701ZM2.75609 5.73735C3.27043 5.19202 3.75832 4.67474 3.87267 4.02976C3.97112 3.45763 3.90549 2.88551 3.67578 2.58261C3.61424 3.27682 3.29306 3.64558 2.82043 4.18822C2.78898 4.22433 2.75686 4.2612 2.72411 4.29899C2.69129 4.33265 2.65847 4.37472 2.62566 4.41678C2.59284 4.45885 2.56003 4.50092 2.52721 4.53457L2.51396 4.55011C1.83428 5.34666 1.54272 5.68835 1.54272 7.15962C1.77244 6.78942 2.13342 6.38557 2.52721 5.98172C2.60333 5.89931 2.68 5.81802 2.75609 5.73735ZM6.1581 8.85371C5.99178 9.02097 5.61083 9.40407 5.28377 9.95295V9.91929H3.97112C4.10239 9.51544 4.49618 9.01062 5.11969 8.37118L5.1424 8.34865C6.14967 7.349 6.9929 6.51216 7.35118 5.44325C7.54808 4.87112 7.64653 4.09707 7.44963 3.28936C7.44963 3.28936 8.43412 4.16438 8.2044 5.8471C8.04581 6.92056 7.21273 7.77394 6.29783 8.71112C6.26618 8.74354 6.23444 8.77606 6.20262 8.80869C6.19029 8.82134 6.17535 8.83636 6.1581 8.85371ZM8.66383 8.16926C8.4013 8.77504 8.2044 9.48178 8.13877 9.95295H6.99021C7.31837 9.2462 8.07314 8.53946 8.66383 8.16926ZM6.13699 4.50092C6.20262 3.1884 5.57911 2.48165 5.21813 2.21242C5.41503 2.78454 5.41503 3.76052 5.18532 4.3663C4.8282 5.39845 4.14989 6.06826 3.27749 6.92972L3.24916 6.9577C3.05227 7.12597 2.88819 7.29424 2.69129 7.49617C1.80526 8.37118 1.50991 9.01062 1.37864 9.91929H2.56003C2.65847 9.31351 2.921 8.84235 3.67578 8.06829C3.74044 7.97987 3.81927 7.90597 3.90295 7.82751C3.94667 7.78652 3.99171 7.74429 4.03675 7.6981C4.98842 6.75577 6.07135 5.67883 6.13699 4.50092Z" fill="#D22630"/>
</svg>
