<svg width="162" height="33" viewBox="0 0 162 33" fill="none" xmlns="http://www.w3.org/2000/svg">
<path d="M77.7023 4.16687C80.006 4.16687 81.6009 5.07554 82.0882 7.02918H80.3161C80.006 5.84791 79.2972 5.25727 78.1896 5.25727C76.1074 5.25727 75.753 7.25635 75.753 9.93693C75.753 12.6175 76.1517 14.6166 78.1896 14.6166C79.3858 14.6166 80.0503 13.8896 80.2275 12.5266H82.1325C81.7338 14.7075 80.0946 15.6616 77.7023 15.6616C74.4683 15.6616 72.962 13.1173 72.962 9.93693C72.9177 6.75658 74.4683 4.16687 77.7023 4.16687Z" fill="white"/>
<path d="M46.6467 15.39H47.6213V6.93938H47.7099L50.9439 14.1179H52.0515L55.2855 6.93938H55.4184V15.39H58.2094V4.48597H55.507L52.3173 11.3919L49.1719 4.48597H46.6467V15.39Z" fill="white"/>
<path d="M87.1824 5.39464H84.0813V4.48597H93.0746V5.39464H89.9735V15.39H87.1824V5.39464Z" fill="white"/>
<path d="M95.7323 15.39V4.48597H103.662V5.39464H98.5234V8.98389H101.89V9.938H98.5234V14.4813H103.662V15.39H95.7323Z" fill="white"/>
<path fill-rule="evenodd" clip-rule="evenodd" d="M106.897 4.48597H111.415C114.118 4.48597 115.491 6.21244 115.491 8.75672C115.491 11.8462 113.631 13.1183 111.504 13.1183H109.732V15.39H106.897V4.48597ZM109.732 12.1188V5.39464H110.928C112.257 5.39464 112.966 6.71221 112.966 8.75672C112.966 11.619 111.991 12.1188 110.928 12.1188H109.732Z" fill="white"/>
<path fill-rule="evenodd" clip-rule="evenodd" d="M65.0318 4.48597L60.5573 15.39H61.5762L62.5952 12.7549H67.7342L68.7974 15.39H71.5885L67.114 4.48597H65.0318ZM67.3798 11.8462L65.209 6.39418H65.1204L62.9939 11.8462H67.3798Z" fill="white"/>
<path d="M50.6152 29.7H58.5895V28.7913H53.4505V24.248H56.8174V23.2939H53.4505V19.7046H58.5895V18.7959H50.6595L50.6152 29.7Z" fill="white"/>
<path d="M86.8986 29.7H85.9239V18.7959H88.4491L91.5945 25.7018L94.7843 18.7959H97.4867V29.7H94.6514L94.6957 21.2494H94.5628L91.3287 28.4278H90.2212L86.9872 21.2494H86.8986V29.7Z" fill="white"/>
<path d="M101.563 29.7V18.7959H102.538V26.6559H102.627L108.962 18.7959H110.291V29.7H109.36L109.316 22.7032H109.228L103.335 29.7H101.563Z" fill="white"/>
<path fill-rule="evenodd" clip-rule="evenodd" d="M62.178 18.7959V29.7H64.969V27.4283H66.741C68.8675 27.4283 70.7282 26.1562 70.7282 23.0667C70.7282 20.5224 69.3992 18.7959 66.6967 18.7959H62.178ZM64.969 19.7046V26.4288H66.1651C67.1841 26.4288 68.203 25.929 68.203 23.0667C68.203 21.0222 67.4942 19.7046 66.1651 19.7046H64.969Z" fill="white"/>
<path d="M80.4311 29.7L79.8108 28.1098H82.5575L83.2221 29.7H80.4311Z" fill="white"/>
<path d="M76.6654 18.7959H78.7476L81.1842 24.6569H78.4818L76.8869 20.6587H76.7983L73.2542 29.7H72.2352L76.6654 18.7959Z" fill="white"/>
<path d="M37.9453 18.7959H40.7363V24.7477L44.9007 18.7959H46.1411L43.4387 22.6124L47.6031 29.7H44.7678L41.9768 24.7023L40.7363 26.4288V29.7H37.9453V18.7959Z" fill="white"/>
<path d="M117.025 18.7959H114.145L114.189 29.7H117.025V26.4288L118.265 24.7023L121.145 29.7H124.069L119.816 22.6124L122.562 18.7959H121.278L117.025 24.7477V18.7959Z" fill="white"/>
<path d="M84.2378 25.2933H77.5039V27.2924H84.2378V25.2933Z" fill="#D22630"/>
</svg>
