<svg width="56" height="56" viewBox="0 0 56 56" fill="none" xmlns="http://www.w3.org/2000/svg">
<path fill-rule="evenodd" clip-rule="evenodd" d="M42 26.4852V42H15V26.4852C15 19.141 21.0197 14 28.4557 14C35.9803 14 42 19.141 42 26.4852ZM22.4348 26.9226C23.8223 25.4351 25.1384 24.024 25.4469 22.2646C25.7125 20.704 25.5354 19.1433 24.9157 18.3171C24.7497 20.2108 23.8833 21.2167 22.6084 22.6969C22.5235 22.7954 22.4369 22.896 22.3485 22.9991C22.26 23.0909 22.1715 23.2056 22.083 23.3204C21.9944 23.4351 21.9059 23.5499 21.8174 23.6417L21.7816 23.684C19.9481 25.8569 19.1616 26.789 19.1616 30.8023C19.7813 29.7925 20.7551 28.6909 21.8174 27.5892C22.0227 27.3644 22.2296 27.1427 22.4348 26.9226ZM31.6121 35.4235C31.1634 35.8797 30.1357 36.9248 29.2534 38.422V38.3302H25.7125C26.0666 37.2286 27.1289 35.8515 28.8108 34.1072L28.8721 34.0458C31.5893 31.3189 33.864 29.0362 34.8305 26.1204C35.3616 24.5597 35.6272 22.4482 35.0961 20.245C35.0961 20.245 37.7518 22.6318 37.1321 27.222C36.7043 30.1502 34.457 32.4781 31.989 35.0345C31.9036 35.123 31.818 35.2117 31.7321 35.3007C31.6989 35.3352 31.6586 35.3762 31.6121 35.4235ZM38.3715 33.5564C37.6633 35.2089 37.1321 37.1368 36.9551 38.422H33.8567C34.742 36.4941 36.778 34.5663 38.3715 33.5564ZM31.5551 23.5499C31.7321 19.9695 30.0502 18.0417 29.0764 17.3072C29.6075 18.8679 29.6075 21.5302 28.9879 23.1827C28.0245 25.9982 26.1947 27.8253 23.8413 30.1752L23.7649 30.2515C23.2338 30.7105 22.7912 31.1695 22.26 31.7204C19.8698 34.1072 19.0731 35.8515 18.719 38.3302H21.9059C22.1715 36.6777 22.8797 35.3925 24.9157 33.281C25.0902 33.0398 25.3028 32.8382 25.5286 32.6242C25.6465 32.5124 25.768 32.3972 25.8895 32.2712C28.4567 29.7007 31.378 26.763 31.5551 23.5499Z" fill="#D22630"/>
</svg>
