<svg width="56" height="56" viewBox="0 0 56 56" fill="none" xmlns="http://www.w3.org/2000/svg">
<g clip-path="url(#clip0_4033_10065)">
<path d="M47.0539 15.3488C47.1685 15.2382 47.283 15.1237 47.3896 15.0131C47.5634 14.8275 47.7529 14.6459 47.9307 14.4721C48.1084 14.2983 48.2821 14.1285 48.4519 13.9548C48.6217 13.781 48.8192 13.5954 49.0048 13.4295L49.2892 13.1689L49.7315 12.7424C49.9131 12.5726 50.0908 12.4028 50.2804 12.2329C50.9201 11.6485 51.5757 11.0719 52.2234 10.523C52.3892 10.3808 52.5709 10.2386 52.7446 10.1044C52.9184 9.97009 53.1395 9.80818 53.3054 9.65416C53.4713 9.50014 53.6292 9.40142 53.807 9.25925L53.7556 9.33033C53.4436 9.72524 53.0724 10.1439 52.713 10.5348L52.3181 10.9653C52.1286 11.1746 51.9232 11.3918 51.7218 11.5971C51.6152 11.7117 51.4967 11.8222 51.3822 11.9328C51.2677 12.0434 51.1808 12.1303 51.0821 12.2329C50.9833 12.3356 50.8254 12.4975 50.6871 12.6279L50.5687 12.7424C50.3475 12.9596 50.0987 13.1768 49.8539 13.3861L49.6604 13.5559C49.5932 13.6151 49.5261 13.6744 49.4629 13.7376C49.3997 13.8007 49.3129 13.8797 49.2339 13.9429C49.0562 14.0851 48.8784 14.2351 48.7047 14.3813C48.5309 14.5274 48.3611 14.6735 48.1873 14.8117C47.7332 15.1671 47.279 15.5028 46.9315 15.7556C46.8209 15.8345 46.7104 15.9175 46.5958 15.9925C46.4181 16.1189 46.2325 16.2492 46.0588 16.3874L46.0153 16.419C46.2207 16.2137 46.4102 16.0044 46.5879 15.799C46.7657 15.5936 46.8881 15.4791 47.0421 15.3251L47.0539 15.3488ZM55.1615 8.16929C55.08 8.08758 54.9758 8.03223 54.8624 8.0104C54.7491 7.98857 54.6317 8.00128 54.5257 8.04687C54.3549 8.10792 54.1919 8.18877 54.04 8.28776C53.7082 8.50891 53.3607 8.73796 53.0369 8.99466C52.6025 9.33428 52.176 9.69365 51.7613 10.0412L51.5796 10.1912L51.394 10.3532C51.2519 10.4795 51.1018 10.6098 50.9636 10.7481C50.7543 10.9534 50.5173 11.1667 50.2488 11.3997C49.8539 11.7275 49.5301 12.0276 49.2497 12.304C49.1509 12.4028 49.0443 12.4975 48.9377 12.5963C48.7523 12.7509 48.5769 12.9171 48.4124 13.0939C48.2861 13.2321 48.1479 13.3624 47.9938 13.4888C47.7136 13.7892 47.4184 14.0752 47.1092 14.3457V14.3694C46.8989 14.6175 46.6748 14.8535 46.4379 15.0763C46.2483 15.2619 46.043 15.4712 45.8732 15.6568C45.7623 15.7952 45.6437 15.927 45.5177 16.0517C45.1939 16.3637 44.8977 16.6955 44.6094 17.0153C44.4357 17.2102 44.258 17.4037 44.0763 17.5959C43.7841 17.9078 43.4721 18.2396 43.1957 18.5713C43.1428 18.6356 43.0817 18.6927 43.014 18.7411C42.6941 19.0057 42.3505 19.2742 41.9003 19.6139C41.5054 19.8982 41.1461 20.2023 40.7827 20.4945C40.5458 20.688 40.3088 20.8894 40.0679 21.0711C39.752 21.3159 39.44 21.5766 39.1359 21.8333L38.6818 22.2203L38.1882 22.6152L37.3549 23.2984L37.1772 23.4485C36.8099 23.7565 36.4268 24.0764 36.0438 24.3805C35.4871 24.8458 34.9057 25.2809 34.3022 25.6837C34.1264 25.8111 33.9336 25.9134 33.7296 25.9878C33.7355 25.8186 33.7744 25.6523 33.8441 25.4981L33.9192 25.3322C34.006 25.1308 34.0929 24.9373 34.1956 24.7438C34.2983 24.5503 34.3851 24.3963 34.4799 24.2225C34.5747 24.0487 34.6734 23.8789 34.7643 23.7091C34.8959 23.4734 35.0119 23.2293 35.1118 22.9785C35.1577 22.895 35.1767 22.7993 35.1661 22.7045C35.1555 22.6098 35.1158 22.5207 35.0525 22.4493C34.9529 22.3684 34.8316 22.3185 34.7038 22.3059C34.5761 22.2933 34.4474 22.3184 34.3338 22.3783C34.0911 22.4821 33.8618 22.6147 33.6506 22.7732C33.1965 23.0891 32.7186 23.4564 32.1815 23.8908C31.4904 24.4515 30.9178 24.9175 30.3373 25.4191L29.9424 25.7785C29.6067 26.0667 29.2592 26.3669 28.9235 26.671C28.4062 27.1488 27.8888 27.6385 27.3873 28.1124L26.9529 28.5073C26.633 28.8114 26.3013 29.1234 25.9775 29.4511L24.7927 30.6161C24.2596 31.1493 23.683 31.6942 22.9682 32.338C22.6286 32.6499 22.2653 32.9501 21.8901 33.2344C21.6862 33.3812 21.4662 33.5044 21.2346 33.6017H21.2069C21.2036 33.5073 21.2198 33.4132 21.2543 33.3252L21.2859 33.2423C21.3728 33.0093 21.4636 32.7645 21.5623 32.5275C21.6622 32.2772 21.7824 32.0355 21.9217 31.8048C22.1665 31.4099 22.4667 30.936 22.8024 30.4661L22.9011 30.3239C23.296 29.7631 23.6909 29.1865 24.1372 28.6218L25.0613 27.3936C25.1679 27.2396 25.2864 27.0777 25.4167 26.9237C25.6497 26.6512 25.8906 26.3511 26.171 25.972C26.4513 25.5928 26.7199 25.2611 27.0042 24.9215C27.2017 24.6806 27.3991 24.4357 27.5768 24.1988L27.8256 23.8789C27.9955 23.6696 28.1495 23.484 28.3153 23.251L28.6313 22.8561L28.8011 22.6389C29.0301 22.3427 29.2552 22.0505 29.4882 21.7582C29.5593 21.6714 29.6185 21.5845 29.6778 21.5015C29.7793 21.3561 29.8888 21.2164 30.0056 21.0829C30.1722 20.8905 30.3278 20.6888 30.4716 20.4787L30.6019 20.301C30.7283 20.1233 30.8586 19.9495 30.9968 19.7718C31.1943 19.5033 31.3917 19.2268 31.5971 18.9307L31.7274 18.7332C32.0038 18.3185 32.2882 17.8881 32.5172 17.4695C32.7369 17.1645 32.8482 16.7946 32.8331 16.419C32.8266 16.3378 32.7979 16.26 32.7502 16.1939C32.7034 16.1333 32.6442 16.0835 32.5764 16.0478C32.4025 15.9878 32.2181 15.9643 32.0347 15.9785C31.8513 15.9928 31.6727 16.0446 31.5102 16.1307C30.9069 16.3932 30.3303 16.7133 29.7884 17.0864C29.3934 17.3668 28.959 17.659 28.5602 17.9434L28.4141 18.0461C28.1218 18.2514 27.8414 18.4805 27.569 18.6977C27.2965 18.9149 27.0832 19.0926 26.8305 19.2742C26.6686 19.3927 26.5224 19.527 26.3803 19.6691C26.2553 19.7886 26.1234 19.9007 25.9854 20.0048L25.859 20.0957C25.7839 20.1509 25.7089 20.2023 25.626 20.2734C25.4094 20.4828 25.1785 20.6767 24.9349 20.8539C24.9043 20.8754 24.8764 20.9006 24.852 20.9289C24.6988 21.1088 24.5206 21.2658 24.3228 21.3949C24.276 21.4291 24.2324 21.4674 24.1924 21.5094L23.9555 21.7266C23.8489 21.8293 23.7343 21.9359 23.6159 22.0347L23.5487 22.09C23.4184 22.2045 23.2802 22.319 23.1538 22.4414L22.9011 22.6744C22.751 22.8166 22.5891 22.9627 22.4351 23.1167C22.3561 23.1957 22.2732 23.2668 22.1902 23.3418C22.0117 23.4836 21.8512 23.6467 21.7124 23.8276L21.6729 23.8552C21.5651 23.9357 21.4647 24.0256 21.3728 24.1238C21.1793 24.3291 20.9779 24.5187 20.7567 24.7161C20.5356 24.9136 20.4487 24.9965 20.3026 25.1426C20.2354 25.2058 20.1722 25.2769 20.1051 25.344C20.0163 25.4447 19.9214 25.5396 19.8208 25.6284C19.6824 25.7532 19.5506 25.885 19.4258 26.0233C19.2904 26.1798 19.1425 26.3251 18.9835 26.4577C18.9585 26.476 18.9371 26.4988 18.9204 26.5248C18.7663 26.667 18.6321 26.821 18.4978 26.9671C18.3635 27.1133 18.2095 27.2831 18.0555 27.4252C17.8225 27.6424 17.6093 27.8715 17.3999 28.0966C17.1906 28.3217 17.0643 28.452 16.8905 28.6258C16.7167 28.7995 16.5667 28.9338 16.4245 29.0878L16.3969 29.1194L15.8282 29.7236C15.7532 29.8066 15.6702 29.8855 15.5912 29.9645C15.4349 30.1181 15.2872 30.2802 15.1489 30.4503C15.11 30.5054 15.0678 30.5581 15.0226 30.6082C14.7932 30.8258 14.5782 31.058 14.3789 31.3033C14.2762 31.427 14.1696 31.5455 14.059 31.6587C13.9208 31.8048 13.7865 31.9588 13.6641 32.1089L13.4469 32.3577C13.36 32.4525 13.2771 32.5473 13.1862 32.642C13.0046 32.8395 12.815 33.0369 12.6412 33.2541L12.4004 33.5187C12.2484 33.6746 12.106 33.8395 11.9738 34.0124C11.8277 34.1901 11.6698 34.3678 11.5157 34.5416C11.3617 34.7153 11.1643 34.9365 11.0024 35.1418C10.7062 35.5367 10.3863 35.8922 10.0783 36.2555L9.64781 36.761C9.28054 37.1954 8.90143 37.6495 8.49467 38.1432L8.3525 38.3051C8.26167 38.4038 8.17084 38.5104 8.0879 38.621C8.00497 38.7316 6.84393 39.9677 5.93168 40.9352C5.11816 41.804 4.41127 42.5543 4.30069 42.6886C4.19012 42.8229 3.44373 43.589 2.72104 44.3354C1.66662 45.4214 0.967628 46.1441 0.857053 46.2863L0.762274 46.3811C0.695338 46.4336 0.63559 46.4946 0.584563 46.5627C0.498146 46.6851 0.403127 46.8013 0.300226 46.9102C0.173001 47.0455 0.0567899 47.1908 -0.0472975 47.3446C-0.0966805 47.4112 -0.130482 47.4879 -0.146204 47.5693C-0.161926 47.6506 -0.159165 47.7345 -0.138127 47.8146V47.8501C-0.0907379 47.9449 0.0237868 48.0436 0.296277 47.9883H0.335768C0.498015 47.9519 0.647006 47.8713 0.766223 47.7553C0.955948 47.5665 1.12416 47.3573 1.26776 47.1314C1.47707 46.8194 1.66267 46.5469 4.7351 43.4034C4.81803 43.3126 4.89701 43.2178 4.97994 43.1112C5.06287 43.0045 6.16468 41.8001 7.11642 40.7891C7.98918 39.8531 8.74741 39.0436 8.86983 38.8896C9.09098 38.6131 9.32398 38.3327 9.55698 38.0642L9.86896 37.693L10.0585 37.4718C10.1928 37.3178 10.3271 37.1598 10.4534 36.994C10.6746 36.7017 10.9155 36.4016 11.1801 36.1015C11.3657 35.8882 11.5473 35.6671 11.7251 35.4538C11.9028 35.2406 12.1792 34.9009 12.424 34.6363C12.6689 34.3718 12.819 34.1703 13.0164 33.9413C13.2139 33.7122 13.3797 33.5108 13.5693 33.2976C13.7589 33.0843 13.9129 32.9027 14.0866 32.7289L14.7777 31.9628L15.2398 31.4494L15.6347 30.9992L16.0296 30.5806L16.4245 30.162C16.6852 29.8737 16.9655 29.5854 17.238 29.309C17.392 29.155 17.5461 28.997 17.6961 28.839L18.4623 28.0492L18.8572 27.6543L19.1218 27.3778C19.3587 27.133 19.5996 26.8803 19.8445 26.6433L20.7054 25.8021C21.1003 25.4072 21.5426 24.9847 21.9691 24.5819C22.0994 24.4634 22.2218 24.341 22.364 24.2185C22.5812 24.0132 22.8024 23.796 23.0393 23.5867C23.3987 23.2708 23.762 22.9351 24.1609 22.5639C24.5597 22.1926 24.9507 21.853 25.3653 21.5094L25.8511 21.0869C26.1394 20.842 26.4356 20.6011 26.7199 20.3681L27.1148 20.0404C27.336 19.8548 27.5729 19.677 27.798 19.5033C28.0231 19.3295 28.2956 19.1281 28.5325 18.9228L28.6234 18.8596L28.6945 18.8082C28.809 18.7174 28.9354 18.6345 29.0538 18.5515C29.1723 18.4686 29.2987 18.3857 29.4171 18.2949C29.6623 18.1066 29.9181 17.9325 30.1833 17.7736C30.5462 17.5302 30.9234 17.3086 31.3127 17.1101C31.4723 17.0364 31.639 16.9795 31.8103 16.9403C31.8159 16.9783 31.8159 17.0169 31.8103 17.0548C31.7993 17.1196 31.7751 17.1814 31.7392 17.2365V17.2562C31.539 17.6569 31.3162 18.0459 31.0718 18.4212C30.827 18.7569 30.6058 19.0768 30.4202 19.369C30.2346 19.6613 29.974 19.989 29.741 20.2892C29.6067 20.459 29.4764 20.6288 29.3461 20.8025C29.0538 21.1975 28.7497 21.5924 28.4338 21.9873L28.3548 22.09C28.1692 22.3309 27.9599 22.5797 27.7862 22.8166L27.2096 23.5314C27.0398 23.7407 26.8739 23.95 26.7041 24.1554C26.2618 24.7003 25.7879 25.2809 25.3337 25.8653C24.8796 26.4498 24.3662 27.0896 23.8607 27.7451C23.4658 28.2506 23.0709 28.7442 22.7115 29.2576C22.2021 29.9527 21.7479 30.5845 21.3254 31.2322C21.0398 31.6947 20.789 32.1779 20.575 32.6776C20.4885 32.8534 20.412 33.0341 20.346 33.2186C20.2723 33.4558 20.2194 33.6989 20.188 33.9452C20.1687 34.0394 20.1711 34.1367 20.1951 34.2298C20.219 34.3228 20.2639 34.4092 20.3263 34.4823C20.4109 34.5398 20.5076 34.5771 20.6089 34.5915C20.7102 34.6059 20.8134 34.5969 20.9107 34.5653C21.3409 34.456 21.7441 34.2598 22.0955 33.9887C22.4389 33.7455 22.7673 33.4817 23.0788 33.1989L23.1183 33.1633C23.2802 33.0133 23.4342 32.8711 23.6001 32.7368C23.9002 32.488 24.1845 32.2195 24.4531 31.947L24.7967 31.6232C24.9151 31.5205 25.0257 31.406 25.1323 31.2954C25.239 31.1848 25.3535 31.0663 25.468 30.9676C25.6892 30.7701 25.8945 30.5727 26.088 30.3634C26.2144 30.2331 26.3408 30.1027 26.4829 29.9685C26.6251 29.8342 26.7357 29.7236 26.8779 29.6012C27.02 29.4788 27.0872 29.3287 27.2609 29.1944L27.3636 29.0997C27.5808 28.9022 27.802 28.7048 28.0152 28.4876C28.2285 28.2703 28.5562 27.9702 28.8248 27.7254L28.9985 27.5635C29.1407 27.4331 29.2908 27.3028 29.4369 27.1685C29.583 27.0343 29.8318 26.8408 30.0056 26.6631C30.1122 26.5604 30.2307 26.4577 30.3491 26.3629C30.4676 26.2681 30.515 26.2247 30.59 26.1536L30.8704 25.9206C30.9652 25.8456 31.06 25.7666 31.1548 25.6797C31.3799 25.4704 31.6247 25.2848 31.8617 25.0834L32.2566 24.7556L32.9437 24.2067C33.2004 23.9895 33.4374 23.8118 33.6704 23.642L33.8639 23.5156L33.7809 23.6538C33.7335 23.7328 33.6822 23.8157 33.6388 23.8987C33.5953 23.9816 33.5756 24.0092 33.544 24.0685C33.48 24.1628 33.4258 24.2634 33.3821 24.3686V24.4081C33.3716 24.4501 33.3542 24.4902 33.3307 24.5266C33.212 24.698 33.1102 24.8805 33.0266 25.0716C32.9078 25.2848 32.8149 25.5115 32.7502 25.7469C32.6434 26.0249 32.6174 26.3274 32.6752 26.6196V26.6433C32.7058 26.7208 32.7545 26.7899 32.8173 26.8447C32.8792 26.8941 32.9504 26.9303 33.0266 26.9513C33.1047 26.9746 33.1862 26.984 33.2675 26.979C33.3463 26.9728 33.4237 26.9541 33.4966 26.9237C33.6721 26.8683 33.8436 26.801 34.01 26.7223C34.5044 26.4886 34.9653 26.1898 35.3803 25.8337C35.403 25.8134 35.4282 25.7961 35.4554 25.7824C35.6845 25.636 35.9012 25.4709 36.103 25.2888C36.3084 25.1071 36.5216 24.9294 36.7309 24.7596C37.0074 24.5384 37.2878 24.3054 37.5602 24.0566C37.6195 24.0013 37.6827 23.95 37.7459 23.8987L37.892 23.7802C38.1663 23.5271 38.4537 23.2885 38.7529 23.0654C38.9214 22.9421 39.0836 22.8103 39.2386 22.6705C39.3847 22.5441 39.519 22.4256 39.677 22.3111C39.7639 22.24 39.8468 22.165 39.9297 22.09L40.1311 21.9123L40.605 21.5173L40.4865 21.6674C40.3404 21.8491 40.1904 22.0386 40.0285 22.2203C39.8665 22.4019 39.7046 22.6152 39.5427 22.7969L39.1952 23.1918C38.8003 23.6736 38.3777 24.1672 38.0104 24.649L37.5365 25.2295C37.4304 25.3673 37.2957 25.4805 37.1416 25.5612C37.0074 25.6323 36.881 25.7192 36.7467 25.7982C36.6125 25.8772 36.5137 25.9483 36.3992 26.0114C36.3002 26.0637 36.2052 26.1231 36.1149 26.1892C36.0201 26.2484 35.9332 26.3076 35.8463 26.355C35.6528 26.4538 35.4514 26.5801 35.2776 26.6946C35.1039 26.8092 34.9894 26.8803 34.8551 26.9592C34.7894 26.9932 34.7295 27.0371 34.6774 27.0896C34.6257 27.1486 34.5607 27.1947 34.4878 27.2238C34.0929 27.445 33.6585 27.6977 33.2478 27.9742L33.1767 28.0216C32.8371 28.2427 32.5172 28.456 32.1697 28.6653C32.0236 28.7561 31.8853 28.8588 31.7511 28.9535C31.5441 29.1055 31.3233 29.2377 31.0916 29.3485H31.0679L31.0205 29.3801L30.5663 29.7236L30.0727 30.0633C29.9989 30.1179 29.921 30.1668 29.8397 30.2094C29.7 30.2802 29.5677 30.3649 29.4448 30.4621C29.3191 30.5698 29.1873 30.67 29.0499 30.7622C28.8391 30.8832 28.6348 31.015 28.4378 31.1572C28.0705 31.3941 27.6953 31.6469 27.3399 31.8917L26.945 32.1484L26.8779 32.1839C26.6045 32.3405 26.3408 32.5132 26.088 32.7013C25.6576 32.9935 25.2311 33.266 24.8006 33.5385C24.5953 33.6609 24.4057 33.7952 24.2043 33.9334C24.0858 34.0163 23.9634 34.0993 23.837 34.1782C23.7107 34.2572 23.6909 34.2691 23.6159 34.3125C23.5408 34.356 23.3868 34.4468 23.2762 34.5258C22.8497 34.8259 22.4074 35.1181 21.9809 35.4025C21.5544 35.6868 21.2267 35.9001 20.8515 36.1607C20.5869 36.3463 20.3223 36.524 20.0617 36.7017C19.7062 36.9347 19.339 37.1796 18.9638 37.4481C18.5886 37.7167 18.1503 38.0247 17.7435 38.309L16.9892 38.8066C16.4719 39.1699 15.9585 39.553 15.457 39.9203C14.9554 40.2875 14.5447 40.5877 14.0827 40.9155C13.9326 41.0221 13.7904 41.1327 13.6404 41.2472C13.4903 41.3617 13.2455 41.5552 13.0362 41.6895C12.801 41.8183 12.6232 42.0313 12.5386 42.2858C12.5229 42.3322 12.518 42.3815 12.5241 42.4301C12.5303 42.4786 12.5474 42.5252 12.5741 42.5662C12.6091 42.6018 12.6521 42.6286 12.6994 42.6444C12.7468 42.6602 12.7972 42.6645 12.8466 42.657H12.8703C13.1557 42.6269 13.4282 42.522 13.6601 42.3529C13.9862 42.1222 14.2891 41.8603 14.5645 41.571C14.6872 41.4644 14.8193 41.3692 14.9594 41.2867C15.0175 41.2558 15.073 41.2201 15.1252 41.18C15.2516 41.0655 15.3938 40.9549 15.5202 40.8483L15.8006 40.6272C16.0375 40.4258 16.306 40.2323 16.5904 40.023C16.9853 39.7426 17.3565 39.474 17.7001 39.2015C17.8028 39.1226 17.9173 39.0554 18.0358 38.9804C18.1611 38.9052 18.2823 38.8234 18.3991 38.7355C18.7071 38.4986 19.0309 38.2774 19.339 38.0642C19.647 37.8509 19.8761 37.6969 20.1288 37.5034C20.2512 37.4126 20.3815 37.3336 20.5237 37.2507C20.6659 37.1677 20.7449 37.1164 20.8515 37.0414L21.0529 36.9071C21.3017 36.7373 21.5505 36.5675 21.7953 36.3937C22.0402 36.2199 22.2732 36.0659 22.5062 35.908C22.7392 35.75 23.0669 35.513 23.3434 35.3314C23.525 35.1971 23.7383 35.0707 23.9239 34.9365L24.0266 34.8733C24.228 34.7509 24.4215 34.6166 24.619 34.4784L24.9823 34.2375L25.4641 33.9216C25.7484 33.732 26.0446 33.5266 26.3368 33.3608H26.3605C26.4855 33.2582 26.6174 33.1645 26.7554 33.0804C26.8746 33.0239 26.9883 32.9564 27.0951 32.879L27.4663 32.6223C27.6993 32.4643 27.9283 32.3024 28.1653 32.1484C28.4022 31.9944 28.6273 31.8483 28.8603 31.6942L29.2552 31.4454L31.4312 30.0475C31.7392 29.85 32.0433 29.6525 32.3474 29.4472C32.9398 29.0523 33.5519 28.6574 34.16 28.2625L34.705 27.9189L35.2184 27.5911C35.4475 27.4331 35.6844 27.2752 35.9135 27.1291C35.7594 27.3265 35.6015 27.524 35.4435 27.7175C35.2105 28.0097 34.9854 28.2822 34.784 28.5507C34.5826 28.8193 34.4523 28.9812 34.2825 29.1984C34.1127 29.4156 33.8876 29.696 33.7098 29.9369L33.3149 30.4503C33.1017 30.7267 32.8845 31.015 32.6673 31.3151C32.6238 31.3862 32.5764 31.4612 32.533 31.5205C32.1467 31.9674 31.7854 32.4355 31.4509 32.9224C31.0363 33.5069 30.6414 34.0914 30.2228 34.6561L29.9937 34.9799C29.7133 35.3748 29.4369 35.7697 29.1368 36.2239C29.0815 36.3029 29.0301 36.3858 28.9788 36.4648C28.8603 36.6425 28.7537 36.8084 28.6273 36.9663C28.5676 37.0398 28.5135 37.1177 28.4654 37.1993C28.4378 37.2428 28.4101 37.2941 28.3746 37.3454L27.877 38.0918L28.6313 37.6219C28.7358 37.5563 28.8247 37.4687 28.8919 37.3652L29.0064 37.4007L29.0815 37.2704L29.1289 37.2033C29.1795 37.1455 29.2184 37.0784 29.2434 37.0058C29.2516 36.9956 29.2608 36.9864 29.271 36.9782C29.3153 36.9365 29.3515 36.887 29.3777 36.8321C29.4682 36.7594 29.5433 36.6694 29.5988 36.5675C29.6271 36.514 29.6646 36.4659 29.7094 36.4253L29.741 36.3977V36.3621C29.8331 36.1942 29.943 36.0367 30.0688 35.8922C30.1982 35.739 30.3145 35.5752 30.4163 35.4025C30.586 35.2206 30.7406 35.0251 30.8783 34.818C31.0876 34.5218 31.3048 34.2296 31.5141 33.9413C31.7109 33.6879 31.8942 33.4243 32.0631 33.1515C32.1678 32.9757 32.2909 32.8115 32.4303 32.6618C32.7348 32.3119 33.0196 31.9454 33.2833 31.5639C33.54 31.1888 33.8244 30.8294 34.1127 30.4661L34.2904 30.2331C34.3825 30.1093 34.4773 29.9869 34.5747 29.8658C34.6695 29.7513 34.7524 29.6367 34.8314 29.5301C34.9391 29.3731 35.0579 29.224 35.1868 29.0839C35.2382 29.0246 35.2776 28.9733 35.3132 28.9259C35.4593 28.7127 35.6252 28.4915 35.8029 28.2743C36.0517 27.9742 36.2965 27.674 36.5295 27.3778C36.7625 27.0817 37.0942 26.6631 37.3983 26.3116C37.4869 26.207 37.5907 26.1165 37.7064 26.043L37.8209 25.9759C38.0539 25.8337 38.2987 25.6876 38.5357 25.5257C38.7068 25.4049 38.8848 25.2941 39.0688 25.194C39.3571 25.0439 39.6375 24.8701 39.91 24.7003L40.3049 24.4515C40.455 24.3647 40.6011 24.2659 40.7472 24.1712C40.9604 24.0329 41.1816 23.8908 41.4027 23.7762C41.6239 23.6617 41.7621 23.5748 41.9359 23.4603C42.2637 23.251 42.5993 23.0654 42.9271 22.8758C43.1088 22.7732 43.2904 22.6705 43.4721 22.5599L43.7604 22.394C43.9815 22.2716 44.2106 22.1374 44.4317 21.9991C44.4974 21.9538 44.5675 21.9155 44.641 21.8846C44.953 21.7345 45.2689 21.5647 45.5651 21.387C45.7033 21.312 45.8455 21.2251 45.96 21.1461L46.2404 20.9803L46.3905 20.8973L47.2119 20.4471C47.3436 20.3699 47.4809 20.3025 47.6226 20.2457C48.0168 20.06 48.3993 19.8503 48.7679 19.6178C49.0877 19.4204 49.4353 19.2229 49.8262 19.0294C49.9452 18.9672 50.06 18.8973 50.1698 18.8201C50.3752 18.6819 50.3238 18.5318 50.2922 18.4726L50.2251 18.3541L50.0908 18.3817C49.7988 18.4384 49.5185 18.5439 49.2615 18.6937C49.068 18.8043 48.8666 18.8951 48.6257 19.0136C48.3137 19.1676 48.0057 19.3295 47.6977 19.4914L47.1369 19.7837C47.0026 19.8508 46.8683 19.9298 46.742 20.0048C46.6156 20.0799 46.4616 20.1667 46.3155 20.2418C46.1693 20.3168 45.8771 20.4629 45.6283 20.609L45.5809 20.6327C45.1623 20.8736 44.7319 21.1224 44.3014 21.3436C44.0605 21.47 43.8236 21.6042 43.5985 21.7385C43.3734 21.8728 43.2667 21.932 43.1009 22.0189C42.935 22.1058 42.8679 22.1532 42.7494 22.2203C42.6309 22.2874 42.5401 22.3506 42.4295 22.4098L42.2755 22.4849C42.1886 22.5283 42.0978 22.5718 42.007 22.627C41.7898 22.7534 41.612 22.8798 41.3869 23.022C41.1618 23.1641 41.0592 23.2194 40.8973 23.3142L40.7077 23.4248C40.2851 23.6578 39.8823 23.8947 39.5664 24.1001C39.4084 24.2027 39.2426 24.2975 39.0807 24.3923L39.0175 24.4318C39.1557 24.262 39.2979 24.0922 39.4519 23.9342C39.553 23.8353 39.6442 23.7269 39.7244 23.6104C39.8112 23.484 39.9139 23.3655 40.0205 23.2392C40.1128 23.1398 40.1998 23.0356 40.2812 22.9272C40.4471 22.7179 40.6287 22.5125 40.8025 22.3111C40.8854 22.2124 40.9723 22.1176 41.0513 22.0189L41.77 21.1856L41.924 21.0119C42.0425 20.8776 42.1649 20.7394 42.2913 20.6169L42.6546 20.2023C42.9263 19.8641 43.2291 19.5521 43.559 19.2703C43.7367 19.1281 43.9223 18.9938 44.1 18.8754C44.2777 18.7569 44.562 18.5318 44.7753 18.3659C44.9886 18.2001 45.2887 17.971 45.5651 17.7657L45.6718 17.6906C46.1733 17.3431 46.6946 16.9837 47.1803 16.5967L47.2672 16.5375C47.5779 16.3455 47.8736 16.1303 48.1518 15.8938L48.3967 15.7003C48.7086 15.4554 49.0285 15.2027 49.3405 14.946C49.8894 14.48 50.462 13.9982 50.9991 13.5046C51.0544 13.4572 51.1018 13.4058 51.1531 13.3545L51.2637 13.24C51.5086 13.0188 51.7376 12.7819 51.9588 12.5568C52.0733 12.4343 52.1918 12.3159 52.3102 12.1974C52.4287 12.0789 52.5037 11.996 52.6025 11.8894C52.7012 11.7827 52.8236 11.6485 52.9421 11.5379C53.1553 11.3325 53.337 11.1193 53.5345 10.91L53.7438 10.6809C53.882 10.5348 54.0163 10.3808 54.1387 10.2307L54.4033 9.92665C54.5415 9.77263 54.656 9.63047 54.7429 9.51199C54.9145 9.27725 55.0689 9.03045 55.2049 8.77351C55.2544 8.68754 55.2764 8.58847 55.268 8.48963C55.2595 8.39079 55.221 8.29692 55.1576 8.22063L55.1615 8.16929Z" fill="white"/>
</g>
<defs>
<clipPath id="clip0_4033_10065">
<rect width="56" height="56" fill="white"/>
</clipPath>
</defs>
</svg>
