<svg width="91" height="20" viewBox="0 0 91 20" fill="none" xmlns="http://www.w3.org/2000/svg">
<path d="M22.0725 7.9323C22.0725 8.78101 22.0623 9.62971 22.0828 10.4784C22.093 10.733 22.0214 10.8333 21.6433 10.8333C20.4272 10.8256 20.4272 10.841 20.4272 9.91519C20.4272 8.40295 20.4374 6.88299 20.417 5.37075C20.417 5.093 20.4987 4.99269 20.8871 5.00041C22.0725 5.01584 22.0828 5.00041 22.0828 5.90312C22.0725 6.57437 22.0725 7.25334 22.0725 7.9323Z" fill="#ED2A2C"/>
<path fill-rule="evenodd" clip-rule="evenodd" d="M88.1671 0.116115C88.1947 0.155636 88.2222 0.195019 88.2574 0.215671C88.4045 0.294153 88.3089 0.366549 88.2139 0.438523C88.2068 0.443883 88.1997 0.449242 88.1927 0.4546C87.872 0.851577 87.4618 1.14938 87.0491 1.449C87.0089 1.47821 86.9685 1.50747 86.9283 1.53681C84.9024 3.0266 82.7184 4.26341 80.362 5.17696C78.53 5.88673 76.9926 7.01812 75.4768 8.20574C75.4407 8.23384 75.4047 8.2619 75.3686 8.28995L75.3036 8.3406C74.8658 8.68122 74.4293 9.02084 74.004 9.39336C74.4474 9.25085 74.8905 9.10743 75.3336 8.96401C77.9271 8.12454 80.5216 7.28476 83.1782 6.6246C83.1967 6.75129 83.1358 6.76922 83.0818 6.78509C83.0729 6.78771 83.0642 6.79027 83.0561 6.79325C81.7701 7.19381 80.477 7.59437 79.191 7.9879C77.7613 8.42359 76.3532 8.90848 74.9523 9.41444C74.8956 9.43476 74.8391 9.45533 74.7827 9.47587C74.5465 9.56187 74.3122 9.6472 74.0687 9.70959C73.1037 9.94987 72.4005 10.5674 71.6995 11.183C71.5395 11.3236 71.3795 11.4641 71.2165 11.5999C69.9546 12.6552 68.7142 13.7316 67.4725 14.8092C66.9663 15.2484 66.4598 15.688 65.9516 16.1263L65.9724 16.1466C65.7425 16.3926 65.491 16.6104 65.139 16.7088C65.2197 16.6389 65.2996 16.5691 65.3792 16.4994C65.5349 16.3633 65.6895 16.2281 65.8467 16.0955C65.8458 16.0838 65.8469 16.0704 65.85 16.0553C66.7624 15.1417 67.7322 14.2914 68.7093 13.4481C69.9018 12.4221 71.0944 11.4032 72.3373 10.4123C72.2599 10.342 72.2038 10.3716 72.1526 10.3986C72.1372 10.4066 72.1223 10.4145 72.1074 10.4194C70.499 11.022 68.8998 11.6427 67.2998 12.2637C66.4556 12.5914 65.6113 12.9191 64.7652 13.2443C62.2291 14.2211 59.7075 15.2331 57.2074 16.2872C56.2016 16.7088 55.203 17.1726 54.2403 17.6926C54.2311 17.6975 54.2219 17.7024 54.2126 17.7072C54.2009 17.7134 54.1891 17.7196 54.1774 17.7258C53.9038 17.8703 53.6264 18.0169 53.3064 18.0299C53.2913 18.0299 53.2756 18.0312 53.2599 18.0324C53.2006 18.0371 53.1408 18.0418 53.1124 17.9808C53.0765 17.9035 53.134 17.8472 53.1915 17.8051C53.2705 17.7418 53.3639 17.6786 53.4573 17.6364C57.6678 15.6852 62.0054 14.0103 66.3371 12.3378L66.4463 12.2956C66.7086 12.1944 66.9707 12.093 67.2328 11.9916L67.2403 11.9887C69.157 11.2473 71.0673 10.5083 73.0054 9.82906C73.2007 9.76318 73.3581 9.63556 73.5132 9.50986L73.5442 9.48472C74.0579 9.08063 74.5716 8.67831 75.0853 8.27598C75.5989 7.87368 76.1126 7.47138 76.6262 7.06732C76.7699 7.00407 76.8992 6.92677 76.9352 6.74406C76.8705 6.78271 76.8041 6.82311 76.7376 6.86351C76.6711 6.90393 76.6047 6.94434 76.54 6.98299C75.6321 7.42492 74.7428 7.9009 73.8527 8.37735C73.285 8.68126 72.7169 8.98535 72.1433 9.28093C72.1096 9.29825 72.0759 9.31562 72.0422 9.333C71.5153 9.60472 70.9846 9.8784 70.3904 9.99068C70.3627 9.99569 70.3345 10.0017 70.306 10.0078C70.1345 10.0443 69.9522 10.0831 69.8228 9.92041C69.6767 9.73204 69.7823 9.54366 69.8785 9.37193L69.8863 9.35807C69.8916 9.3487 69.8967 9.33938 69.9018 9.33012C70.1028 8.9583 70.3817 8.64671 70.661 8.33465C70.7512 8.23387 70.8415 8.13299 70.9292 8.03006C70.9455 8.01046 70.9624 7.99107 70.9796 7.97141C71.0609 7.8783 71.1475 7.77913 71.195 7.62248C70.895 7.68769 70.6569 7.8013 70.4232 7.9128L70.3898 7.9287L70.3688 7.9387C67.9765 9.10524 65.6991 10.4685 63.472 11.9021C62.6961 12.4011 61.8915 12.8649 61.0581 13.2795C60.7851 13.42 60.4906 13.5184 60.1745 13.5465C59.7147 13.5816 59.6141 13.4622 59.7865 13.0546C60.0523 12.4292 60.4978 11.9162 60.9791 11.4453C62.2794 10.1601 63.7035 9.00869 65.1273 7.85759L65.3399 7.68572C65.4686 7.58126 65.5973 7.47691 65.726 7.37257L65.7278 7.37108C67.0357 6.31087 68.3417 5.2522 69.5642 4.09476C69.8587 3.81366 70.1317 3.51852 70.3832 3.20931L70.3857 3.20639C70.4714 3.1087 70.5691 2.99717 70.4838 2.86497C70.4156 2.75594 70.2995 2.78266 70.1997 2.80562C70.1837 2.80929 70.1682 2.81287 70.1533 2.81578C69.2696 2.99849 68.4506 3.37797 67.646 3.75744C63.8384 5.56347 60.3182 7.84735 56.8769 10.2437C56.6686 10.3912 56.5824 10.5388 56.5896 10.7918C56.6013 11.2211 56.6003 11.6482 56.5992 12.0756C56.5983 12.4318 56.5974 12.7882 56.6039 13.146C56.6111 13.3708 56.5393 13.42 56.3238 13.42L56.3027 13.4202C55.8716 13.4236 55.6542 13.4253 55.5445 13.3201C55.4329 13.213 55.4329 12.9952 55.4329 12.5557V11.2978C55.2365 11.4457 55.0443 11.5889 54.8557 11.7293L54.8549 11.7299L54.8541 11.7305C54.4432 12.0365 54.0494 12.3298 53.6656 12.633C53.534 12.7419 53.5843 12.8857 53.633 13.0251C53.6534 13.0835 53.6736 13.1412 53.68 13.1951C53.6943 13.3568 53.6872 13.4552 53.4932 13.42C52.8394 13.3006 52.3868 13.6168 51.8983 14.0033C50.0788 15.4454 48.164 16.7524 46.247 18.0609L46.2459 18.0616C45.8094 18.3596 45.3725 18.6578 44.9368 18.9576C44.6207 19.1684 44.3118 19.3933 44.046 19.6603C43.967 19.7376 43.8664 19.8079 43.7658 19.8711L43.7567 19.8769C43.6146 19.9674 43.44 20.0785 43.3204 19.9203C43.2226 19.7887 43.3538 19.6927 43.4659 19.6108C43.4855 19.5964 43.5045 19.5825 43.5216 19.5689C44.1695 19.0592 44.8573 18.6064 45.5449 18.1538C45.9094 17.9139 46.2739 17.6739 46.6323 17.4256C46.9745 17.1882 47.3175 16.9519 47.6606 16.7156C49.2265 15.637 50.7927 14.5583 52.2719 13.3708C52.4156 13.2514 52.4874 13.16 52.4443 12.9632C52.3078 12.3238 52.2 11.6772 52.0923 11.0307C52.0635 10.848 51.9989 10.7707 51.7977 10.7777C51.2086 10.7918 50.6267 10.7918 50.0376 10.7777C49.8364 10.7707 49.779 10.848 49.7502 11.0307C49.6892 11.3891 49.6245 11.7458 49.5599 12.1024C49.4952 12.459 49.4305 12.8157 49.3695 13.1741C49.3407 13.3568 49.2761 13.4341 49.0749 13.42C48.845 13.3989 48.6151 13.3989 48.3924 13.42C48.1482 13.4411 48.1194 13.3568 48.1625 13.1389C48.5792 10.9043 48.9815 8.66962 49.3838 6.43496C49.4319 6.17139 49.4804 5.90771 49.5289 5.64404L49.529 5.6431C49.6834 4.80361 49.8381 3.96249 49.9801 3.11796C50.0232 2.89308 50.0951 2.82984 50.325 2.83686C50.7417 2.85092 51.1655 2.85092 51.5822 2.83686C51.7618 2.82984 51.8265 2.88606 51.8552 3.06174C52.2144 5.07858 52.5808 7.09542 52.9544 9.11227C52.9975 9.32309 52.9256 9.33714 52.746 9.34417L52.7245 9.34449C51.8049 9.35828 51.8036 9.3583 51.6397 8.45873C51.5357 7.86614 51.43 7.27355 51.3242 6.68097L51.3236 6.67731C51.2176 6.0835 51.1116 5.48968 51.0075 4.89587L51.0061 4.88506C50.9999 4.83258 50.9938 4.78208 50.8997 4.76235C50.7883 5.37036 50.6787 5.97837 50.5691 6.58639C50.4596 7.1941 50.3501 7.80182 50.2388 8.40954C50.2172 8.52432 50.198 8.63988 50.1789 8.75544C50.1406 8.98656 50.1023 9.21768 50.0448 9.44255C49.9801 9.68148 50.0663 9.71662 50.2819 9.70959C50.6171 9.70373 50.9524 9.70398 51.2872 9.70422C51.7558 9.70456 52.2234 9.70491 52.6886 9.68851C53.0047 9.67445 53.0909 9.78689 53.134 10.068C53.2209 10.6368 53.3284 11.2096 53.4378 11.7925C53.4731 11.9802 53.5085 12.1689 53.5435 12.3589C53.8516 12.1381 54.149 11.9208 54.4428 11.7062C54.7379 11.4905 55.03 11.2771 55.3251 11.0659C55.462 10.9685 55.4588 10.8447 55.4555 10.7175C55.455 10.6978 55.4545 10.678 55.4545 10.6583C55.4545 10.1541 55.4549 9.64988 55.4554 9.1458C55.4567 7.63348 55.4581 6.12215 55.4473 4.61478C55.4473 4.34774 55.5048 4.25638 55.7993 4.26341L55.8417 4.26449C56.2274 4.27431 56.4216 4.27924 56.5193 4.37649C56.6183 4.47503 56.6183 4.66834 56.6183 5.0575V10.1172C56.8269 9.97501 57.0317 9.83509 57.234 9.69692L57.2407 9.69236L57.2414 9.69187C57.6563 9.40837 58.0605 9.13225 58.4646 8.85928C60.3325 7.59437 62.2292 6.37161 64.2048 5.26832C65.8141 4.36179 67.4377 3.49041 69.1619 2.81578C69.6217 2.6401 70.0815 2.47847 70.5772 2.42928C70.7568 2.4082 70.9579 2.40117 71.0657 2.57685C71.1806 2.75956 71.0729 2.93525 70.9723 3.06877C70.6634 3.49041 70.2826 3.8488 69.9018 4.20017C68.725 5.27761 67.492 6.29556 66.2595 7.3131C65.9647 7.55653 65.6698 7.79993 65.3758 8.04411C63.9677 9.21065 62.5668 10.3772 61.2665 11.6632C60.9216 12.0075 60.6558 12.4151 60.4044 12.8227C60.3982 12.8333 60.3915 12.8442 60.3845 12.8552L60.3785 12.8649C60.3227 12.954 60.2593 13.0552 60.3397 13.146C60.4179 13.2334 60.5135 13.1976 60.6029 13.1641C60.6284 13.1546 60.6534 13.1452 60.6774 13.1389C61.1012 13.0265 61.4748 12.8227 61.8412 12.5978C62.4159 12.2465 62.989 11.8928 63.5621 11.5391C64.7084 10.8317 65.8547 10.1242 67.0138 9.43553C68.2638 8.6836 69.5642 8.00898 70.9076 7.41166C71.0944 7.32733 71.2884 7.26408 71.4824 7.21489C71.6117 7.17975 71.7554 7.19381 71.8416 7.31327C71.9305 7.43372 71.8436 7.53505 71.773 7.61726L71.7625 7.6295C71.6525 7.76196 71.5414 7.89334 71.4304 8.02449C71.259 8.22713 71.0877 8.42973 70.922 8.63441C70.7496 8.84523 70.5915 9.06308 70.4478 9.29498C70.4429 9.30277 70.4378 9.31077 70.4325 9.31895C70.3759 9.40665 70.3056 9.51544 70.3976 9.61824C70.4679 9.69758 70.5504 9.66544 70.6267 9.6357C70.6518 9.62593 70.6762 9.61642 70.6993 9.61121C71.08 9.51283 71.4393 9.34417 71.7913 9.16849C73.1182 8.51298 74.4315 7.83602 75.7446 7.15914L75.7461 7.1584C76.558 6.73986 77.3702 6.32118 78.1852 5.90781C78.7758 5.60961 79.3128 5.20638 79.8505 4.80257C80.1237 4.59745 80.3974 4.39188 80.6781 4.20017C82.6394 2.86497 84.6581 1.62114 86.7918 0.545955C86.9466 0.467338 87.1076 0.404404 87.2681 0.341659C87.4949 0.252975 87.7208 0.164653 87.9269 0.0329602C88.0527 -0.0474911 88.1101 0.0346076 88.1671 0.116115ZM79.8663 5.03642C82.3233 3.30067 84.8521 1.67033 87.6539 0.475682C85.3622 2.4855 82.7328 3.96124 79.8663 5.03642Z" fill="#101820"/>
<path d="M34.4635 7.79507C34.4631 8.14952 34.4626 8.50418 34.4626 8.85928C34.4626 10.1031 34.4626 11.3399 34.4482 12.5697C34.4482 12.9952 34.4482 13.206 34.5563 13.3105C34.6624 13.4132 34.8727 13.4131 35.2898 13.413L35.3319 13.413C35.5833 13.413 35.6193 13.3287 35.6193 13.1108C35.6157 12.4994 35.6157 11.8898 35.6157 11.2811C35.6157 10.6723 35.6157 10.0645 35.6121 9.4566C35.6121 9.25281 35.648 9.15442 35.8851 9.17551C36.1365 9.19659 36.388 9.19659 36.6394 9.17551C36.8549 9.15442 36.9268 9.24578 36.9699 9.43552C37.1963 10.3784 37.4344 11.3156 37.6736 12.2573L37.753 12.5697C37.9667 13.406 37.9685 13.406 38.8514 13.406L38.8737 13.406C39.1395 13.406 39.1539 13.3357 39.0964 13.1108C38.921 12.4355 38.7514 11.7583 38.5816 11.0802L38.5812 11.0786C38.4243 10.4519 38.2671 9.82405 38.105 9.19659C38.0619 9.01388 38.0691 8.90144 38.2415 8.78198C38.6294 8.50791 38.809 8.10033 38.8737 7.64355C39.0246 6.56837 39.0389 5.50021 38.8881 4.42503C38.7372 3.34985 38.1409 2.85091 37.0202 2.83686C36.6277 2.83217 36.2384 2.83373 35.8481 2.83529C35.6525 2.83607 35.4567 2.83686 35.26 2.83686C34.8532 2.83686 34.652 2.83686 34.5517 2.93504C34.4535 3.03112 34.4518 3.22118 34.4486 3.59723L34.4482 3.63797C34.4482 3.86987 34.5273 3.90501 34.7356 3.90501L34.7409 3.90496C35.436 3.89795 36.1239 3.89101 36.819 3.91204C37.3363 3.92609 37.5949 4.12988 37.6667 4.60072C37.8104 5.55643 37.8032 6.51215 37.6667 7.46787C37.6093 7.90356 37.3506 8.0933 36.9052 8.11438C36.7492 8.12087 36.5932 8.11837 36.4378 8.11587C36.257 8.11296 36.0772 8.11007 35.8994 8.12141C35.6695 8.13546 35.6193 8.05816 35.6193 7.84734C35.63 7.16218 35.6287 6.47701 35.6273 5.79185C35.6269 5.56346 35.6264 5.33507 35.6264 5.10668C35.6264 4.68474 35.6264 4.47744 35.5202 4.37386C35.4177 4.27382 35.2161 4.27054 34.8197 4.26408L34.7787 4.2634C34.4913 4.2634 34.4554 4.36179 34.4554 4.60774C34.4662 5.67216 34.4648 6.73263 34.4635 7.79507Z" fill="#101820"/>
<path d="M5.63958 4.77641C5.49589 5.60563 5.35041 6.43309 5.20494 7.26055C5.05946 8.08803 4.91398 8.9155 4.77029 9.74473L4.72557 9.99621C4.53939 11.0429 4.35413 12.0844 4.18119 13.1319C4.14527 13.3427 4.08061 13.4411 3.84353 13.42C3.72742 13.4101 3.60154 13.4185 3.47682 13.4268C3.24662 13.442 3.02024 13.457 2.86649 13.3568C2.69329 13.2422 2.67902 12.9898 2.66489 12.7399C2.65909 12.6374 2.65331 12.5352 2.63659 12.4432C2.25003 10.2585 1.86872 8.07385 1.48816 5.89355L1.29315 4.77641C1.20074 4.77038 1.20342 4.82119 1.20606 4.87125C1.2065 4.87956 1.20694 4.88786 1.20694 4.89587C1.20933 5.8089 1.21093 6.72115 1.21253 7.63314C1.21572 9.45864 1.21891 11.2832 1.22849 13.1108C1.22849 13.3568 1.15665 13.42 0.905206 13.42L0.883989 13.4199C0.451832 13.4165 0.234426 13.4148 0.125067 13.3078C0.0143684 13.1996 0.0143683 12.9835 0.0143683 12.5486C0.0114944 11.2948 0.0109198 10.0411 0.0103451 8.78682C0.00948301 6.90574 0.00862049 5.02366 0 3.13904C0 2.87903 0.0718417 2.82281 0.316104 2.83686C0.747154 2.85795 1.1782 2.85092 1.60926 2.83686C1.83915 2.82984 1.91817 2.90714 1.9541 3.11796C2.20484 4.58959 2.46106 6.05588 2.71797 7.52615L2.83056 8.17061C2.89511 8.54008 2.95966 8.91034 3.02421 9.2806L3.02452 9.28237C3.15384 10.0242 3.28316 10.766 3.41248 11.5016C3.49869 11.5016 3.52025 11.4734 3.53461 11.4172C3.68257 10.562 3.83122 9.70616 3.97992 8.85003C4.30776 6.96249 4.63582 5.0737 4.95708 3.18823C5.00737 2.90011 5.11513 2.82281 5.38813 2.83686C5.80481 2.85795 6.22868 2.85092 6.64536 2.84389C6.82497 2.84389 6.89681 2.872 6.89681 3.07579C6.88962 6.44891 6.88962 9.815 6.89681 13.1881C6.89681 13.3708 6.83933 13.42 6.65255 13.427L6.63116 13.4279C6.17625 13.445 5.94812 13.4536 5.8337 13.3465C5.7186 13.2387 5.7186 13.0138 5.7186 12.5627C5.7186 10.0049 5.72575 7.45401 5.73291 4.89622L5.73297 4.87479C5.73297 4.85487 5.72576 4.83143 5.719 4.80946C5.71622 4.80042 5.71351 4.79163 5.71142 4.78343C5.68268 4.77641 5.66113 4.77641 5.63958 4.77641Z" fill="#101820"/>
<path d="M44.1037 9.77889C44.2042 9.20473 44.3047 8.63058 44.4052 8.05818C44.4766 7.65175 44.5483 7.24532 44.6201 6.83889L44.6217 6.82971C44.8386 5.60183 45.0554 4.37396 45.2602 3.14608C45.2961 2.91418 45.3679 2.82985 45.6194 2.8439C46.0576 2.86498 46.503 2.85796 46.9484 2.8439C47.1424 2.83687 47.1855 2.90715 47.1855 3.08283C47.1783 6.44189 47.1783 9.80096 47.1855 13.16C47.1855 13.3498 47.1424 13.42 46.9269 13.4271L46.9058 13.4275C46.4603 13.4378 46.2357 13.4429 46.1225 13.3359C46.0073 13.227 46.0073 13.0022 46.0073 12.5486C46.0073 11.2662 46.0091 9.98543 46.0109 8.70469C46.0127 7.42396 46.0145 6.14323 46.0145 4.86074C46.0145 4.84772 46.009 4.83469 46.0014 4.81669C45.9967 4.80556 45.9913 4.79253 45.9858 4.77642C45.9009 4.83866 45.8944 4.92004 45.8881 4.99796C45.8858 5.02561 45.8836 5.05283 45.878 5.07859C45.7613 5.74428 45.6441 6.40996 45.527 7.07564C45.1754 9.07332 44.8238 11.071 44.4843 13.0687C44.434 13.3638 44.3262 13.4692 44.0317 13.4341C43.921 13.4215 43.8019 13.4324 43.6845 13.4431C43.4743 13.4623 43.2694 13.481 43.1265 13.3638C42.9847 13.245 42.9714 13.0214 42.9583 12.8013C42.9528 12.7092 42.9473 12.6176 42.9325 12.5346C42.7104 11.2627 42.4901 9.99258 42.2698 8.72246L42.2695 8.72058L42.2678 8.71059C42.0469 7.43726 41.8261 6.16394 41.6034 4.88885C41.5995 4.86593 41.5914 4.84509 41.5836 4.82519C41.577 4.80849 41.5708 4.79245 41.5675 4.77642C41.4813 4.78344 41.4813 4.82561 41.4813 4.8748C41.4837 5.78321 41.4853 6.69084 41.4869 7.59822V7.61349C41.4901 9.43856 41.4933 11.2626 41.5028 13.0897C41.5028 13.3779 41.4166 13.4341 41.1436 13.4341L41.1223 13.4337C40.3246 13.4201 40.3246 13.4201 40.3246 12.633C40.3246 11.8545 40.3251 11.076 40.3255 10.2976C40.3269 7.96293 40.3282 5.62829 40.3175 3.29365C40.3175 2.96337 40.3606 2.80877 40.7485 2.85093C41.1293 2.89309 41.5172 2.87201 41.898 2.85093C42.1207 2.8439 42.2069 2.91418 42.2428 3.13202C42.469 4.46941 42.702 5.80351 42.9348 7.13657L42.935 7.13765L42.9351 7.13863C43.0422 7.75193 43.1494 8.36568 43.2558 8.97876C43.3312 9.4002 43.4066 9.82339 43.482 10.2466C43.5574 10.67 43.6329 11.094 43.7084 11.5156C43.7443 11.5016 43.773 11.5016 43.8018 11.5016C43.9011 10.9357 44.0005 10.3681 44.0999 9.80055L44.1037 9.77889Z" fill="#101820"/>
<path d="M14.5121 8.85227C14.5121 8.49565 14.5125 8.13904 14.513 7.78242C14.5143 6.71249 14.5157 5.64255 14.5049 4.57262C14.5049 4.35478 14.5408 4.27045 14.7923 4.27045L14.8133 4.27061C15.2408 4.27399 15.4565 4.27569 15.5652 4.38177C15.6759 4.48974 15.6759 4.70583 15.6759 5.14184C15.6759 5.71434 15.6764 6.28729 15.6768 6.86046C15.6782 8.58083 15.6795 10.3032 15.6687 12.0216C15.6687 12.2675 15.7047 12.387 15.992 12.3589C16.1465 12.3448 16.3027 12.3466 16.459 12.3484C16.6152 12.3501 16.7715 12.3519 16.926 12.3378C17.436 12.2957 17.6587 12.1129 17.7593 11.621C17.9056 10.9175 17.9071 10.1988 17.9086 9.4864C17.9088 9.35911 17.9091 9.23202 17.9102 9.10525C17.9174 7.84033 17.9174 6.58244 17.8455 5.31752C17.7737 4.08071 17.5941 3.91205 16.3369 3.91205C16.2061 3.91205 16.0748 3.91162 15.9434 3.91118C15.5478 3.90986 15.1499 3.90853 14.7563 3.91908C14.5552 3.92611 14.4977 3.86989 14.4977 3.6661L14.4975 3.64572C14.4905 2.85081 14.4904 2.84402 15.3239 2.85795C15.5276 2.85999 15.732 2.85555 15.9364 2.85111C16.4384 2.8402 16.9408 2.82928 17.436 2.91417C18.3125 3.06175 18.7148 3.42717 18.8872 4.2845C19.0327 4.98424 19.0401 5.69399 19.0475 6.4053C19.0489 6.53668 19.0502 6.66886 19.0525 6.80029C19.0884 8.36738 19.1171 9.93448 18.9663 11.4945C18.9519 11.6351 18.9303 11.7756 18.9016 11.9092C18.7005 12.8719 18.2335 13.3216 17.2277 13.3919C16.6767 13.4285 16.1256 13.4264 15.5746 13.4244C15.2779 13.4232 14.9812 13.4221 14.6845 13.4271C14.4786 13.4328 14.4895 13.3208 14.5002 13.2105C14.5025 13.1862 14.5049 13.1618 14.5049 13.1389V9.2458C14.5121 9.11228 14.5121 8.97876 14.5121 8.85227Z" fill="#101820"/>
<path d="M23.7228 7.77138V7.77533C23.7224 8.12758 23.7219 8.4796 23.7219 8.83119V12.5838C23.7219 12.9999 23.7219 13.2037 23.8264 13.3061C23.9266 13.4044 24.1233 13.4092 24.5087 13.4185L24.5697 13.42C24.857 13.4271 24.893 13.3287 24.893 13.0827C24.8858 12.394 24.8858 11.7036 24.8858 11.0132C24.8858 10.3227 24.8858 9.6323 24.8786 8.94363C24.8786 8.7047 24.9361 8.61334 25.1947 8.63442C25.3805 8.65407 25.5628 8.64968 25.7465 8.64526C25.8256 8.64336 25.905 8.64145 25.985 8.64145C26.431 8.64145 26.6537 8.64145 26.7586 8.53295C26.8632 8.42475 26.8506 8.20866 26.8255 7.77709C26.8111 7.59438 26.7465 7.56627 26.5884 7.56627C26.3958 7.56908 26.2031 7.56739 26.0109 7.5657C25.723 7.56317 25.4359 7.56066 25.1516 7.5733C24.9289 7.58032 24.8714 7.51708 24.8786 7.29923C24.8894 6.75139 24.888 6.1996 24.8867 5.64682C24.8862 5.46235 24.8858 5.27723 24.8858 5.09265C24.8858 4.68588 24.8858 4.48207 24.7814 4.37911C24.6766 4.27573 24.4665 4.27403 24.0454 4.27063L24.0237 4.27045C23.7579 4.26343 23.7148 4.35478 23.7148 4.58668C23.7255 5.64627 23.7242 6.70981 23.7228 7.77138Z" fill="#101820"/>
<path d="M56.0436 2.84389C56.2143 2.84389 56.385 2.84433 56.5557 2.84477C57.0671 2.84609 57.5775 2.8474 58.0839 2.83686C58.3138 2.82984 58.3569 2.90011 58.3569 3.11093L58.3567 3.1315C58.3532 3.51514 58.3515 3.70851 58.2516 3.80597C58.15 3.90502 57.9471 3.90502 57.5379 3.90502C57.2451 3.90502 56.9524 3.90458 56.6596 3.90414C55.7813 3.90282 54.9031 3.9015 54.0248 3.91205C53.7949 3.91205 53.6943 3.89096 53.7015 3.6169L53.7026 3.57623C53.7126 3.21419 53.7177 3.03113 53.814 2.93856C53.9125 2.84389 54.1065 2.84389 54.499 2.84389H56.0436Z" fill="#101820"/>
<path d="M26.0034 2.84618C25.8535 2.84504 25.7039 2.84389 25.5542 2.84389C25.2094 2.84389 24.8573 2.84389 24.5269 2.85092C24.1248 2.85092 23.9291 2.85092 23.8311 2.94646C23.7381 3.03716 23.7333 3.21393 23.7238 3.55851L23.7222 3.6169C23.7151 3.88394 23.8156 3.91205 24.0455 3.91205C24.6813 3.9015 25.3171 3.90282 25.9529 3.90414C26.1649 3.90458 26.3768 3.90502 26.5887 3.90502C26.9979 3.90502 27.2009 3.90502 27.3024 3.80597C27.4024 3.70851 27.4041 3.51513 27.4075 3.13147L27.4077 3.11093C27.4077 2.90011 27.3646 2.82984 27.1347 2.83686C26.7548 2.85193 26.3786 2.84905 26.0034 2.84618Z" fill="#101820"/>
<path fill-rule="evenodd" clip-rule="evenodd" d="M13.1613 8.17062C13.1613 8.02003 13.1624 7.86944 13.1636 7.71885C13.1665 7.34241 13.1695 6.96591 13.1541 6.58947C13.1466 6.40861 13.1419 6.22743 13.1372 6.04627C13.1195 5.36169 13.1018 4.67724 12.9314 4.01044C12.7518 3.32879 12.3135 2.92121 11.6023 2.80174C11.2575 2.74552 10.9126 2.72444 10.5678 2.72444C9.05192 2.75255 8.47718 3.26554 8.34068 4.75534C8.21137 6.25216 8.21137 7.74898 8.2401 9.2458C8.24216 9.38247 8.24348 9.51927 8.2448 9.65617C8.25271 10.4766 8.26066 11.2999 8.42689 12.113C8.6065 12.9843 9.04473 13.3849 9.94275 13.5114C10.3091 13.5676 10.6827 13.5676 11.0491 13.5465C12.3638 13.4692 12.8811 13.0125 13.0391 11.7405C13.1692 10.7228 13.1658 9.69463 13.1624 8.66503C13.1618 8.50025 13.1613 8.33544 13.1613 8.17062ZM12.019 12.0989C12.019 12.2886 11.9759 12.3589 11.7675 12.3589C11.0635 12.3449 10.3523 12.3449 9.6482 12.3589C9.43268 12.3659 9.39676 12.2886 9.39676 12.0989C9.40394 10.7779 9.40394 9.45694 9.40394 8.12894C9.40394 7.80058 9.40439 7.47219 9.40483 7.14449L9.40484 7.14325C9.40618 6.1599 9.40753 5.17849 9.39676 4.19315C9.39676 3.96125 9.44704 3.89098 9.69131 3.898C10.3738 3.91206 11.0563 3.91206 11.7388 3.898C11.94 3.898 12.0262 3.92611 12.0262 4.15802C12.0118 6.80732 12.0118 9.44959 12.019 12.0989Z" fill="#101820"/>
<path fill-rule="evenodd" clip-rule="evenodd" d="M33.0771 6.04181C33.0808 6.20107 33.0846 6.36028 33.0903 6.5192C33.1083 6.97689 33.1013 7.43948 33.0943 7.89878C33.0929 7.98954 33.0915 8.08018 33.0903 8.17062C33.0903 8.23584 33.0903 8.30104 33.0904 8.36622C33.0907 9.47384 33.0911 10.5756 32.9826 11.6773C32.9538 11.9443 32.9035 12.2113 32.8101 12.4643C32.6162 13.0054 32.2354 13.3427 31.6607 13.4622C31.0213 13.5887 30.3819 13.5887 29.7353 13.4903C29.0025 13.3779 28.5715 12.9422 28.3919 12.2535C28.256 11.7218 28.2358 11.1775 28.2157 10.6385C28.2146 10.6076 28.2134 10.5767 28.2123 10.5459C28.1476 8.54307 28.1045 6.54731 28.3057 4.55155C28.435 3.31474 28.9522 2.85093 30.2166 2.74552C30.6118 2.71039 30.9997 2.72444 31.3948 2.78066C32.2713 2.90715 32.7167 3.30068 32.9035 4.14396C33.0472 4.76788 33.0621 5.40529 33.0771 6.04181ZM31.6966 12.3519C31.9049 12.3519 31.9552 12.2886 31.9552 12.0919C31.948 9.4496 31.948 6.80732 31.9624 4.15802C31.9624 3.91909 31.869 3.898 31.6679 3.898C30.9854 3.91206 30.3029 3.91206 29.6204 3.898C29.3761 3.89098 29.3258 3.96828 29.3258 4.19315C29.3366 5.17368 29.3352 6.15817 29.3339 7.14068C29.3334 7.46789 29.333 7.79488 29.333 8.12143C29.333 9.42851 29.333 10.7426 29.3258 12.0497C29.3258 12.2676 29.3617 12.3589 29.6132 12.3519C30.31 12.3308 30.9997 12.3378 31.6966 12.3519Z" fill="#101820"/>
</svg>
