<svg width="120" height="27" viewBox="0 0 120 27" fill="none" xmlns="http://www.w3.org/2000/svg">
<path d="M29.6203 7.27148H28.0605V14.4647H29.6203V7.27148Z" fill="#D22630"/>
<path fill-rule="evenodd" clip-rule="evenodd" d="M100.056 12.6279C99.925 12.6853 99.7792 12.7284 99.6335 12.7571L99.4585 12.8433C99.648 12.671 99.7938 12.5417 99.9542 12.4125C100.027 12.3565 100.101 12.2993 100.174 12.2416C100.365 12.0925 100.56 11.9401 100.77 11.7951C100.887 11.7377 100.989 11.6516 101.077 11.5654C101.199 11.4524 101.332 11.3531 101.463 11.2545C101.565 11.1778 101.666 11.1016 101.762 11.0198C101.934 10.8759 102.116 10.7369 102.299 10.5971C102.426 10.4998 102.554 10.4021 102.68 10.3019L103.54 9.65583C103.744 9.49789 103.948 9.33996 104.152 9.19638C104.287 9.0985 104.419 8.99741 104.551 8.89632C104.903 8.62672 105.255 8.35712 105.668 8.14827C105.872 8.04776 106.076 7.94726 106.281 7.86111C106.543 7.74852 106.786 7.62678 107.031 7.50432C107.318 7.36128 107.606 7.21729 107.928 7.08579C108.525 6.84171 109.123 6.58327 109.706 6.29612C109.75 6.28176 109.779 6.2674 109.823 6.25304C110.158 6.13818 110.479 5.99461 110.785 5.82231C110.894 5.76871 111.003 5.7151 111.114 5.66128C111.446 5.49885 111.783 5.3344 112.111 5.16185C112.242 5.09012 112.373 5.01839 112.504 4.94654C113.004 4.67319 113.507 4.39796 113.992 4.11374C114.043 4.08503 114.094 4.04914 114.145 4.01326C114.196 3.97735 114.247 3.94145 114.298 3.91273C114.551 3.76629 114.789 3.60434 115.027 3.4424C115.186 3.33442 115.344 3.22644 115.508 3.12306C115.62 3.05169 115.726 2.97446 115.833 2.89666C115.962 2.80229 116.093 2.7071 116.237 2.62053C116.474 2.47822 116.689 2.32151 116.904 2.16569C116.992 2.10143 117.08 2.03732 117.17 1.97444C117.325 1.86952 117.472 1.75555 117.617 1.64269C117.73 1.55475 117.842 1.46751 117.957 1.38576L117.957 1.38558C118.088 1.28513 118.219 1.18469 118.35 1.06989C118.554 0.883241 118.744 0.696592 118.919 0.481226C119.123 0.237142 118.919 -0.050013 118.569 0.0074215C118.409 0.0217757 118.248 0.0648473 118.102 0.122282C118.002 0.164214 117.902 0.204122 117.804 0.243618C117.531 0.352879 117.266 0.458993 117.009 0.596086C116.455 0.868887 115.916 1.15604 115.377 1.4432C115.299 1.48626 115.219 1.52774 115.14 1.56921C114.981 1.65217 114.823 1.73514 114.677 1.83086C114.47 1.96688 114.244 2.09396 114.022 2.21914C113.963 2.25252 113.904 2.28577 113.846 2.31902C113.452 2.53438 113.073 2.74975 112.724 2.97948C112.635 3.0335 112.543 3.08753 112.449 3.14226C112.22 3.27659 111.983 3.41512 111.776 3.56814C111.616 3.683 111.455 3.78351 111.28 3.88402C110.945 4.11374 110.595 4.3291 110.245 4.53011C110 4.73148 109.723 4.90573 109.444 5.08075C109.226 5.21772 109.007 5.35516 108.802 5.50644L108.365 5.80795C107.998 6.03698 107.659 6.28222 107.32 6.52708C107.107 6.68134 106.894 6.83546 106.674 6.98529C106.61 7.03031 106.545 7.07534 106.479 7.12046C106.191 7.31991 105.901 7.52113 105.639 7.73189C105.566 7.78933 105.493 7.8324 105.406 7.87547C104.983 8.09084 104.575 8.29185 104.152 8.49285C103.74 8.67885 103.338 8.88476 102.938 9.09008C102.658 9.23343 102.379 9.37648 102.097 9.51226C101.753 9.6766 101.41 9.86047 101.071 10.042C100.906 10.13 100.743 10.2175 100.581 10.3019C100.071 10.5604 99.5606 10.8188 99.0795 11.0772C98.9908 11.1249 98.9016 11.1731 98.812 11.2214C98.4157 11.4353 98.0115 11.6535 97.6073 11.8526C96.9805 12.1828 96.3245 12.4843 95.6685 12.7571C95.4499 12.8432 95.2166 12.915 94.9834 12.9438C94.8231 12.9725 94.7502 12.9007 94.7793 12.7858C94.8231 12.5848 94.9105 12.3982 95.0272 12.2259C95.0424 12.204 95.0575 12.1824 95.0725 12.1608C95.2156 11.9552 95.3513 11.7603 95.5228 11.5654C95.6841 11.3691 95.8517 11.1788 96.0174 10.9907C96.1061 10.8899 96.1943 10.7898 96.2808 10.6896C96.4557 10.5029 96.6015 10.3019 96.7472 10.0866C96.9659 9.77069 96.6743 9.58405 96.3099 9.64147C96.0621 9.68454 95.8289 9.77069 95.6102 9.8712C95.0563 10.1153 94.517 10.3737 93.9922 10.6465C93.6956 10.8047 93.4016 10.9578 93.1092 11.1101C92.7117 11.3171 92.317 11.5226 91.9223 11.7377C91.7425 11.8382 91.5628 11.9371 91.3831 12.0359C91.0235 12.2338 90.6638 12.4316 90.3042 12.6422C89.8088 12.9329 89.321 13.2311 88.8299 13.5314C88.6418 13.6464 88.4532 13.7617 88.2634 13.877C87.8116 14.1498 87.3742 14.4226 86.9224 14.7098L85.5667 15.5856C84.8816 16.0307 84.1819 16.4471 83.4676 16.8634C83.0595 17.0931 82.6513 17.3085 82.2286 17.5095C81.9953 17.6244 81.7475 17.7105 81.4852 17.7536C81.2957 17.7967 81.2082 17.7536 81.2373 17.61C81.2519 17.4808 81.2957 17.3516 81.3685 17.2367C81.4487 17.1219 81.5253 17.0034 81.6018 16.885C81.6783 16.7665 81.7548 16.6481 81.835 16.5332C81.9954 16.3035 82.1557 16.0881 82.3452 15.8871C82.7096 15.4994 83.074 15.1405 83.4676 14.7816C83.6034 14.6583 83.7384 14.5351 83.8731 14.4121C84.2878 14.0335 84.7003 13.6568 85.1294 13.2883L86.2518 12.312C86.3976 12.1684 86.5434 12.0392 86.7037 11.9244C87.0098 11.6803 87.3159 11.4362 87.6075 11.1778C87.9282 10.8906 88.278 10.6034 88.6133 10.3307C88.7809 10.1943 88.9449 10.0543 89.1089 9.91427C89.2729 9.77429 89.4369 9.63429 89.6045 9.49789C89.6845 9.42986 89.7636 9.36271 89.8427 9.29557C90.0806 9.0935 90.3186 8.89146 90.5812 8.66515C90.931 8.36364 91.2809 8.07648 91.6307 7.78933C91.7029 7.72768 91.7688 7.6676 91.8341 7.60805C91.9664 7.4873 92.0964 7.36873 92.2721 7.24372C92.5345 7.05708 92.7531 6.85607 92.9864 6.64071C93.1719 6.46449 93.3574 6.30312 93.543 6.14173C93.7656 5.94808 93.9882 5.75443 94.2108 5.53516C94.3289 5.41458 94.4495 5.2953 94.5701 5.17614C94.8514 4.89801 95.1321 4.62059 95.377 4.3291C95.6248 4.11374 95.7851 3.82658 95.8435 3.51071C95.858 3.46764 95.8435 3.42457 95.8289 3.38149C95.7997 3.33842 95.7706 3.29534 95.7414 3.26663C95.5228 3.10869 95.2021 3.10869 94.8522 3.18048C94.24 3.30971 93.6278 3.49635 93.0593 3.74044C92.6939 3.88861 92.3206 4.05239 91.9511 4.21452C91.8194 4.27233 91.6881 4.32993 91.5578 4.38654C91.232 4.52743 90.9148 4.68966 90.5969 4.85229C90.3317 4.98797 90.0659 5.12392 89.794 5.248C89.6153 5.33217 89.4491 5.42858 89.2842 5.52418C89.1397 5.60795 88.9963 5.69112 88.8465 5.76488C88.7822 5.80444 88.7136 5.83528 88.6429 5.86701C88.5853 5.89287 88.5264 5.9193 88.4675 5.95153C88.2197 6.12382 87.9573 6.25304 87.6804 6.38226C87.6731 6.38944 87.6621 6.39661 87.6512 6.40379C87.6403 6.41098 87.6293 6.41815 87.6221 6.42534C87.4325 6.56892 87.1993 6.69813 86.9661 6.78428C86.9224 6.79863 86.8787 6.8273 86.835 6.85599C86.7138 6.91968 86.5925 6.99226 86.4687 7.06626C86.3693 7.12573 86.2683 7.18615 86.1644 7.24372C85.9895 7.32985 85.8146 7.43033 85.6397 7.5308L85.6396 7.53088C85.4777 7.63721 85.3102 7.73808 85.1406 7.84022C85.0353 7.90358 84.9293 7.96744 84.8233 8.0334C84.7371 8.08701 84.6467 8.13644 84.556 8.18602C84.3552 8.29583 84.1531 8.40638 83.9924 8.56464C83.9846 8.56849 83.9778 8.57232 83.9716 8.57589C83.9544 8.58565 83.9409 8.59336 83.9195 8.59336C83.8029 8.65079 83.7009 8.70822 83.5988 8.78001C83.3627 8.94368 83.1108 9.09184 82.8589 9.24C82.691 9.33879 82.5231 9.43758 82.3598 9.54097C82.276 9.59177 82.195 9.64819 82.1131 9.70526C82.0098 9.77721 81.9051 9.85021 81.7913 9.91427C81.6524 9.99752 81.5235 10.0882 81.3943 10.1791C81.2116 10.3076 81.0281 10.4367 80.8146 10.546C80.8 10.5604 80.7855 10.5747 80.7563 10.5891C80.5814 10.6968 80.4174 10.8152 80.2534 10.9337C80.0894 11.0521 79.9254 11.1706 79.7505 11.2783C79.4962 11.4301 79.2622 11.5939 79.0293 11.7571C78.8216 11.9025 78.6147 12.0475 78.3948 12.1828C78.2199 12.2977 78.0596 12.4125 77.8992 12.5274L77.185 13.0299C77.0735 13.1138 76.9533 13.1948 76.8335 13.2756C76.6868 13.3744 76.5407 13.4728 76.4124 13.5755C76.3985 13.5858 76.3838 13.5968 76.3687 13.6083V5.6213H74.8089V14.7241C74.66 14.8332 74.5131 14.9411 74.3716 15.0543C74.2853 15.1162 74.1989 15.177 74.1129 15.2376C73.8793 15.4021 73.6478 15.5651 73.4241 15.7435C73.3229 15.8211 73.2173 15.8965 73.1124 15.9714C72.9454 16.0907 72.7802 16.2087 72.6369 16.3322C72.5053 16.4411 72.3661 16.5462 72.2248 16.651L71.5728 13.0155H67.4339L68.6479 6.25304H68.7409L69.8673 12.513H71.4708L69.8965 3.683H67.5059L64.9258 18.0551H66.5292L67.1762 14.4513H70.2269L70.8176 17.7456C70.7432 17.8022 70.6684 17.8587 70.5936 17.9153C70.3452 18.1032 70.096 18.2916 69.8527 18.4859C69.5928 18.6939 69.3329 18.8974 69.0755 19.099C68.871 19.2592 68.668 19.4181 68.4679 19.577C68.4315 19.6031 68.3943 19.6292 68.3569 19.6555C68.2296 19.7448 68.0996 19.8361 67.9869 19.936C67.848 20.0576 66.6838 20.8632 65.5777 21.6286C64.5943 22.3091 63.6567 22.9579 63.5263 23.066C63.3879 23.1808 62.4512 23.809 61.5146 24.4372C60.5781 25.0653 59.6416 25.6934 59.5031 25.8083C59.3865 25.8801 59.299 25.9375 59.197 26.0093C59.094 26.1108 58.9683 26.2027 58.8413 26.2956C58.6987 26.3998 58.5546 26.5052 58.439 26.6267C58.4293 26.6411 58.4179 26.6554 58.4066 26.6698C58.3839 26.6985 58.3613 26.7272 58.3515 26.7559C58.349 26.7658 58.3465 26.7752 58.3441 26.7843C58.3324 26.8285 58.3224 26.8663 58.3224 26.9139C58.337 26.9856 58.4536 27 58.5702 27C58.7014 27 58.818 26.9713 58.9346 26.8995C59.1533 26.7559 59.3428 26.598 59.5177 26.4257L59.5322 26.4127C59.8339 26.1437 60.1708 25.8432 63.6138 23.5541C63.6745 23.4944 63.7421 23.4416 63.807 23.3909C63.8358 23.3684 63.864 23.3464 63.8908 23.3244C64.044 23.1886 65.2159 22.3706 66.3378 21.5876C67.3506 20.8807 68.3227 20.2022 68.4679 20.0796C68.7077 19.8784 68.9529 19.6879 69.1969 19.4983C69.3534 19.3766 69.5094 19.2554 69.6632 19.132C69.7726 19.0386 69.8892 18.9489 70.0058 18.8592C70.1224 18.7694 70.239 18.6797 70.3484 18.5864C70.5612 18.3977 70.774 18.2243 70.9925 18.0551H72.4766L72.2943 17.0384C72.436 16.9291 72.579 16.8222 72.7244 16.7199C72.9649 16.5476 73.1872 16.3717 73.4095 16.1958C73.6318 16.0199 73.8541 15.844 74.0946 15.6717C74.3352 15.4994 74.572 15.3271 74.8089 15.1549L74.8089 18.0408H76.3687V14.0082C76.4221 13.9692 76.4756 13.9303 76.529 13.8914C76.8351 13.676 77.1412 13.4606 77.4328 13.2453C77.7306 13.023 78.0397 12.8173 78.3495 12.611C78.5401 12.4841 78.7309 12.3571 78.9196 12.2259C79.1383 12.0751 79.3606 11.9244 79.5829 11.7736C79.8052 11.6228 80.0275 11.4721 80.2461 11.3213C80.3485 11.2515 80.4508 11.1807 80.5534 11.1097C80.8309 10.9177 81.1104 10.7242 81.3977 10.546C81.7615 10.3221 82.1223 10.0925 82.4842 9.8622C82.9343 9.57575 83.386 9.28833 83.8466 9.00974C84.0139 8.90973 84.1738 8.80731 84.3343 8.70446C84.5657 8.55629 84.7984 8.40721 85.0565 8.26313C85.4938 8.01905 85.9165 7.77496 86.3393 7.51653C86.7669 7.26766 87.1945 7.03155 87.6221 6.79544C87.8359 6.67739 88.0497 6.55934 88.2634 6.43969C88.7299 6.18126 89.2109 5.93717 89.692 5.69309C89.9544 5.5567 90.2204 5.43108 90.4864 5.30545C90.7524 5.17981 91.0185 5.05418 91.2809 4.91778C91.31 4.90341 91.3428 4.88906 91.3756 4.8747C91.4084 4.86034 91.4412 4.84598 91.4704 4.83162C91.6016 4.76701 91.7364 4.71317 91.8713 4.65933C92.0061 4.60549 92.1409 4.55165 92.2721 4.48704C92.5491 4.35782 92.826 4.24296 93.1176 4.14245C93.5257 3.98452 93.9339 3.84094 94.3566 3.72607C94.5607 3.683 94.7502 3.65429 94.9543 3.65429C94.9834 3.63993 95.0126 3.65429 95.0417 3.66865C95.0563 3.683 95.0854 3.71172 95.0854 3.74044C95.1146 3.82658 95.1146 3.91273 95.0854 3.99888C95.0563 4.08502 95.0126 4.17117 94.9397 4.2286C94.6627 4.57319 94.3712 4.90341 94.0505 5.21928L94.05 5.21976C93.7732 5.47804 93.4964 5.73632 93.2342 5.99461C92.9853 6.23972 92.7015 6.4791 92.4159 6.72C92.2498 6.86009 92.0831 7.00068 91.9223 7.14323C91.5578 7.47345 91.1788 7.78933 90.7998 8.10519C90.6686 8.2129 90.5374 8.3242 90.4062 8.4355C90.275 8.54675 90.1438 8.658 90.0127 8.76565C89.8755 8.87826 89.7397 8.99087 89.6045 9.10304C89.3087 9.3484 89.0154 9.59164 88.7153 9.82813C88.1614 10.2732 87.6075 10.7183 87.0536 11.1778C86.8435 11.3544 86.6334 11.5292 86.424 11.7036C86.0376 12.0252 85.6533 12.3451 85.2752 12.671C84.7941 13.073 84.3277 13.475 83.8758 13.877C83.2781 14.4082 82.695 14.9395 82.1557 15.4851C81.8058 15.8727 81.4706 16.2748 81.1645 16.7055L81.1642 16.7059C81.0622 16.8493 80.9603 16.9928 80.8583 17.1506C80.7417 17.3516 80.6543 17.567 80.5814 17.7823C80.4793 18.1125 80.5668 18.2705 80.975 18.2705C81.3977 18.2418 81.8058 18.1413 82.1848 17.969C82.5493 17.7967 82.9137 17.61 83.2635 17.409C83.2938 17.3907 83.3244 17.372 83.3553 17.3531C83.5182 17.2536 83.6897 17.1489 83.8612 17.0644C84.1986 16.8879 84.5207 16.6888 84.8441 16.489C84.9679 16.4125 85.0918 16.3359 85.2169 16.2604C85.3687 16.1773 85.5157 16.0798 85.6634 15.9818C85.7709 15.9104 85.8789 15.8388 85.9894 15.7722C86.1862 15.6502 86.3757 15.5246 86.5652 15.3989C86.7547 15.2733 86.9442 15.1477 87.141 15.0256C87.3087 14.9251 87.469 14.821 87.6294 14.7169C87.7897 14.6128 87.9501 14.5087 88.1177 14.4082C88.199 14.3602 88.2803 14.3132 88.3613 14.2665C88.5707 14.1456 88.778 14.026 88.9777 13.8914C89.2304 13.7286 89.4831 13.5787 89.7358 13.4287C89.8621 13.3537 89.9884 13.2788 90.1147 13.2022C90.241 13.1304 90.369 13.0602 90.4969 12.9901C90.7528 12.8497 91.0088 12.7093 91.2517 12.5561C91.3887 12.4752 91.5371 12.3942 91.679 12.3168C91.7636 12.2706 91.846 12.2257 91.9223 12.1828C92.0464 12.1095 92.1704 12.0454 92.2919 11.9827C92.3844 11.9349 92.4754 11.8879 92.5636 11.8382C92.826 11.6946 93.103 11.5511 93.38 11.4075C93.7881 11.2065 94.1963 11.0055 94.6044 10.7901C94.6453 10.7689 94.6859 10.7477 94.7263 10.7266C94.9595 10.6047 95.1868 10.486 95.4353 10.3881C95.5956 10.3163 95.756 10.2445 95.9018 10.2014C96.0475 10.1584 96.0767 10.1871 96.0475 10.2876C96.007 10.4472 95.8749 10.5861 95.7443 10.7234C95.687 10.7837 95.63 10.8437 95.5811 10.905C95.5373 10.9603 95.4856 11.0157 95.4338 11.0711C95.3648 11.1449 95.2958 11.2188 95.2458 11.2926C95.2167 11.3644 95.1729 11.4218 95.1292 11.4649C94.9834 11.6085 94.8668 11.7521 94.7502 11.91C94.5898 12.0823 94.4586 12.2833 94.3566 12.4843C94.2108 12.6997 94.1379 12.9438 94.1379 13.2022C94.1525 13.2453 94.1671 13.2883 94.1963 13.3314C94.2254 13.3745 94.2691 13.4032 94.3129 13.4319C94.3566 13.4606 94.4149 13.4894 94.4732 13.4894C94.5461 13.5037 94.6044 13.5037 94.6627 13.4894C94.8376 13.475 94.998 13.4463 95.1729 13.4032C95.6685 13.2883 96.135 13.0873 96.5869 12.8433C96.6306 12.8145 96.6598 12.8002 96.7035 12.7858C96.9367 12.6997 97.17 12.5848 97.3886 12.4556C97.6275 12.3183 97.8784 12.19 98.1305 12.0612C98.4321 11.9069 98.7353 11.7519 99.0212 11.5798C99.1032 11.526 99.1794 11.489 99.2571 11.4513C99.3038 11.4286 99.351 11.4057 99.4002 11.3788C99.7209 11.1778 100.056 11.0055 100.391 10.8475C100.582 10.765 100.76 10.6629 100.937 10.5617C101.099 10.4691 101.259 10.3773 101.426 10.3019C101.514 10.2589 101.598 10.2086 101.682 10.1584C101.765 10.1081 101.849 10.0578 101.937 10.0148C102.49 9.71335 103.044 9.44063 103.598 9.1679L103.598 9.16767C103.715 9.09588 103.832 9.05281 103.963 9.00974C103.926 9.03845 103.89 9.07077 103.853 9.10309C103.817 9.13538 103.781 9.16768 103.744 9.19638C103.588 9.3321 103.414 9.45642 103.242 9.5801C103.141 9.6527 103.039 9.72507 102.942 9.79941C102.775 9.92864 102.614 10.0615 102.454 10.1943C102.294 10.3271 102.133 10.4599 101.966 10.5891C101.798 10.7183 101.634 10.8475 101.47 10.9767C101.306 11.106 101.142 11.2352 100.975 11.3644C100.416 11.7858 99.8769 12.2262 99.3335 12.6702C99.2103 12.7708 99.0868 12.8717 98.9629 12.9725C98.8172 13.1017 98.6422 13.1878 98.4527 13.2453C98.3215 13.2884 98.1903 13.3386 98.0591 13.3889C97.9279 13.4391 97.7967 13.4894 97.6656 13.5324C97.5635 13.5611 97.4651 13.6006 97.3667 13.6401C97.2683 13.6796 97.17 13.7191 97.0679 13.7478C96.8807 13.8016 96.6892 13.8759 96.4959 13.9511C96.328 14.0163 96.1586 14.0821 95.9892 14.1355C95.9455 14.1498 95.9018 14.1642 95.858 14.1929C95.7851 14.2503 95.6977 14.2934 95.5956 14.3077C95.1438 14.437 94.7065 14.5805 94.2691 14.7672C94.0967 14.8301 93.927 14.8958 93.7565 14.9618C93.5378 15.0464 93.3177 15.1316 93.0884 15.2123C92.9317 15.2674 92.7814 15.3352 92.6318 15.4028C92.3918 15.5111 92.1535 15.6187 91.8931 15.6717C91.8785 15.6717 91.8639 15.6717 91.8494 15.6861L90.8436 16.1168C90.7707 16.1599 90.6832 16.1886 90.5958 16.2173C90.4646 16.2604 90.3334 16.3035 90.2022 16.3609C90.0418 16.4471 89.8815 16.5188 89.7066 16.5763L89.7062 16.5764C89.4876 16.6481 89.2691 16.7199 89.0652 16.806C88.5112 17.0214 87.9865 17.2367 87.4325 17.4664L87.3597 17.4952C87.0681 17.5813 86.7766 17.6962 86.4996 17.8254C86.2105 17.9411 85.9214 18.0512 85.6289 18.1627C85.4494 18.2311 85.2686 18.3 85.0857 18.371C84.8622 18.4414 84.6496 18.5281 84.438 18.6144C84.3045 18.6688 84.1714 18.723 84.0361 18.773C83.9632 18.8006 83.886 18.8261 83.8078 18.8519C83.6827 18.8932 83.5551 18.9354 83.4385 18.9884C82.9504 19.2047 82.4533 19.4031 81.9572 19.6011C81.5643 19.758 81.172 19.9146 80.7855 20.0796C80.5069 20.1963 80.2308 20.3059 79.9532 20.4162C79.5479 20.577 79.1394 20.7392 78.7155 20.9267C78.3584 21.0846 77.9976 21.2354 77.6368 21.3861C77.2761 21.5369 76.9153 21.6876 76.5581 21.8456C75.9401 22.1088 75.3317 22.3862 74.7218 22.6642C74.2672 22.8714 73.8119 23.079 73.3512 23.2813C73.2439 23.3322 73.1378 23.3841 73.0318 23.436C72.7489 23.5744 72.4674 23.712 72.1705 23.8269C71.9664 23.8844 71.8061 24.0136 71.6894 24.2002C71.6311 24.3151 71.6457 24.3295 71.7769 24.3582C72.0247 24.3725 72.2725 24.3295 72.5058 24.229C72.8556 24.0854 73.1909 23.9131 73.5116 23.7121C73.6573 23.6259 73.8177 23.5541 73.978 23.4967C73.9999 23.4895 74.0218 23.4788 74.0436 23.468C74.0655 23.4572 74.0874 23.4465 74.1092 23.4393C74.2739 23.3439 74.4515 23.2548 74.6248 23.1678C74.7123 23.1239 74.7987 23.0806 74.8818 23.0373C75.1879 22.8793 75.494 22.7357 75.7856 22.6065C76.2083 22.4342 76.6019 22.2476 77.01 22.0466C77.1281 21.9918 77.2529 21.9469 77.3764 21.9023C77.5119 21.8535 77.646 21.8052 77.768 21.7451C78.1111 21.5838 78.4583 21.439 78.803 21.2952C79.1028 21.1701 79.4006 21.0459 79.6922 20.9123C79.8671 20.8357 80.0421 20.7719 80.217 20.7081C80.3045 20.6762 80.3919 20.6443 80.4793 20.6108L80.48 20.6105C80.8296 20.467 81.1792 20.3236 81.5143 20.1801C81.7691 20.0678 82.0269 19.9647 82.2864 19.8609C82.5911 19.739 82.8982 19.6161 83.2052 19.4765C83.3944 19.3888 83.5836 19.3179 83.7793 19.2445C83.84 19.2218 83.9012 19.1988 83.9632 19.175C84.1681 19.1078 84.368 19.0257 84.5688 18.9433C84.7108 18.885 84.8532 18.8266 84.9982 18.773C85.4938 18.572 85.9894 18.371 86.485 18.1987C86.6454 18.1269 86.8057 18.0551 86.9661 17.9977C87.0827 17.969 87.1993 17.9403 87.3159 17.8828C87.5127 17.8039 87.7095 17.7213 87.9062 17.6388C88.1031 17.5562 88.2999 17.4736 88.4967 17.3947C88.6935 17.3157 88.8902 17.2403 89.087 17.1649C89.2838 17.0896 89.4806 17.0142 89.6774 16.9352L92.0389 16.0163C92.3058 15.9119 92.5717 15.8065 92.8374 15.7011C93.5583 15.4152 94.2776 15.13 95.0126 14.8677L96.1496 14.437C96.6452 14.236 97.1554 14.0349 97.6656 13.877C97.6947 13.8627 97.7385 13.8339 97.7676 13.877C97.6434 14.0096 97.4971 14.1276 97.3497 14.2466C97.2895 14.2952 97.2291 14.344 97.17 14.3939C96.9789 14.5527 96.7805 14.7139 96.5828 14.8745C96.2978 15.1061 96.0142 15.3365 95.756 15.5569C95.5165 15.7613 95.2726 15.9658 95.0315 16.1679C94.8324 16.3348 94.6353 16.5001 94.4441 16.6624C94.1944 16.8908 93.9338 17.1138 93.6756 17.3347C93.5118 17.4749 93.3489 17.6142 93.1904 17.7536C93.1715 17.7722 93.1526 17.7924 93.1332 17.8131C93.0928 17.8561 93.0502 17.9015 93.001 17.9403C92.5345 18.2848 92.0972 18.6581 91.689 19.0458C91.2853 19.4055 90.888 19.7715 90.4928 20.1355C90.2887 20.3236 90.0851 20.5111 89.8815 20.6969C89.7066 20.8692 89.528 21.0379 89.3494 21.2066C89.1709 21.3754 88.9923 21.5441 88.8174 21.7163C88.7354 21.7917 88.6555 21.8711 88.5753 21.9507C88.4416 22.0835 88.3072 22.217 88.1614 22.3337C88.0949 22.3898 88.0347 22.452 87.9685 22.5203C87.9331 22.5569 87.896 22.5952 87.8553 22.6352C87.981 22.5857 88.0537 22.5172 88.1205 22.4543C88.1699 22.4077 88.216 22.3642 88.278 22.3337C88.2988 22.3474 88.2867 22.3642 88.2745 22.3812C88.261 22.4001 88.2474 22.4191 88.278 22.4342C88.2969 22.4156 88.3205 22.3969 88.3446 22.3778C88.3949 22.338 88.4478 22.2961 88.4675 22.2476C88.4852 22.2186 88.5195 22.1966 88.5531 22.1751C88.6028 22.1432 88.6511 22.1123 88.6424 22.0609C88.7773 22.0277 88.8488 21.9513 88.9218 21.8733C88.975 21.8164 89.029 21.7587 89.1089 21.7163C89.2255 21.5728 89.3822 21.4471 89.5389 21.3215C89.6956 21.1959 89.8523 21.0703 89.9689 20.9267C89.9762 20.9195 89.9835 20.9159 89.9908 20.9123C89.9981 20.9087 90.0054 20.9051 90.0127 20.898C90.2168 20.7687 90.3917 20.6108 90.5666 20.4529L90.5668 20.4527C90.8291 20.2086 91.0914 19.9646 91.3538 19.735C91.587 19.5483 91.8202 19.3473 92.0243 19.132C92.1555 18.974 92.3158 18.8304 92.4908 18.7156C92.8406 18.4428 93.1905 18.1556 93.5111 17.8541C93.8318 17.5382 94.1817 17.2511 94.5315 16.9639C94.6105 16.8973 94.6829 16.8327 94.7538 16.7696C94.8662 16.6694 94.9749 16.5726 95.1 16.4758C95.2198 16.384 95.3304 16.2863 95.4416 16.1881C95.5741 16.0711 95.7075 15.9533 95.858 15.844C95.9018 15.8153 95.9455 15.7866 95.9892 15.7435C96.1787 15.5425 96.3828 15.3702 96.6015 15.1979C96.8885 14.9718 97.1671 14.7429 97.4447 14.5148C97.8016 14.2217 98.1567 13.9299 98.5256 13.6473C98.6568 13.5468 98.788 13.475 98.9338 13.4176C99.2399 13.3171 99.5314 13.2166 99.823 13.1017C100.012 13.0012 100.217 12.9294 100.421 12.872C100.742 12.7801 101.056 12.6664 101.373 12.5516C101.502 12.505 101.631 12.4581 101.762 12.4125C101.87 12.3714 101.981 12.3279 102.094 12.2838C102.375 12.1738 102.666 12.0596 102.957 11.9674C103.147 11.91 103.321 11.8526 103.511 11.7808C103.88 11.6372 104.25 11.5191 104.619 11.4011C104.803 11.342 104.988 11.283 105.173 11.2208C105.29 11.1807 105.409 11.1441 105.528 11.1074C105.75 11.0388 105.975 10.9697 106.193 10.8762C106.266 10.8332 106.353 10.8045 106.441 10.7901C106.776 10.7039 107.097 10.6178 107.418 10.5029C107.551 10.4643 107.689 10.4131 107.824 10.3629C107.94 10.3199 108.053 10.2776 108.161 10.2445C108.369 10.1848 108.577 10.1201 108.781 10.0563C108.921 10.0126 109.06 9.96945 109.196 9.92863C109.313 9.88556 109.429 9.84248 109.56 9.81377C109.969 9.72762 110.377 9.5984 110.77 9.45482C111.149 9.3256 111.528 9.19638 111.922 9.09588L112.272 8.96665C112.278 8.96334 112.285 8.96022 112.291 8.95723C112.339 8.93425 112.372 8.91861 112.359 8.88051C112.082 8.88051 111.82 8.92358 111.557 9.00974C111.339 9.08152 111.12 9.13895 110.872 9.19638C110.522 9.28253 110.173 9.38143 109.823 9.48033C109.648 9.52979 109.473 9.57925 109.298 9.62712C109.172 9.66423 109.047 9.70401 108.92 9.74417C108.753 9.7972 108.583 9.85089 108.409 9.89992C108.161 9.97171 107.928 10.0435 107.68 10.1153C107.213 10.2732 106.732 10.4311 106.251 10.5604C105.998 10.6268 105.755 10.7078 105.51 10.7892C105.332 10.8484 105.153 10.908 104.969 10.9624C104.845 10.9983 104.724 11.0414 104.604 11.0844C104.484 11.1275 104.364 11.1706 104.24 11.2065C104.094 11.2352 103.948 11.2639 103.802 11.3213C103.667 11.3631 103.546 11.4097 103.42 11.4583C103.329 11.4933 103.236 11.5294 103.132 11.5654C102.976 11.6324 102.808 11.6867 102.64 11.7409C102.555 11.768 102.471 11.7951 102.389 11.8239C101.98 11.9531 101.528 12.0967 101.164 12.2402C100.986 12.3078 100.811 12.3657 100.637 12.4232C100.442 12.4879 100.249 12.5518 100.056 12.6279ZM107.636 6.79864C107.534 6.87043 107.418 6.9135 107.301 6.92786C107.52 6.79146 107.716 6.64071 107.913 6.48995C108.11 6.33919 108.307 6.18843 108.525 6.05203C108.572 6.02065 108.619 5.98927 108.666 5.95775C108.9 5.80181 109.138 5.64252 109.356 5.46337C109.525 5.33005 109.709 5.21609 109.894 5.10181C110.027 5.01917 110.161 4.93637 110.289 4.84599C110.493 4.70956 110.701 4.58032 110.909 4.45108C111.117 4.32188 111.324 4.19268 111.528 4.05631C111.717 3.92334 111.917 3.80678 112.118 3.68976C112.243 3.61724 112.368 3.54454 112.49 3.46764L113.627 2.77847C114.342 2.34773 115.085 1.93136 115.828 1.52934C116.014 1.43137 116.203 1.33933 116.39 1.24783C116.615 1.1382 116.838 1.02935 117.053 0.911958C117.121 0.881331 117.188 0.850703 117.255 0.82018C117.534 0.693306 117.809 0.568236 118.102 0.452508C118.11 0.449354 118.119 0.446032 118.127 0.442667C118.194 0.415378 118.268 0.385443 118.307 0.423791C118.35 0.481226 118.307 0.553014 118.234 0.610449C118.088 0.754026 117.928 0.897604 117.767 1.02682C117.387 1.36633 116.958 1.66766 116.528 1.96972C116.431 2.0381 116.333 2.10652 116.237 2.17544C116.129 2.24935 116.022 2.3252 115.914 2.40157C115.729 2.53289 115.541 2.66573 115.347 2.79282C115.231 2.87179 115.107 2.95076 114.983 3.02973C114.859 3.10869 114.735 3.18767 114.619 3.26663C114.524 3.33128 114.425 3.39594 114.327 3.46058C114.229 3.52515 114.13 3.58972 114.035 3.65429C113.812 3.78837 113.575 3.92246 113.339 4.05654C113.221 4.12346 113.102 4.19039 112.986 4.25731C112.898 4.30038 112.818 4.35063 112.738 4.40088C112.658 4.45114 112.578 4.5014 112.49 4.54447C112.254 4.65645 112.018 4.78394 111.782 4.91144C111.624 4.99644 111.467 5.08145 111.31 5.16185C111.154 5.23366 111 5.30546 110.846 5.37727C110.539 5.52083 110.231 5.66439 109.91 5.80795C109.803 5.85581 109.695 5.90207 109.586 5.94833C109.369 6.04086 109.152 6.13339 108.948 6.23868C108.729 6.33919 108.511 6.42892 108.292 6.51866C108.074 6.6084 107.855 6.69813 107.636 6.79864Z" fill="white"/>
<path fill-rule="evenodd" clip-rule="evenodd" d="M16.6615 4.07066C17.1133 4.41525 17.4049 5.03264 17.5361 5.90845C17.6527 6.76992 17.711 8.88051 17.7256 10.8906C17.7256 12.9007 17.6673 15.0113 17.5361 15.8871C17.4049 16.7486 17.1133 17.3516 16.6615 17.7105C16.2096 18.0695 15.4516 18.2418 14.3874 18.2418C13.3379 18.2418 12.5653 18.0695 12.1134 17.7105C11.6616 17.3659 11.3554 16.7486 11.2388 15.8727C11.1076 14.9969 11.0493 12.9007 11.0493 10.8906C11.0493 8.88051 11.1076 6.78427 11.2388 5.90845C11.3846 5.04699 11.647 4.41525 12.1134 4.07066C12.5799 3.72607 13.3379 3.53943 14.3874 3.53943C15.437 3.53943 16.2096 3.71172 16.6615 4.07066ZM12.6091 16.6193H16.1513V5.11878H12.6091V16.6193Z" fill="white"/>
<path d="M0 3.683V18.0551H1.55974V6.25304H1.67607L3.71712 17.8685H5.51009L7.55114 6.25304H7.66748V18.0551H9.22721V3.683H6.73455L4.68156 15.2984H4.54565L2.49266 3.683H0Z" fill="white"/>
<path d="M31.9673 3.683H36.9234V5.11878H31.9673V3.683Z" fill="white"/>
<path d="M31.9673 5.6213H33.527V10.1153H36.1508V11.5511H33.527V18.0408H31.9673V5.6213Z" fill="white"/>
<path d="M46.4713 10.8762H46.4567L46.4713 12.2977V18.0408H48.0311V12.2977H49.5179C49.6037 12.2977 49.6895 12.2954 49.7751 12.2909L51.2088 18.0551H52.8123L51.2915 11.9408L51.2963 11.9387C51.7919 11.6659 52.1563 11.2065 52.3167 10.6752C52.477 10.0866 52.5645 8.98102 52.5645 7.99033C52.5645 7.07143 52.5062 6.02332 52.375 5.47772C52.2875 4.96085 51.996 4.48703 51.5878 4.17117C51.1797 3.84093 50.6841 3.683 49.722 3.683H46.4567V5.11878H49.4888C49.824 5.09006 50.1739 5.17621 50.4508 5.37722C50.6695 5.57823 50.8153 5.86538 50.8298 6.15254C50.9027 6.76992 50.9319 7.3873 50.9319 8.01905C50.9464 8.63643 50.9027 9.26817 50.8298 9.88556C50.8007 10.1727 50.6695 10.4455 50.4508 10.6465C50.2468 10.8044 49.9552 10.8762 49.4888 10.8762H48.0311V5.6213H46.4713V10.8762Z" fill="white"/>
<path d="M54.4012 3.683H56.8938L58.9349 15.2984H59.0827L61.1357 3.683H63.6138V18.0551H62.0541V6.25304H61.9497L59.8967 17.8685H58.1183L56.0773 6.25304H55.9609V18.0551H54.4012V3.683Z" fill="white"/>
<path d="M20.8013 18.0551H22.3902C23.4397 18.0551 24.1977 17.8828 24.6496 17.5382C25.1161 17.1793 25.4076 16.5906 25.5388 15.7435C25.67 14.8964 25.7283 13.5037 25.7283 11.5367C25.7283 9.56968 25.67 6.82735 25.5388 5.98024C25.4222 5.13313 25.1161 4.54447 24.6642 4.19988C24.2123 3.8553 23.4543 3.683 22.3902 3.683H19.5623V5.11878H22.6089C23.0753 5.13313 23.4106 5.21928 23.6147 5.37722C23.8187 5.53516 23.9791 6.00896 24.052 6.66941C24.1249 7.34423 24.1686 9.84248 24.1686 11.5223C24.1686 13.2022 24.1249 14.3795 24.052 15.0543C23.9791 15.7292 23.8333 16.1455 23.6147 16.3178C23.396 16.5045 23.017 16.605 22.4631 16.605H21.1074V5.6213H19.5477V18.0408H20.8016L20.8013 18.0551Z" fill="white"/>
<path d="M72.462 3.683H78.7155V5.11878H72.462V3.683Z" fill="white"/>
<path fill-rule="evenodd" clip-rule="evenodd" d="M44.4451 5.90845C44.3139 5.03264 44.0224 4.41525 43.5705 4.07066C43.1186 3.71172 42.346 3.53943 41.2965 3.53943C40.247 3.53943 39.489 3.72607 39.0225 4.07066C38.556 4.41525 38.2937 5.04699 38.1625 5.90845C38.0313 6.78427 37.973 8.88051 37.973 10.8906C37.973 12.9007 38.0313 14.9969 38.1625 15.8727C38.2791 16.7486 38.5852 17.3659 39.0225 17.7105C39.4744 18.0695 40.247 18.2418 41.2965 18.2418C42.3606 18.2418 43.1186 18.0695 43.5705 17.7105C44.0224 17.3516 44.2994 16.7486 44.4451 15.8871C44.5763 15.0256 44.6346 12.9007 44.6346 10.8906C44.6346 8.88051 44.5763 6.76992 44.4451 5.90845ZM43.0749 16.6193H39.5327V5.11878H43.0749V16.6193Z" fill="white"/>
</svg>
