<svg width="120" height="24" viewBox="0 0 120 24" fill="none" xmlns="http://www.w3.org/2000/svg">
<path d="M40.4866 9.51876C40.4866 10.5372 40.4744 11.5557 40.4989 12.5741C40.5112 12.8796 40.4253 13 39.9716 13C38.5123 12.9907 38.5123 13.0093 38.5123 11.8982C38.5123 10.0835 38.5245 8.25959 38.5 6.44491C38.5 6.1116 38.5981 5.99123 39.0641 6.00049C40.4866 6.01901 40.4989 6.00049 40.4989 7.08375C40.4866 7.88925 40.4866 8.70401 40.4866 9.51876Z" fill="#ED2A2C"/>
<path fill-rule="evenodd" clip-rule="evenodd" d="M119.8 0.139338C119.834 0.186763 119.867 0.234023 119.909 0.258805C120.085 0.352984 119.971 0.439859 119.857 0.526227C119.848 0.53266 119.84 0.53909 119.831 0.54552C119.446 1.02189 118.954 1.37925 118.459 1.7388C118.411 1.77385 118.362 1.80896 118.314 1.84417C115.883 3.63192 113.262 5.11609 110.434 6.21236C108.236 7.06407 106.391 8.42175 104.572 9.84689C104.529 9.88061 104.486 9.91428 104.442 9.94794L104.364 10.0087C103.839 10.4175 103.315 10.825 102.805 11.272C103.337 11.101 103.869 10.9289 104.4 10.7568C107.512 9.74945 110.626 8.74171 113.814 7.94951C113.836 8.10155 113.763 8.12306 113.698 8.14211C113.687 8.14525 113.677 8.14832 113.667 8.1519C112.124 8.63257 110.572 9.11324 109.029 9.58548C107.314 10.1083 105.624 10.6902 103.943 11.2973C103.875 11.3217 103.807 11.3464 103.739 11.371C103.456 11.4742 103.175 11.5766 102.882 11.6515C101.724 11.9398 100.881 12.6809 100.039 13.4196C99.8474 13.5883 99.6554 13.7569 99.4598 13.9199C97.9455 15.1862 96.457 16.4779 94.967 17.771C94.3595 18.2981 93.7517 18.8256 93.1419 19.3516L93.1668 19.3759C92.891 19.6711 92.5892 19.9325 92.1668 20.0506C92.2636 19.9667 92.3595 19.8829 92.4551 19.7993C92.6418 19.636 92.8274 19.4737 93.016 19.3146C93.0149 19.3006 93.0163 19.2844 93.02 19.2663C94.1148 18.1701 95.2787 17.1497 96.4511 16.1378C97.8822 14.9066 99.3133 13.6838 100.805 12.4948C100.712 12.4104 100.645 12.4459 100.583 12.4783C100.565 12.488 100.547 12.4974 100.529 12.5032C98.5988 13.2264 96.6798 13.9712 94.7598 14.7165C93.7468 15.1096 92.7335 15.5029 91.7182 15.8932C88.675 17.0654 85.649 18.2797 82.6489 19.5446C81.4419 20.0506 80.2436 20.6071 79.0884 21.2312C79.0773 21.237 79.0662 21.2428 79.0551 21.2487C79.0411 21.2561 79.027 21.2635 79.0129 21.271C78.6846 21.4444 78.3517 21.6203 77.9677 21.6359C77.9496 21.6359 77.9307 21.6374 77.9119 21.6389C77.8407 21.6445 77.769 21.6502 77.7349 21.5769C77.6918 21.4841 77.7608 21.4167 77.8297 21.3661C77.9246 21.2902 78.0366 21.2143 78.1487 21.1637C83.2013 18.8222 88.4065 16.8124 93.6045 14.8053L93.7355 14.7548C94.0503 14.6332 94.3649 14.5115 94.6793 14.3899L94.6883 14.3864C96.9884 13.4967 99.2808 12.61 101.606 11.7949C101.841 11.7158 102.03 11.5627 102.216 11.4118L102.253 11.3817C102.869 10.8968 103.486 10.414 104.102 9.93118C104.719 9.44841 105.335 8.96565 105.951 8.48078C106.124 8.40489 106.279 8.31212 106.322 8.09287C106.245 8.13925 106.165 8.18773 106.085 8.23622C106.005 8.28471 105.926 8.3332 105.848 8.37959C104.758 8.9099 103.691 9.48108 102.623 10.0528C101.942 10.4175 101.26 10.7824 100.572 11.1371C100.532 11.1579 100.491 11.1787 100.451 11.1996C99.8184 11.5257 99.1815 11.8541 98.4684 11.9888C98.4353 11.9948 98.4014 12.002 98.3672 12.0093C98.1613 12.0531 97.9426 12.0997 97.7874 11.9045C97.6121 11.6784 97.7388 11.4524 97.8542 11.2463L97.8636 11.2297C97.8699 11.2184 97.8761 11.2073 97.8822 11.1961C98.1233 10.75 98.458 10.3761 98.7932 10.0016C98.9014 9.88064 99.0098 9.75959 99.115 9.63607C99.1346 9.61255 99.1549 9.58928 99.1755 9.56569C99.2731 9.45397 99.3771 9.33496 99.434 9.14697C99.074 9.22522 98.7882 9.36157 98.5078 9.49536L98.4678 9.51444L98.4426 9.52645C95.5718 10.9263 92.8389 12.5623 90.1664 14.2825C89.2353 14.8813 88.2698 15.4378 87.2698 15.9354C86.9422 16.104 86.5887 16.2221 86.2094 16.2558C85.6576 16.298 85.5369 16.1546 85.7438 15.6655C86.0628 14.915 86.5973 14.2994 87.1749 13.7344C88.7353 12.1921 90.4442 10.8104 92.1528 9.42911L92.4079 9.22287C92.5623 9.09751 92.7167 8.97229 92.8712 8.84709L92.8734 8.84529C94.4428 7.57305 96.01 6.30263 97.477 4.91371C97.8305 4.5764 98.1581 4.22222 98.4598 3.85118L98.4629 3.84767C98.5656 3.73045 98.6829 3.59661 98.5805 3.43797C98.4988 3.30713 98.3594 3.3392 98.2396 3.36674C98.2205 3.37115 98.2018 3.37545 98.1839 3.37894C97.1236 3.59819 96.1408 4.05356 95.1752 4.50893C90.6061 6.67616 86.3818 9.41682 82.2523 12.2924C82.0023 12.4695 81.8989 12.6466 81.9075 12.9502C81.9216 13.4653 81.9203 13.9779 81.919 14.4907C81.918 14.9181 81.9169 15.3458 81.9247 15.7751C81.9333 16.045 81.8471 16.104 81.5885 16.104L81.5633 16.1042C81.0459 16.1083 80.785 16.1104 80.6534 15.9841C80.5195 15.8556 80.5195 15.5942 80.5195 15.0668V13.5573C80.2838 13.7349 80.0532 13.9066 79.8269 14.0752L79.8259 14.0759L79.8249 14.0766C79.3319 14.4438 78.8592 14.7957 78.3987 15.1596C78.2408 15.2903 78.3011 15.4629 78.3596 15.6301C78.3841 15.7002 78.4083 15.7694 78.416 15.8342C78.4332 16.0281 78.4246 16.1462 78.1918 16.104C77.4073 15.9607 76.8642 16.3401 76.278 16.8039C74.0946 18.5345 71.7968 20.1029 69.4964 21.6731L69.4951 21.674C68.9712 22.0316 68.447 22.3894 67.9242 22.7491C67.5449 23.0021 67.1742 23.2719 66.8552 23.5923C66.7604 23.6851 66.6397 23.7694 66.519 23.8453L66.5081 23.8523C66.3375 23.9608 66.128 24.0942 65.9845 23.9044C65.8671 23.7464 66.0245 23.6313 66.159 23.5329C66.1825 23.5157 66.2053 23.499 66.2259 23.4827C67.0034 22.871 67.8287 22.3277 68.6539 21.7846C69.0913 21.4966 69.5286 21.2087 69.9588 20.9107C70.3693 20.6258 70.781 20.3422 71.1927 20.0587C73.0718 18.7644 74.9513 17.4699 76.7262 16.045C76.8987 15.9016 76.9849 15.792 76.9332 15.5559C76.7694 14.7885 76.64 14.0127 76.5107 13.2369C76.4762 13.0176 76.3987 12.9249 76.1573 12.9333C75.4503 12.9502 74.752 12.9502 74.0451 12.9333C73.8037 12.9249 73.7348 13.0176 73.7003 13.2369C73.627 13.667 73.5494 14.0949 73.4718 14.5229C73.3942 14.9508 73.3166 15.3788 73.2434 15.8089C73.2089 16.0281 73.1313 16.1209 72.8899 16.104C72.614 16.0787 72.3382 16.0787 72.0709 16.104C71.7778 16.1293 71.7433 16.0281 71.795 15.7667C72.295 13.0851 72.7778 10.4035 73.2606 7.72196C73.3182 7.40567 73.3764 7.08925 73.4346 6.77285L73.4348 6.77172C73.6201 5.76433 73.8057 4.75499 73.9762 3.74155C74.0279 3.4717 74.1141 3.3958 74.39 3.40424C74.89 3.4211 75.3986 3.4211 75.8986 3.40424C76.1142 3.3958 76.1917 3.46327 76.2262 3.67409C76.6573 6.0943 77.097 8.51451 77.5452 10.9347C77.597 11.1877 77.5108 11.2046 77.2952 11.213L77.2695 11.2134C76.1659 11.2299 76.1644 11.23 75.9676 10.1505C75.8429 9.43937 75.716 8.72826 75.5891 8.01716L75.5883 8.01277C75.4611 7.3002 75.334 6.58762 75.209 5.87505L75.2074 5.86207C75.1998 5.7991 75.1926 5.7385 75.0796 5.71482C74.946 6.44444 74.8145 7.17405 74.683 7.90366C74.5515 8.63292 74.4201 9.36218 74.2865 10.0914C74.2606 10.2292 74.2377 10.3679 74.2147 10.5065C74.1687 10.7839 74.1227 11.0612 74.0537 11.3311C73.9761 11.6178 74.0796 11.6599 74.3382 11.6515C74.7406 11.6445 75.1429 11.6448 75.5446 11.6451C76.107 11.6455 76.6681 11.6459 77.2263 11.6262C77.6056 11.6093 77.709 11.7443 77.7608 12.0816C77.8651 12.7641 77.9941 13.4515 78.1254 14.151C78.1677 14.3762 78.2102 14.6027 78.2522 14.8307C78.6219 14.5657 78.9788 14.305 79.3313 14.0474C79.6855 13.7886 80.0361 13.5325 80.3902 13.279C80.5544 13.1622 80.5506 13.0137 80.5466 12.861C80.546 12.8374 80.5454 12.8136 80.5454 12.7899C80.5454 12.1849 80.5459 11.5799 80.5464 10.975C80.5481 9.16018 80.5497 7.34658 80.5367 5.53773C80.5367 5.21729 80.6057 5.10766 80.9592 5.1161L81.01 5.11739C81.4729 5.12917 81.7059 5.13509 81.8232 5.25179C81.942 5.37004 81.942 5.602 81.942 6.069V12.1406C82.1923 11.97 82.4381 11.8021 82.6808 11.6363L82.6888 11.6308L82.6897 11.6302C83.1876 11.29 83.6726 10.9587 84.1576 10.6311C86.399 9.11324 88.675 7.64593 91.0458 6.32199C92.9769 5.23415 94.9252 4.18849 96.9942 3.37894C97.546 3.16812 98.0977 2.97416 98.6926 2.91514C98.9081 2.88984 99.1495 2.8814 99.2788 3.09222C99.4168 3.31148 99.2874 3.5223 99.1667 3.68252C98.796 4.18849 98.3391 4.61856 97.8822 5.0402C96.47 6.33313 94.9904 7.55467 93.5114 8.77573C93.1576 9.06783 92.8038 9.35991 92.451 9.65294C90.7613 11.0528 89.0802 12.4526 87.5198 13.9958C87.1059 14.409 86.787 14.8981 86.4852 15.3872C86.4778 15.4 86.4697 15.413 86.4614 15.4263L86.4542 15.4378C86.3872 15.5448 86.3112 15.6662 86.4077 15.7751C86.5015 15.8801 86.6162 15.8371 86.7234 15.7969C86.7541 15.7855 86.7841 15.7742 86.8128 15.7667C87.3215 15.6318 87.7698 15.3872 88.2094 15.1174C88.8991 14.6958 89.5868 14.2713 90.2746 13.8469C91.6501 12.998 93.0257 12.1491 94.4166 11.3226C95.9166 10.4203 97.477 9.61077 99.0891 8.89399C99.3133 8.79279 99.5461 8.7169 99.7788 8.65787C99.934 8.6157 100.106 8.63257 100.21 8.77593C100.317 8.92046 100.212 9.04206 100.128 9.14071L100.115 9.1554C99.983 9.31436 99.8497 9.47201 99.7165 9.62939C99.5108 9.87256 99.3052 10.1157 99.1064 10.3613C98.8995 10.6143 98.7098 10.8757 98.5374 11.154C98.5315 11.1633 98.5253 11.1729 98.519 11.1827C98.451 11.288 98.3667 11.4185 98.4771 11.5419C98.5614 11.6371 98.6604 11.5985 98.752 11.5628C98.7821 11.5511 98.8114 11.5397 98.8391 11.5335C99.2961 11.4154 99.7271 11.213 100.15 11.0022C101.742 10.2156 103.318 9.40323 104.894 8.59097L104.895 8.59008C105.87 8.08784 106.844 7.58541 107.822 7.08937C108.531 6.73153 109.175 6.24765 109.821 5.76309C110.148 5.51694 110.477 5.27026 110.814 5.0402C113.167 3.43797 115.59 1.94536 118.15 0.655146C118.336 0.560805 118.529 0.485285 118.722 0.40999C118.994 0.30357 119.265 0.197584 119.512 0.0395522C119.663 -0.0569893 119.732 0.0415291 119.8 0.139338ZM109.84 6.0437C112.788 3.9608 115.823 2.00439 119.185 0.570818C116.435 2.9826 113.279 4.75348 109.84 6.0437Z" fill="#101820"/>
<path d="M55.3562 9.35409C55.3557 9.77942 55.3551 10.205 55.3551 10.6311C55.3551 12.1237 55.3551 13.6079 55.3379 15.0836C55.3379 15.5942 55.3379 15.8473 55.4675 15.9726C55.5948 16.0958 55.8473 16.0957 56.3478 16.0956L56.3983 16.0956C56.7 16.0956 56.7431 15.9944 56.7431 15.733C56.7388 14.9993 56.7388 14.2678 56.7388 13.5373C56.7388 12.8068 56.7388 12.0774 56.7345 11.3479C56.7345 11.1034 56.7776 10.9853 57.0621 11.0106C57.3638 11.0359 57.6656 11.0359 57.9673 11.0106C58.2259 10.9853 58.3121 11.0949 58.3639 11.3226C58.6356 12.4541 58.9213 13.5787 59.2083 14.7088L59.3035 15.0836C59.56 16.0872 59.5622 16.0872 60.6217 16.0872L60.6484 16.0872C60.9674 16.0872 60.9846 16.0028 60.9157 15.733C60.7052 14.9226 60.5017 14.1099 60.2979 13.2962L60.2975 13.2943C60.1091 12.5423 59.9205 11.7889 59.726 11.0359C59.6743 10.8167 59.6829 10.6817 59.8898 10.5384C60.3553 10.2095 60.5708 9.72039 60.6484 9.17226C60.8295 7.88204 60.8467 6.60026 60.6657 5.31004C60.4846 4.01982 59.7691 3.42109 58.4242 3.40423C57.9532 3.39861 57.4861 3.40048 57.0177 3.40235C56.783 3.40329 56.548 3.40423 56.3121 3.40423C55.8239 3.40423 55.5824 3.40423 55.462 3.52205C55.3442 3.63734 55.3422 3.86542 55.3383 4.31667L55.3379 4.36557C55.3379 4.64385 55.4327 4.68601 55.6827 4.68601L55.6891 4.68595C56.5232 4.67754 57.3487 4.66921 58.1828 4.69445C58.8035 4.71131 59.1139 4.95586 59.2001 5.52086C59.3725 6.66772 59.3639 7.81458 59.2001 8.96144C59.1311 9.48427 58.8208 9.71196 58.2863 9.73726C58.099 9.74505 57.9118 9.74204 57.7254 9.73904C57.5084 9.73555 57.2926 9.73208 57.0793 9.74569C56.8035 9.76255 56.7431 9.66979 56.7431 9.41681C56.756 8.59461 56.7544 7.77242 56.7528 6.95022C56.7523 6.67615 56.7517 6.40209 56.7517 6.12802C56.7517 5.62169 56.7517 5.37293 56.6243 5.24864C56.5012 5.12859 56.2593 5.12465 55.7837 5.11689L55.7345 5.11609C55.3896 5.11609 55.3465 5.23414 55.3465 5.52929C55.3594 6.8066 55.3578 8.07916 55.3562 9.35409Z" fill="#101820"/>
<path d="M20.7675 5.73169C20.5951 6.72675 20.4205 7.71971 20.2459 8.71267C20.0713 9.70563 19.8968 10.6986 19.7243 11.6937L19.6707 11.9955C19.4473 13.2514 19.225 14.5012 19.0174 15.7583C18.9743 16.0113 18.8967 16.1293 18.6122 16.104C18.4729 16.0922 18.3219 16.1022 18.1722 16.1121C17.8959 16.1304 17.6243 16.1484 17.4398 16.0281C17.232 15.8906 17.2148 15.5877 17.1979 15.2879C17.1909 15.1648 17.184 15.0423 17.1639 14.9319C16.7 12.3102 16.2425 9.68862 15.7858 7.07226L15.5518 5.73169C15.4409 5.72446 15.4441 5.78543 15.4473 5.8455C15.4478 5.85548 15.4483 5.86543 15.4483 5.87504C15.4512 6.97068 15.4531 8.06538 15.455 9.15977C15.4589 11.3504 15.4627 13.5399 15.4742 15.733C15.4742 16.0281 15.388 16.104 15.0862 16.104L15.0608 16.1038C14.5422 16.0998 14.2813 16.0977 14.1501 15.9694C14.0172 15.8395 14.0172 15.5802 14.0172 15.0584C14.0138 13.5538 14.0131 12.0493 14.0124 10.5442C14.0114 8.28689 14.0103 6.02839 14 3.76685C14 3.45483 14.0862 3.38737 14.3793 3.40424C14.8966 3.42953 15.4138 3.4211 15.9311 3.40424C16.207 3.3958 16.3018 3.48856 16.3449 3.74155C16.6458 5.50751 16.9533 7.26706 17.2616 9.03139L17.3967 9.80473C17.4741 10.2481 17.5516 10.6924 17.6291 11.1367L17.6294 11.1388C17.7846 12.029 17.9398 12.9192 18.095 13.8019C18.1984 13.8019 18.2243 13.7681 18.2415 13.7007C18.4191 12.6744 18.5975 11.6474 18.7759 10.62C19.1693 8.35499 19.563 6.08844 19.9485 3.82588C20.0088 3.48013 20.1382 3.38737 20.4658 3.40424C20.9658 3.42953 21.4744 3.4211 21.9744 3.41267C22.19 3.41267 22.2762 3.4464 22.2762 3.69095C22.2675 7.73869 22.2675 11.778 22.2762 15.8257C22.2762 16.045 22.2072 16.104 21.9831 16.1125L21.9574 16.1134C21.4115 16.134 21.1377 16.1443 21.0004 16.0158C20.8623 15.8864 20.8623 15.6166 20.8623 15.0752C20.8623 12.0058 20.8709 8.94481 20.8795 5.87546L20.8796 5.84975C20.8796 5.82585 20.8709 5.79772 20.8628 5.77135C20.8595 5.7605 20.8562 5.74995 20.8537 5.74012C20.8192 5.73169 20.7934 5.73169 20.7675 5.73169Z" fill="#101820"/>
<path d="M66.9244 11.7347C67.045 11.0457 67.1657 10.3567 67.2863 9.66982C67.3719 9.1821 67.458 8.69439 67.5441 8.20667L67.5461 8.19565C67.8063 6.7222 68.0665 5.24875 68.3122 3.77529C68.3553 3.49701 68.4415 3.39582 68.7432 3.41268C69.2691 3.43798 69.8036 3.42955 70.3381 3.41268C70.5709 3.40425 70.6226 3.48858 70.6226 3.6994C70.614 7.73027 70.614 11.7611 70.6226 15.792C70.6226 16.0197 70.5709 16.104 70.3123 16.1125L70.287 16.1131C69.7524 16.1253 69.4828 16.1315 69.3469 16.0031C69.2088 15.8724 69.2088 15.6026 69.2088 15.0584C69.2088 13.5194 69.2109 11.9825 69.2131 10.4456C69.2152 8.90876 69.2174 7.37188 69.2174 5.83289C69.2174 5.81726 69.2108 5.80163 69.2017 5.78002C69.1961 5.76667 69.1895 5.75103 69.1829 5.7317C69.0811 5.80639 69.0732 5.90405 69.0657 5.99756C69.063 6.03074 69.0604 6.06339 69.0536 6.09431C68.9135 6.89313 68.7729 7.69195 68.6323 8.49077C68.2104 10.888 67.7885 13.2852 67.3811 15.6824C67.3208 16.0366 67.1915 16.1631 66.838 16.1209C66.7051 16.1058 66.5623 16.1188 66.4214 16.1317C66.1692 16.1548 65.9232 16.1772 65.7518 16.0366C65.5816 15.8939 65.5657 15.6257 65.5499 15.3616C65.5433 15.251 65.5368 15.1411 65.519 15.0415C65.2525 13.5153 64.9881 11.9911 64.7238 10.467L64.7234 10.4647L64.7213 10.4527C64.4563 8.92471 64.1913 7.39672 63.9241 5.86663C63.9194 5.83912 63.9096 5.8141 63.9003 5.79023C63.8925 5.77018 63.8849 5.75094 63.881 5.7317C63.7775 5.74013 63.7775 5.79073 63.7775 5.84976C63.7804 6.93985 63.7823 8.02901 63.7842 9.11787V9.13618C63.7881 11.3263 63.7919 13.5151 63.8034 15.7077C63.8034 16.0534 63.7 16.1209 63.3724 16.1209L63.3467 16.1205C62.3896 16.1041 62.3896 16.1041 62.3896 15.1596C62.3896 14.2254 62.3901 13.2912 62.3906 12.3571C62.3923 9.55552 62.3939 6.75395 62.3809 3.95238C62.3809 3.55604 62.4327 3.37052 62.8982 3.42112C63.3551 3.47171 63.8206 3.44641 64.2776 3.42112C64.5448 3.41268 64.6483 3.49701 64.6914 3.75843C64.9629 5.3633 65.2424 6.96421 65.5218 8.56388L65.522 8.56519L65.5222 8.56635C65.6507 9.30232 65.7793 10.0388 65.9069 10.7745C65.9974 11.2802 66.0879 11.7881 66.1784 12.2959C66.2689 12.804 66.3595 13.3128 66.4501 13.8188C66.4932 13.8019 66.5276 13.8019 66.5621 13.8019C66.6814 13.1229 66.8006 12.4418 66.9199 11.7607L66.9244 11.7347Z" fill="#101820"/>
<path d="M31.4145 10.6227C31.4145 10.1948 31.415 9.76684 31.4156 9.3389C31.4172 8.05499 31.4188 6.77107 31.4059 5.48715C31.4059 5.22573 31.449 5.12454 31.7507 5.12454L31.776 5.12474C32.289 5.12878 32.5477 5.13083 32.6783 5.25813C32.8111 5.38769 32.8111 5.647 32.8111 6.1702C32.8111 6.85721 32.8116 7.54475 32.8122 8.23255C32.8138 10.297 32.8154 12.3638 32.8025 14.4259C32.8025 14.7211 32.8456 14.8644 33.1904 14.8307C33.3758 14.8138 33.5633 14.8159 33.7508 14.818C33.9383 14.8201 34.1258 14.8223 34.3112 14.8054C34.9232 14.7548 35.1905 14.5355 35.3112 13.9452C35.4867 13.101 35.4885 12.2386 35.4903 11.3837C35.4906 11.2309 35.4909 11.0784 35.4922 10.9263C35.5009 9.4084 35.5009 7.89893 35.4146 6.38102C35.3284 4.89685 35.1129 4.69447 33.6042 4.69447C33.4473 4.69447 33.2898 4.69394 33.132 4.69342C32.6573 4.69183 32.1799 4.69024 31.7076 4.7029C31.4662 4.71133 31.3973 4.64387 31.3973 4.39932L31.397 4.37486C31.3886 3.42097 31.3885 3.41282 32.3887 3.42955C32.6332 3.43199 32.8784 3.42666 33.1237 3.42133C33.7261 3.40824 34.329 3.39514 34.9232 3.49701C35.975 3.6741 36.4578 4.1126 36.6647 5.1414C36.8393 5.98109 36.8481 6.83279 36.857 7.68636C36.8586 7.84401 36.8603 8.00263 36.863 8.16034C36.9061 10.0409 36.9406 11.9214 36.7595 13.7935C36.7423 13.9621 36.7164 14.1308 36.6819 14.291C36.4405 15.4463 35.8802 15.986 34.6732 16.0703C34.012 16.1142 33.3508 16.1117 32.6895 16.1092C32.3335 16.1079 31.9774 16.1066 31.6214 16.1125C31.3743 16.1194 31.3874 15.9849 31.4002 15.8526C31.403 15.8234 31.4059 15.7942 31.4059 15.7667V11.095C31.4145 10.9347 31.4145 10.7745 31.4145 10.6227Z" fill="#101820"/>
<path d="M42.4674 9.32566V9.3304C42.4669 9.75309 42.4663 10.1755 42.4663 10.5974V15.1005C42.4663 15.5998 42.4663 15.8444 42.5916 15.9673C42.712 16.0853 42.9479 16.091 43.4104 16.1023L43.4836 16.104C43.8285 16.1125 43.8716 15.9944 43.8716 15.6993C43.8629 14.8729 43.8629 14.0443 43.8629 13.2158C43.8629 12.3873 43.8629 11.5588 43.8543 10.7324C43.8543 10.4456 43.9233 10.336 44.2336 10.3613C44.4566 10.3849 44.6754 10.3796 44.8958 10.3743C44.9907 10.372 45.086 10.3697 45.182 10.3697C45.7172 10.3697 45.9845 10.3697 46.1103 10.2395C46.2358 10.1097 46.2207 9.85039 46.1906 9.33251C46.1734 9.11325 46.0958 9.07952 45.9061 9.07952C45.6749 9.0829 45.4437 9.08087 45.2131 9.07884C44.8676 9.07581 44.5231 9.07279 44.1819 9.08796C43.9147 9.09639 43.8457 9.02049 43.8543 8.75908C43.8672 8.10167 43.8656 7.43952 43.864 6.77619C43.8635 6.55482 43.8629 6.33267 43.8629 6.11118C43.8629 5.62305 43.8629 5.37848 43.7377 5.25493C43.6119 5.13088 43.3598 5.12884 42.8545 5.12475L42.8284 5.12454C42.5094 5.11611 42.4577 5.22574 42.4577 5.50402C42.4706 6.77553 42.469 8.05178 42.4674 9.32566Z" fill="#101820"/>
<path d="M81.2523 3.41267C81.4572 3.41267 81.662 3.4132 81.8668 3.41373C82.4805 3.41531 83.093 3.41688 83.7006 3.40424C83.9765 3.39581 84.0282 3.48013 84.0282 3.73312L84.028 3.7578C84.0239 4.21817 84.0218 4.45021 83.9019 4.56717C83.78 4.68602 83.5365 4.68602 83.0454 4.68602C82.6941 4.68602 82.3428 4.6855 81.9915 4.68497C80.9376 4.68339 79.8837 4.68181 78.8298 4.69446C78.5539 4.69446 78.4332 4.66916 78.4418 4.34028L78.4432 4.29147C78.4551 3.85702 78.4612 3.63735 78.5768 3.52628C78.695 3.41267 78.9278 3.41267 79.3988 3.41267H81.2523Z" fill="#101820"/>
<path d="M45.2041 3.41542C45.0243 3.41404 44.8446 3.41267 44.665 3.41267C44.2512 3.41267 43.8288 3.41267 43.4322 3.4211C42.9498 3.4211 42.7149 3.4211 42.5973 3.53576C42.4857 3.64459 42.4799 3.85672 42.4686 4.27021L42.4667 4.34028C42.4581 4.66072 42.5788 4.69446 42.8546 4.69446C43.6176 4.68181 44.3805 4.68339 45.1435 4.68497C45.3978 4.6855 45.6521 4.68602 45.9065 4.68602C46.3975 4.68602 46.6411 4.68602 46.7629 4.56717C46.8828 4.45021 46.8849 4.21816 46.889 3.75777L46.8893 3.73312C46.8893 3.48013 46.8375 3.39581 46.5617 3.40424C46.1058 3.42232 45.6543 3.41886 45.2041 3.41542Z" fill="#101820"/>
<path fill-rule="evenodd" clip-rule="evenodd" d="M29.7935 9.80474C29.7935 9.62404 29.7949 9.44333 29.7963 9.26262C29.7998 8.81089 29.8034 8.3591 29.7849 7.90737C29.7759 7.69033 29.7703 7.47292 29.7646 7.25553C29.7434 6.43403 29.7221 5.61269 29.5176 4.81253C29.3021 3.99455 28.7762 3.50545 27.9228 3.36209C27.5089 3.29463 27.0951 3.26933 26.6813 3.26933C24.8623 3.30306 24.1726 3.91865 24.0088 5.70641C23.8536 7.50259 23.8536 9.29878 23.8881 11.095C23.8906 11.259 23.8922 11.4231 23.8938 11.5874C23.9033 12.5719 23.9128 13.5599 24.1123 14.5355C24.3278 15.5812 24.8537 16.0619 25.9313 16.2137C26.371 16.2811 26.8193 16.2811 27.2589 16.2558C28.8366 16.1631 29.4573 15.6149 29.647 14.0886C29.803 12.8673 29.7989 11.6336 29.7948 10.398C29.7942 10.2003 29.7935 10.0025 29.7935 9.80474ZM28.4228 14.5187C28.4228 14.7464 28.371 14.8307 28.121 14.8307C27.2762 14.8138 26.4227 14.8138 25.5778 14.8307C25.3192 14.8391 25.2761 14.7464 25.2761 14.5187C25.2847 12.9335 25.2847 11.3483 25.2847 9.75472C25.2847 9.3607 25.2853 8.96663 25.2858 8.57339L25.2858 8.57191C25.2874 7.39188 25.289 6.21419 25.2761 5.03178C25.2761 4.7535 25.3365 4.66917 25.6296 4.67761C26.4486 4.69447 27.2676 4.69447 28.0866 4.67761C28.3279 4.67761 28.4314 4.71134 28.4314 4.98962C28.4142 8.16878 28.4142 11.3395 28.4228 14.5187Z" fill="#101820"/>
<path fill-rule="evenodd" clip-rule="evenodd" d="M53.6925 7.25017C53.697 7.44128 53.7015 7.63233 53.7084 7.82304C53.73 8.37227 53.7215 8.92737 53.7131 9.47854C53.7115 9.58745 53.7098 9.69621 53.7084 9.80474C53.7084 9.88301 53.7084 9.96125 53.7084 10.0395C53.7089 11.3686 53.7093 12.6907 53.5791 14.0127C53.5446 14.3332 53.4842 14.6536 53.3722 14.9572C53.1394 15.6065 52.6825 16.0113 51.9928 16.1546C51.2255 16.3064 50.4583 16.3064 49.6824 16.1884C48.803 16.0534 48.2858 15.5306 48.0702 14.7042C47.9072 14.0662 47.8829 13.413 47.8589 12.7662C47.8575 12.7291 47.8561 12.6921 47.8547 12.655C47.7771 10.2517 47.7254 7.85677 47.9668 5.46186C48.122 3.97768 48.7427 3.42112 50.26 3.29463C50.7341 3.25246 51.1997 3.26933 51.6738 3.33679C52.7256 3.48858 53.2601 3.96082 53.4842 4.97275C53.6566 5.72146 53.6746 6.48635 53.6925 7.25017ZM52.0359 14.8223C52.2859 14.8223 52.3463 14.7464 52.3463 14.5102C52.3376 11.3395 52.3376 8.16878 52.3549 4.98962C52.3549 4.7029 52.2428 4.67761 52.0014 4.67761C51.1824 4.69447 50.3634 4.69447 49.5444 4.67761C49.2513 4.66917 49.191 4.76193 49.191 5.03178C49.2039 6.20842 49.2023 7.3898 49.2007 8.56881C49.2001 8.96147 49.1996 9.35385 49.1996 9.74572C49.1996 11.3142 49.1996 12.8911 49.191 14.4596C49.191 14.7211 49.2341 14.8307 49.5358 14.8223C50.372 14.797 51.1997 14.8054 52.0359 14.8223Z" fill="#101820"/>
</svg>
