<svg width="104" height="19" viewBox="0 0 104 19" fill="none" xmlns="http://www.w3.org/2000/svg">
<g clip-path="url(#clip0_4002_5634)">
<path d="M44.383 3.09265H42.4023V18.6915H44.383V10.3219H46.0693V10.3248H47.6963V8.4743H44.383V3.09265Z" fill="white"/>
<path d="M48.6809 0.186768H42.4023V2.03724H48.6809V0.186768Z" fill="white"/>
<path d="M67.8387 10.8312C68.4674 10.4753 68.9316 9.88718 69.1318 9.19297C69.3677 8.05799 69.475 6.90003 69.4515 5.74102C69.4717 4.65869 69.3902 3.57686 69.2082 2.50976C69.0963 1.83927 68.7393 1.23424 68.2065 0.81208C67.6859 0.401807 67.0578 0.186768 65.8354 0.186768H61.7129V2.03724H65.5412C65.9775 2.00178 66.4128 2.1166 66.7748 2.36263C67.058 2.62432 67.2327 2.98278 67.2643 3.36709C67.3579 4.16332 67.3985 4.96487 67.386 5.76648C67.3978 6.56808 67.3572 7.36959 67.2643 8.16587C67.2323 8.54277 67.0571 8.89309 66.7748 9.14487C66.5145 9.35708 66.141 9.42782 65.5525 9.42782H63.7077V3.09263H61.727V18.6915H63.7077V11.2896H65.5949C65.7081 11.2896 65.8156 11.2896 65.9231 11.2896L67.7482 18.7028H69.7825L67.85 10.8454L67.8387 10.8312Z" fill="white"/>
<path d="M10.1465 0.186768H9.7164H9.0543H8.53651L5.94189 15.1547H5.75797L3.16335 0.186768H1.98063H1.55621H0V18.6915H1.98063V3.49159H2.12493L4.72239 18.4567H4.99119H5.37033H6.33235H6.77941H6.97747L9.5721 3.49159H9.7164V18.6915H11.6999V0.186768H10.8425H10.1465Z" fill="white"/>
<path d="M82.3809 0.186768H81.9536H81.2887H80.7709L78.1763 15.1547H77.9952L75.3977 0.186768H74.2178H73.7906H72.2344V18.6915H74.2178V3.49159H74.3621L76.9568 18.4567H77.2256H77.6019H78.5667H79.0138H79.2147L81.8093 3.49159H81.9536V18.6915H83.9342V0.186768H83.0769H82.3809Z" fill="white"/>
<path d="M94.4082 12.2148H92.4389H89.2359L90.7779 3.49159H90.894L92.2521 11.1595H94.2865L92.3455 0.186768H91.723H91.3636H90.3111H89.9348H89.3293L86.0527 18.6915H88.0871L88.9048 14.0653H92.7642L93.5848 18.6915H95.6192L94.4732 12.2148H94.4082Z" fill="white"/>
<path d="M20.9521 16.8382H16.4618V2.03722H20.9521V16.841V16.8382ZM21.5916 0.681902C21.0229 0.226358 20.0411 0 18.7055 0C17.37 0 16.4108 0.229187 15.8223 0.681902C15.2338 1.13462 14.8886 1.93253 14.7132 3.05583C14.5377 4.17913 14.4727 6.89259 14.4727 9.47024C14.4727 12.0479 14.5519 14.7585 14.7132 15.8846C14.8744 17.0108 15.2423 17.803 15.8138 18.2557C16.3854 18.7085 17.3615 18.9405 18.6971 18.9405C20.0326 18.9405 21.0116 18.7085 21.5831 18.2529C22.1547 17.7974 22.5197 17.0136 22.6838 15.9073C22.8479 14.801 22.9243 12.062 22.9243 9.47024C22.9243 6.87844 22.8451 4.16498 22.6838 3.05583C22.5225 1.94668 22.1632 1.13179 21.5916 0.681902Z" fill="white"/>
<path d="M25.7109 0.186711H25.7138V0.178223L25.7109 0.186711Z" fill="white"/>
<path d="M32.1943 0.848885C31.6284 0.407488 30.6664 0.185846 29.3083 0.18396H25.7148V2.03726H27.7662H29.3649H29.5544C30.1543 2.05424 30.5815 2.16742 30.8334 2.3768C31.0852 2.58618 31.2974 3.18886 31.3992 4.04902C31.5011 4.90917 31.5464 8.14043 31.5464 10.305C31.5464 12.4695 31.4955 13.9833 31.3992 14.8321C31.303 15.681 31.1163 16.2469 30.8334 16.4676C30.5504 16.6883 30.0666 16.8354 29.3649 16.8354H27.6983V3.09548H25.7177V18.6944H29.3139C30.6466 18.6944 31.603 18.4708 32.1745 18.0323C32.7461 17.5937 33.1337 16.8043 33.3063 15.7177C33.5049 13.9207 33.5862 12.1126 33.5496 10.305C33.5496 7.75845 33.4704 4.23576 33.3063 3.14641C33.1422 2.05707 32.7659 1.29311 32.1943 0.848885Z" fill="white"/>
<path d="M101.024 3.09265H99.043V18.6887H101.024V3.09265Z" fill="white"/>
<path d="M103.999 0.186768H96.0684V2.03724H103.999V0.186768Z" fill="white"/>
<path d="M56.9495 16.8382H52.4591V2.03722H56.9495V16.841V16.8382ZM57.589 0.681902C57.0203 0.226358 56.0384 0 54.7057 0C53.3731 0 52.4054 0.229187 51.8197 0.681902C51.234 1.13462 50.8831 1.93253 50.7219 3.05583C50.5606 4.17913 50.4785 6.89259 50.4785 9.47024C50.4785 12.0479 50.5577 14.7585 50.7219 15.8846C50.886 17.0108 51.251 17.803 51.8197 18.2557C52.3884 18.7085 53.3702 18.9405 54.7057 18.9405C56.0413 18.9405 57.0174 18.7085 57.589 18.2529C58.1605 17.7974 58.5255 17.0136 58.6896 15.9073C58.8537 14.801 58.933 12.062 58.933 9.47024C58.933 6.87844 58.8537 4.16498 58.6896 3.05583C58.5255 1.94668 58.1605 1.13179 57.589 0.681902Z" fill="white"/>
<path d="M38.9591 4.81299H36.9785V14.0654H38.9591V4.81299Z" fill="#D22630"/>
</g>
<defs>
<clipPath id="clip0_4002_5634">
<rect width="104" height="18.9405" fill="white"/>
</clipPath>
</defs>
</svg>
