<svg width="55" height="24" viewBox="0 0 55 24" fill="none" xmlns="http://www.w3.org/2000/svg">
<path fill-rule="evenodd" clip-rule="evenodd" d="M1 0.5H54.2162V20.0588H30.0339L27 24L23.9661 20.0588H1V0.5Z" fill="#D22630"/>
<path d="M9.29083 4.92395V15.2233H11.7435V11.0144H18.7796L22.1242 15.2233H25.1715L21.0341 9.99934L25.1467 4.92395H22.0994L18.9034 8.88523H11.7435V4.92395H9.29083Z" fill="white"/>
<path d="M28.4414 6.06282C28.3671 6.3104 28.3671 6.60749 28.3671 7.20169L28.3919 12.9455C28.3919 13.5397 28.3919 13.8368 28.4662 14.0844C28.5405 14.332 28.6892 14.5796 28.8626 14.7529C29.0608 14.9262 29.2838 15.0747 29.5315 15.149C29.7545 15.2233 30.0518 15.2233 30.6464 15.2233H43.9505V13.0941H30.8446V7.05314H43.9505V4.92395H30.6464C30.0518 4.92395 29.7545 4.92395 29.5068 4.99822C29.259 5.0725 29.0113 5.22105 28.8378 5.39435C28.6644 5.59242 28.5158 5.81524 28.4414 6.06282Z" fill="white"/>
</svg>
