<svg width="55" height="24" viewBox="0 0 55 24" fill="none" xmlns="http://www.w3.org/2000/svg">
<path fill-rule="evenodd" clip-rule="evenodd" d="M1 0.5H54.2162V20.0588H30.0339L27 24L23.9661 20.0588H1V0.5Z" fill="#D22630"/>
<path d="M9.29089 4.92395V15.2233H11.7436V11.0144H18.7796L22.1242 15.2233H25.1715L21.0341 9.99934L25.1468 4.92395H22.0995L18.9035 8.88523H11.7436V4.92395H9.29089Z" fill="white"/>
<path d="M28.4415 6.06282C28.3672 6.3104 28.3672 6.60749 28.3672 7.20169L28.392 12.9455C28.392 13.5397 28.392 13.8368 28.4663 14.0844C28.5406 14.332 28.6893 14.5796 28.8627 14.7529C29.0609 14.9262 29.2838 15.0747 29.5316 15.149C29.7546 15.2233 30.0519 15.2233 30.6465 15.2233H43.9505V13.0941H30.8447V7.05314H43.9505V4.92395H30.6465C30.0519 4.92395 29.7546 4.92395 29.5068 4.99822C29.2591 5.0725 29.0113 5.22105 28.8379 5.39435C28.6645 5.59242 28.5158 5.81524 28.4415 6.06282Z" fill="white"/>
</svg>
