<svg width="173" height="87" viewBox="0 0 173 87" fill="none" xmlns="http://www.w3.org/2000/svg">
<path fill-rule="evenodd" clip-rule="evenodd" d="M119.089 56.9487L120.126 57.0244C120.215 57.0244 120.278 57.0748 120.329 57.1505C120.367 57.2262 120.379 57.3145 120.329 57.3902L119.937 58.1598C119.899 58.2355 119.823 58.286 119.734 58.2986C119.646 58.2986 119.57 58.2733 119.507 58.1976L118.862 57.3524C118.798 57.2767 118.798 57.1758 118.836 57.0874C118.887 56.9991 118.975 56.9487 119.077 56.9613M118.748 63.3576H119.76C119.987 62.4114 120.291 61.4778 120.632 60.5568C120.923 59.7999 121.239 59.0555 121.568 58.3112C121.783 57.8192 122.036 57.2893 122.2 56.772C122.263 56.5576 122.365 56.1917 122.238 55.9898C122.112 55.7501 121.669 55.6744 121.429 55.6366C120.695 55.5357 119.81 55.5988 119.064 55.6492C117.42 55.7628 115.751 55.6744 114.107 55.6871C113.917 55.6871 113.727 55.6871 113.538 55.6618C113.07 55.6366 112.614 55.5735 112.146 55.5357C112.045 55.5357 111.679 55.4978 111.502 55.5357C111.577 55.6618 111.78 55.8637 111.843 55.9268C112.146 56.2169 112.665 56.3305 113.07 56.4062C113.689 56.5197 114.322 56.5702 114.954 56.6963C116.611 57.0117 117.837 57.7182 118.533 59.3331C118.824 60.0144 119.102 60.7335 119.001 61.4904C118.963 61.768 118.887 62.0581 118.836 62.3357C118.773 62.6763 118.748 63.017 118.735 63.3702L118.748 63.3576ZM86.93 66.9658C86.8667 65.0355 86.8794 61.9446 89.2948 61.4273C90.0536 61.2633 90.8882 60.8722 91.5838 60.5442C92.1781 60.2667 92.7725 59.9639 93.3669 59.7116C93.7969 59.5349 94.3786 59.3079 94.8465 59.3079C94.9097 59.3079 94.973 59.3331 95.0109 59.3836L95.15 59.5349C95.2385 59.6233 95.2259 59.7746 95.15 59.8503L87.322 67.1424C87.2588 67.2055 87.1702 67.2181 87.0817 67.1802C86.9932 67.1424 86.9426 67.0667 86.9426 66.9784L86.93 66.9658ZM66.5443 58.9168L65.6591 58.286C65.5832 58.2355 65.5452 58.1346 65.5705 58.0463C65.5958 57.9579 65.6591 57.8949 65.7602 57.8822L67.2778 57.6804C67.3789 57.6678 67.4675 57.7182 67.5054 57.7939L67.5686 57.9201C67.6192 58.0084 67.6066 58.1093 67.5307 58.185L66.8352 58.9041C66.7593 58.9798 66.6328 58.9925 66.5443 58.9294V58.9168ZM22.27 57.529C22.27 57.529 22.3079 57.4912 22.3205 57.4785C22.4091 57.3902 22.5482 57.3902 22.6367 57.4785C22.7252 57.5668 22.7252 57.7056 22.6367 57.7939C22.5988 57.8318 22.5735 57.857 22.5355 57.8949C22.447 57.9832 22.3079 57.9832 22.2194 57.8949C22.1308 57.8066 22.1308 57.6678 22.2194 57.5795C22.232 57.5668 22.2573 57.5416 22.27 57.529ZM88.7637 60.1405C88.751 59.6485 89.4719 58.3995 89.7374 57.9832C89.9904 57.5542 90.8629 56.1539 91.4067 56.1286C91.6849 56.116 92.0896 56.2295 92.3678 56.2926C92.7852 56.3936 93.2025 56.4819 93.6325 56.5323C93.7716 56.545 93.9107 56.5449 94.0498 56.5449C94.6947 56.5449 96.0985 56.6963 96.6675 56.9739C96.7434 57.0117 96.794 57.1001 96.794 57.1884C96.794 57.2767 96.7308 57.3524 96.6549 57.3902L89.0798 60.355C89.0039 60.3802 88.9407 60.3802 88.8775 60.3298C88.8143 60.2919 88.7763 60.2288 88.7763 60.1531L88.7637 60.1405ZM78.7732 63.9632L84.9445 55.2707C85.0078 55.1824 85.1342 55.1446 85.2354 55.195C85.3113 55.2329 85.5389 55.2707 85.6274 55.2833C85.8803 55.3338 86.1206 55.359 86.3735 55.3969C86.7529 55.4474 87.145 55.4978 87.537 55.5357C87.6761 55.5357 88.0302 55.46 88.1819 55.4347C88.4855 55.3843 88.9281 55.3338 89.1557 55.5735C89.4339 55.8637 89.2316 56.3431 89.0672 56.6459C88.3843 57.9453 87.714 59.2574 87.0438 60.5695C86.6518 61.3516 84.0593 62.5754 83.2499 62.9413C82.3647 63.345 81.4415 63.7235 80.531 64.0262C80.1895 64.1398 79.1652 64.493 78.8238 64.2659C78.7732 64.2281 78.7352 64.1776 78.7352 64.1146C78.7352 64.0515 78.7352 64.001 78.7732 63.9505V63.9632ZM81.4036 58.8032C80.2022 59.4845 79.3043 60.9353 78.6088 62.096C78.0903 62.9539 77.5844 63.8496 76.9901 64.657C76.4716 65.3383 75.8266 66.0196 74.992 66.3097C74.7264 66.3981 74.4608 66.4485 74.1826 66.4485C74.1194 66.4485 74.0561 66.4233 74.0182 66.3728C73.9676 66.3224 73.955 66.2593 73.955 66.1962C73.9803 65.9565 74.8149 64.8589 74.9667 64.6318C75.6622 63.673 76.3704 62.7268 77.0659 61.7932C77.7615 60.8722 78.457 59.9513 79.1399 59.0177C79.3802 58.6897 79.6205 58.3743 79.8481 58.0463C79.924 57.9453 79.9998 57.8444 80.0631 57.7309C80.0884 57.693 80.1263 57.6299 80.1516 57.5921C80.2275 57.4028 80.3034 57.2136 80.3919 57.0244C80.4298 56.9234 80.4804 56.8225 80.5436 56.7468C80.6195 56.6711 80.708 56.608 80.7966 56.5449C80.9736 56.4188 81.1507 56.2674 81.3151 56.1286C82.0232 55.5104 81.8462 54.9932 82.997 55.132C83.0855 55.132 83.1614 55.195 83.1867 55.2833C83.212 55.3717 83.1867 55.46 83.1235 55.5231C82.5417 56.0529 81.4921 57.8318 81.5048 58.614C81.5048 58.7023 81.4668 58.778 81.3909 58.8158L81.4036 58.8032ZM68.0998 68.4923L68.3906 64.1524C68.3274 63.7739 68.3021 63.3954 68.2642 63.017C68.2136 62.6133 68.1504 62.2348 68.0239 61.8563C67.6192 60.6199 67.1513 60.4559 68.1757 59.3457C68.3906 59.106 68.5424 58.8789 68.6941 58.5887C68.7953 58.3743 68.8965 58.1472 69.0482 57.9579C69.2506 57.7056 69.5035 57.5795 69.8197 57.4912C70.3255 57.3524 70.9072 57.3019 71.4257 57.2641C72.0833 57.2136 72.7536 57.1884 73.4112 57.1505C74.3091 57.1001 75.2575 57.0496 76.1428 56.8856C76.4589 56.8225 77.1797 56.6711 77.4074 56.3557H70.7808C70.7175 56.3557 70.6543 56.3179 70.6037 56.2674C70.5531 56.2169 70.5405 56.1539 70.5531 56.0908C70.6037 55.8132 71.021 55.2581 71.1981 55.0436C71.4004 54.7913 71.7672 54.4002 72.0707 54.2867C72.4121 54.1605 73.2594 54.1731 73.6388 54.1858C74.4861 54.1858 75.3334 54.2362 76.1807 54.2993C77.0912 54.3498 77.9891 54.4255 78.8996 54.5012C79.2158 54.5264 79.5193 54.5516 79.8355 54.5895C79.9619 54.6021 80.1769 54.6147 80.3034 54.6525C80.3919 54.6778 80.4551 54.7535 80.4678 54.8544C80.4678 55.0184 80.3034 55.3086 80.2275 55.46C80.0378 55.788 79.8354 56.1034 79.6331 56.4314C79.0387 57.3398 78.4191 58.2481 77.7868 59.1312C77.205 59.9639 76.6107 60.7839 76.0036 61.604C75.776 61.9068 75.5484 62.2095 75.3208 62.4997C75.1816 62.6763 75.0425 62.8656 74.8908 63.017C74.7137 63.2062 74.5493 63.4081 74.3849 63.6099C74.1573 63.9001 73.9297 64.1902 73.702 64.4678C73.1456 65.1869 72.5892 65.8934 72.0075 66.5873C71.3625 67.3569 70.6543 68.1517 69.8829 68.8077C69.377 69.2367 68.5803 69.8044 67.8721 69.7413C67.7583 69.7413 67.6698 69.6404 67.6698 69.5268C67.6445 69.06 67.986 68.9086 68.0998 68.5049V68.4923ZM71.1475 53.3152L61.5364 53.0882C61.4226 53.0882 61.3214 52.9872 61.3214 52.8737C61.3214 52.7601 61.3973 52.6592 61.5238 52.634L72.0075 51.2967C72.1213 51.2841 72.2224 51.3598 72.2604 51.4607L72.3236 51.7004C72.3363 51.7635 72.3236 51.8266 72.2857 51.8896L71.3625 53.2143C71.3119 53.2774 71.2487 53.3152 71.1728 53.3152H71.1475ZM105.178 50.792C105.292 50.7668 105.545 50.6407 105.621 50.6154C105.899 50.4766 106.14 50.3253 106.38 50.1612C106.557 50.0477 106.734 49.9089 106.949 49.8837C107.252 49.8332 107.531 50.0099 107.758 50.1739C107.809 50.2117 107.847 50.2622 107.847 50.3253C107.847 50.3883 107.847 50.4514 107.809 50.4893C106.873 51.7256 106.62 52.6592 105.204 53.5297C105.14 53.5676 105.052 53.6054 104.989 53.6307C104.837 53.6937 104.685 53.7568 104.546 53.8199C104.104 53.9965 103.661 54.1858 103.218 54.3624C102.763 54.539 102.32 54.7282 101.865 54.9049C101.764 54.9427 101.245 55.1698 101.157 55.1698C101.081 55.1698 101.018 55.132 100.967 55.0689C100.929 55.0058 100.917 54.9301 100.942 54.8544C101.283 54.0091 102.042 53.9713 102.586 53.3657C102.687 53.2522 102.763 53.126 102.814 52.9746C102.915 52.7223 102.991 52.4952 103.13 52.2681C103.345 51.9401 103.636 51.7004 103.977 51.4985C104.066 51.4481 104.369 51.2715 104.432 51.1831C104.508 51.057 104.597 50.9813 104.711 50.893C104.85 50.7921 105.001 50.6911 105.153 50.792H105.178ZM72.8674 52.9494C73.3353 52.1293 73.8917 51.3345 74.8023 50.9939C75.1437 50.8677 75.5104 50.8047 75.8772 50.7416C76.3072 50.6659 76.7371 50.6028 77.1671 50.5019C77.6097 50.401 78.0523 50.3126 78.5076 50.2369C79.1146 50.136 79.7216 50.0351 80.3413 49.9594C80.9736 49.8711 81.6186 49.7954 82.2635 49.7575C82.6935 49.7323 83.2373 49.6945 83.6673 49.7575C83.7305 49.7575 83.7937 49.808 83.8316 49.8585C83.8696 49.9215 83.8696 49.9846 83.8569 50.0477C83.8443 50.0982 83.819 50.1486 83.7937 50.1991C83.6293 50.5523 83.3637 50.8425 83.1235 51.1453C82.82 51.5238 82.5797 51.8896 82.4026 52.3312C82.2382 52.7349 81.9347 53.1134 81.6059 53.3909C81.1127 53.8073 80.4678 54.0344 79.8355 53.8073C78.7352 53.4036 77.3441 53.5802 76.1807 53.5928C75.6243 53.5928 75.0931 53.555 74.5367 53.4793C74.0435 53.4162 73.5629 53.3405 73.0697 53.3026C72.9939 53.3026 72.9306 53.2522 72.8927 53.1891C72.8547 53.1134 72.8547 53.0377 72.8927 52.9746L72.8674 52.9494ZM84.1731 54.2236H82.8705C82.7947 54.2236 82.7314 54.211 82.6935 54.1479C82.6429 54.0848 82.6303 54.0217 82.6556 53.9461C82.6935 53.782 82.8705 53.5297 82.9591 53.3783C83.1361 53.1008 83.3132 52.8232 83.4902 52.5457C83.7558 52.1293 84.0466 51.7256 84.2996 51.3093C85.1595 49.8963 85.0457 49.316 86.9553 49.316C87.0438 49.316 87.107 49.3538 87.1576 49.4295C87.1955 49.5052 87.1955 49.5809 87.1576 49.6566L84.3754 54.1101C84.3375 54.1731 84.2616 54.211 84.1857 54.211L84.1731 54.2236ZM104.432 49.7954C104.432 49.7954 104.47 49.8459 104.47 49.8837C104.521 50.0225 104.432 50.136 104.318 50.2117C104.217 50.2748 104.104 50.3379 104.002 50.3883C102.991 50.8804 101.119 50.7542 100.563 49.6188C100.373 49.2277 100.196 48.6978 100.525 48.3319C100.79 48.0291 101.271 47.9913 101.637 47.9913C101.815 47.9913 101.992 47.9913 102.181 47.9913C102.282 47.9913 102.434 47.9913 102.535 47.9913C103.711 47.7642 104.812 47.4488 105.785 48.3824C105.861 48.4581 105.874 48.559 105.823 48.6599C105.507 49.215 105.229 49.3286 104.698 49.6314C104.647 49.6566 104.521 49.7323 104.42 49.7954H104.432ZM91.5838 54.9806C91.6344 54.7282 91.8999 54.2993 92.039 54.0848C92.3046 53.6433 92.5955 53.2017 92.8863 52.7728C93.1645 52.3564 93.4554 51.9527 93.7336 51.549C93.9233 51.2841 94.1004 51.0191 94.3027 50.7668C94.6694 50.3 94.9982 49.8332 95.327 49.3286C95.4788 49.0889 95.6432 48.7987 95.8835 48.6347C96.149 48.4581 96.5031 48.4202 96.8067 48.395C97.4769 48.3319 98.1471 48.2941 98.8174 48.231C98.9186 48.231 99.0071 48.2815 99.045 48.3698C99.1841 48.6978 99.1715 49.0763 99.2474 49.4169C99.3485 49.8711 99.5635 50.2243 99.905 50.5397C100.221 50.8425 100.55 51.0318 100.967 51.1705C101.271 51.2588 101.612 51.3219 101.878 51.4733C102.093 51.5995 102.232 51.7761 102.333 52.0032C102.384 52.1041 102.346 52.2177 102.27 52.2807C102.131 52.3943 101.966 52.4826 101.815 52.5835C101.612 52.7097 101.334 52.8485 101.157 53.0125C100.386 53.7316 99.045 56.3179 97.9954 56.3683C97.8184 56.3683 97.6034 56.3683 97.439 56.3305C97.3378 56.2926 97.2872 56.2548 97.1987 56.1917C97.1102 56.1539 96.6043 56.2674 96.5158 56.28C95.8835 56.4188 95.3523 56.1791 94.7706 55.952C94.3912 55.8006 94.0245 55.7249 93.6198 55.6871C93.2784 55.6492 92.9369 55.6492 92.6081 55.5861C92.2793 55.5357 91.9758 55.4347 91.6849 55.2581C91.5964 55.2077 91.5585 55.1067 91.5838 55.0184V54.9806ZM100.322 46.9316L100.778 45.9223C100.828 45.8087 100.955 45.7583 101.068 45.8087L102.358 46.3638C102.447 46.4017 102.497 46.49 102.497 46.5909C102.497 46.6918 102.422 46.7675 102.333 46.7928L100.588 47.2596C100.499 47.2848 100.411 47.2596 100.36 47.1839C100.297 47.1208 100.284 47.0325 100.322 46.9442V46.9316ZM99.1715 47.247H96.971C96.8825 47.2722 96.8067 47.2217 96.7687 47.146C96.7308 47.0703 96.7308 46.982 96.7687 46.9189L97.8563 45.2915C97.9069 45.2284 97.9701 45.1905 98.046 45.1905C98.4127 45.1905 98.8427 45.2158 99.1968 45.2789C99.4244 45.3293 99.6773 45.4176 99.7785 45.6447C99.867 45.8592 99.7785 46.0989 99.7026 46.3008C99.5888 46.5657 99.4623 46.8306 99.3612 47.0956C99.3232 47.1839 99.2474 47.2343 99.1462 47.2343L99.1715 47.247ZM101.524 56.6333C101.65 56.5702 101.789 56.5071 101.916 56.444C102.232 56.2926 102.535 56.1286 102.839 55.9646C103.737 55.4852 104.635 54.968 105.507 54.4128C106.38 53.8577 108.087 52.6971 108.53 51.7382C108.732 51.2841 108.871 50.8425 108.884 50.3505C108.884 50.0351 108.833 49.6945 108.884 49.3917C108.934 49.0637 109.111 48.8113 109.352 48.5969C109.731 48.2436 110.287 47.9534 110.755 47.7137C112.463 46.8432 114.334 47.4993 116.117 47.1965C117.597 46.9442 119.14 46.8559 120.632 46.7675C121.871 46.7045 123.111 46.654 124.35 46.5783C125.311 46.5152 126.336 46.4521 127.271 46.2503C127.701 46.162 128.195 46.1367 128.637 46.1115C129.219 46.0863 129.801 46.0863 130.382 46.0863C130.901 46.0863 131.407 46.0863 131.925 46.0863C132.342 46.0863 132.76 46.0863 133.177 46.0484C134.075 45.9727 134.973 45.8466 135.858 45.7456C136.794 45.6321 137.78 45.5186 138.729 45.5186C138.805 45.5186 138.868 45.5564 138.918 45.6195C138.956 45.6826 138.969 45.7583 138.931 45.834C138.653 46.4648 138.223 47.1208 137.831 47.7011C137.3 48.4833 136.743 49.2403 136.187 50.0099C135.706 50.6659 135.226 51.3093 134.745 51.978C134.366 52.5078 133.974 53.0503 133.632 53.618C131.976 56.3179 130.155 58.9041 128.321 61.4778C127.474 62.6637 126.576 63.7992 125.703 64.9598C124.717 66.2845 123.743 67.6597 122.997 69.1357C122.744 69.6404 122.453 70.145 122.188 70.6496C121.72 71.5202 121.239 72.378 120.746 73.2359C120.215 74.1695 119.696 75.1031 119.14 76.0241C118.95 76.3395 118.773 76.6549 118.571 76.9577C118.482 77.0964 118.318 77.3866 118.153 77.4118C118.04 77.4371 117.926 77.374 117.901 77.2604C117.749 76.7936 117.749 76.2007 117.761 75.7087C117.787 75.04 117.837 74.3588 117.875 73.6901C117.951 72.1888 117.926 70.5992 117.344 69.1862C116.914 68.1264 116.497 67.0289 115.94 66.0322C115.384 65.0355 114.701 64.2281 113.879 63.4459C113.07 62.6889 112.146 61.9951 111.236 61.3769C110.325 60.7587 109.377 60.1784 108.391 59.6863C107.973 59.4719 107.493 59.3079 107.05 59.1438C106.468 58.942 105.874 58.7527 105.292 58.5635C104.445 58.2986 103.598 58.0336 102.763 57.7309C102.472 57.6299 102.156 57.5038 101.89 57.365C101.713 57.2767 101.46 57.1253 101.423 56.9234C101.397 56.8225 101.46 56.709 101.562 56.6711L101.524 56.6333ZM90.0662 47.2848L92.2034 43.9794C92.254 43.9037 92.3425 43.8659 92.4437 43.8785L96.0985 44.6354C96.2123 44.6607 96.3008 44.7742 96.2755 44.9004C96.0732 46.0358 94.9982 47.1082 93.9107 47.4362C93.8601 47.4488 93.7589 47.4488 93.6957 47.4614C93.5566 47.4614 93.4175 47.4867 93.291 47.4867C92.8737 47.5119 92.469 47.5371 92.0517 47.5624C91.6723 47.5876 91.3056 47.6002 90.9262 47.6254C90.7238 47.6254 90.4456 47.6507 90.2433 47.6254C90.1674 47.6254 90.1042 47.575 90.0662 47.4993C90.0283 47.4236 90.0409 47.3479 90.0789 47.2848H90.0662ZM86.5126 47.8021L90.0536 42.5664C90.0536 42.5664 90.1421 42.4781 90.2053 42.4655C90.2686 42.4655 90.3318 42.4655 90.3824 42.5033L91.0779 43.0206C91.1664 43.0837 91.1917 43.2098 91.1412 43.3108C90.5974 44.2696 89.9904 45.1905 89.4086 46.1241C88.4855 47.575 88.7257 48.3572 86.6897 48.1427C86.6138 48.1427 86.5379 48.0922 86.5126 48.0165C86.4747 47.9408 86.4874 47.8651 86.5253 47.8021H86.5126ZM78.5961 46.8937C79.1146 44.9635 81.138 43.9416 82.2256 42.3772C82.3015 42.2636 82.4153 42.1375 82.5164 42.0365C82.6808 41.8599 82.8452 41.6833 83.0096 41.5193C83.4523 41.0651 83.9075 40.6109 84.3754 40.1694C84.8686 39.7026 85.3745 39.2358 85.893 38.7942C86.0953 38.6176 86.6644 38.1256 86.9426 38.1382C87.0438 38.1382 87.1323 38.2139 87.145 38.3148C87.2082 38.5671 87.2714 38.8321 87.2841 39.097C87.2841 39.2232 87.2841 39.3367 87.2841 39.4503C87.2841 39.5638 87.322 39.6647 87.3726 39.7657C87.4991 40.0558 87.6634 40.3586 87.8152 40.6488C87.9543 40.9011 88.1187 41.103 88.3463 41.2922C88.4981 41.4184 88.7004 41.5319 88.7763 41.7211C88.8901 42.0365 88.5613 42.4276 88.3716 42.6547C88.2958 42.743 88.2199 42.9197 88.1567 43.0206C88.0302 43.2477 87.9037 43.4748 87.7899 43.7145C87.6129 44.0551 87.4105 44.421 87.2588 44.7742C87.1197 45.077 86.9553 45.3545 86.7403 45.6069C86.5759 45.7961 86.4115 45.9601 86.2471 46.1494C86.0953 46.3134 85.9815 46.4774 85.893 46.6792C85.7918 46.8937 85.7159 47.1082 85.6401 47.3226C85.5768 47.4993 85.5136 47.6633 85.3998 47.8147C85.1469 48.1679 84.6663 48.3319 84.2616 48.4581C83.9202 48.559 83.5155 48.6095 83.1614 48.6599C82.8832 48.6978 82.5923 48.723 82.3141 48.7483C82.2003 48.7483 81.96 48.7735 81.8588 48.8113C80.9989 49.1141 80.1137 49.2024 79.2158 49.2277C78.3811 49.2529 77.5338 49.2277 76.7118 49.3538C76.6107 49.3664 76.5221 49.316 76.4716 49.2277C76.421 49.1394 76.4463 49.0384 76.5221 48.9627L78.6214 46.9316L78.5961 46.8937ZM122.099 41.4814L124.236 40.0054C124.236 40.0054 124.35 39.9549 124.413 39.9675C124.477 39.9801 124.527 40.018 124.565 40.0811L124.666 40.2451C124.666 40.2451 124.692 40.3081 124.692 40.3334C124.717 40.5857 124.767 41.0146 124.54 41.2039C124.439 41.2922 124.312 41.3048 124.186 41.3553C124.009 41.431 123.87 41.5445 123.73 41.6833C123.617 41.7968 123.528 41.923 123.427 42.0365C123.338 42.1501 123.237 42.251 123.098 42.3015C122.769 42.4024 122.327 42.0239 122.086 41.8347C122.023 41.7842 121.998 41.7211 121.998 41.6454C121.998 41.5697 122.036 41.5067 122.099 41.4688V41.4814ZM117.825 42.8313C117.736 41.7842 119.026 40.5857 119.747 39.9423C119.861 39.8414 120 39.6395 120.101 39.5133C120.291 39.261 120.493 39.0213 120.695 38.7942C121.201 38.2517 122.048 37.5452 122.744 38.2391C122.858 38.3527 122.934 38.4914 122.908 38.6554C122.87 38.9456 122.542 39.1475 122.314 39.2862C122.226 39.3493 121.973 39.4881 121.909 39.5638C121.846 39.6521 121.808 39.7152 121.783 39.8161C121.745 39.9675 121.707 40.0684 121.631 40.2198C121.467 40.51 121.239 40.8002 121.024 41.0651C120.872 41.2543 120.683 41.431 120.518 41.595C120.265 41.8347 120 42.0618 119.722 42.2636C119.292 42.5916 118.596 43.0584 118.04 43.0332C117.926 43.0332 117.837 42.9449 117.825 42.8313ZM89.3075 40.5983C88.7637 40.0306 88.3337 39.2736 88.574 38.4788C88.9154 37.3434 90.4077 36.6747 91.4953 36.4603C91.5838 36.4476 91.6723 36.4729 91.7229 36.5486C91.7735 36.6243 91.7861 36.7126 91.7355 36.7883L89.6615 40.5479C89.6236 40.6109 89.5604 40.6488 89.4972 40.6614C89.4213 40.6614 89.358 40.6488 89.3075 40.5983ZM112.564 44.7994C112.45 44.6354 112.336 44.4588 112.235 44.2822C112.172 44.156 112.134 44.0299 112.172 43.8911C112.21 43.7776 112.298 43.6892 112.374 43.6009C112.488 43.4622 112.551 43.2981 112.602 43.1215C112.69 42.8566 112.728 42.5916 112.791 42.3267C112.893 41.9356 113.057 41.6454 113.297 41.33C113.613 40.9263 113.79 40.5605 114.005 40.1063C114.284 39.4881 114.549 39.0592 115.017 38.5545C115.371 38.176 115.801 37.7471 116.294 37.5579C116.611 37.4317 116.851 37.4443 117.18 37.4317C117.546 37.4317 117.761 37.3182 118.04 37.0658C118.583 36.5864 119.064 36.2079 119.734 35.943C119.924 35.8673 120.101 35.8042 120.291 35.7159C120.544 35.6024 120.784 35.4636 121.024 35.3248C121.087 35.287 121.163 35.2744 121.239 35.3248C121.315 35.3627 121.353 35.4258 121.366 35.5014C121.404 35.7664 121.366 36.0313 121.239 36.271C121.087 36.5738 120.796 36.7883 120.531 36.9649C120.202 37.192 119.848 37.3812 119.519 37.6083C118.495 38.3274 117.825 39.1979 117.331 40.346C117.268 40.4848 117.218 40.6488 117.192 40.8002C117.18 40.8885 117.192 40.9768 117.167 41.0651C117.104 41.3553 116.737 41.6202 116.522 41.7842C116.092 42.1249 115.877 42.6169 115.485 42.9701C115.03 43.3865 113.31 44.8625 112.766 44.913C112.678 44.913 112.602 44.8878 112.564 44.8121V44.7994ZM90.825 41.3679C90.8503 41.002 91.5838 39.7152 91.7861 39.3746C92.1023 38.8068 92.4311 38.2391 92.7599 37.684C93.1772 36.9901 93.506 36.1322 94.113 35.5898C94.6694 35.0977 95.3397 34.9716 96.0605 35.0347C96.1364 35.0347 96.1996 35.0851 96.2376 35.1482C96.2755 35.2113 96.2755 35.287 96.2376 35.3627C95.5926 36.6243 94.72 37.7976 93.9486 38.9961C93.506 39.6773 93.1266 40.346 92.7599 41.0525C92.6081 41.33 92.4058 41.7842 92.077 41.8978C91.7482 42.0113 91.255 41.7338 90.9515 41.6076C90.8629 41.5697 90.8123 41.4814 90.825 41.3931V41.3679ZM100.006 31.9816L100.815 32.032C100.879 32.032 100.929 32.0573 100.98 32.1077C101.018 32.1582 101.043 32.2087 101.03 32.2844C100.967 32.789 100.714 33.2936 100.158 33.3693C99.8038 33.4198 99.3485 33.2558 99.2474 32.8647C99.1336 32.4358 99.5635 32.1456 99.905 31.9942C99.9429 31.9816 99.9682 31.9816 100.006 31.9816ZM102.978 42.8061C102.826 42.5916 102.953 42.3898 103.092 42.1753C103.193 42.0113 103.319 41.8599 103.433 41.7085C103.674 41.4184 103.939 41.1408 104.179 40.838C104.445 40.51 104.673 40.1694 104.862 39.7909C104.938 39.6395 105.039 39.4881 105.128 39.3619C105.28 39.1475 105.431 38.9456 105.583 38.7311C105.988 38.1887 106.405 37.6588 106.822 37.1415C107.214 36.6621 107.607 36.1701 108.011 35.7033C108.277 35.3879 108.568 35.0473 108.858 34.7445C109.175 34.4291 109.516 34.1263 109.845 33.8488C110.3 33.4577 110.781 33.0666 111.249 32.6881C111.754 32.2844 112.26 31.8933 112.779 31.5148C113.12 31.2625 113.55 30.9597 113.942 30.7831C114.65 30.455 115.371 30.1144 116.092 29.8242C116.547 29.6476 116.99 29.4836 117.471 29.3953C117.976 29.307 118.495 29.307 119.001 29.3196C119.861 29.3196 120.708 29.3448 121.568 29.3448C121.631 29.3448 121.682 29.3701 121.732 29.4079C121.77 29.4458 121.796 29.5088 121.796 29.5719C121.796 29.9504 121.796 30.4046 121.682 30.7704C121.618 30.9975 121.543 31.1615 121.378 31.3255C121.29 31.4139 121.201 31.4896 121.125 31.6031C121.011 31.7671 120.923 31.9563 120.872 32.1456C120.695 32.7007 120.404 33.1675 119.962 33.546C119.33 34.0885 118.444 34.4039 117.698 34.7571C116.611 35.2617 115.725 35.8295 114.878 36.6874C114.625 36.9397 114.385 37.2298 114.17 37.52C113.892 37.8733 113.639 38.2265 113.373 38.5924C112.905 39.2484 112.45 39.9297 111.982 40.5857C111.932 40.674 111.868 40.838 111.83 40.9263C111.742 41.1408 111.653 41.3679 111.577 41.5824C111.502 41.7842 111.426 41.9987 111.35 42.2005C111.312 42.3267 111.261 42.4655 111.223 42.5916C111.185 42.743 111.173 42.8944 111.16 43.0458C111.109 43.992 111.413 44.9004 111.211 45.8592C111.185 45.9475 111.122 46.0106 111.034 46.0358C109.036 46.4774 102.864 47.0956 101.802 44.8499C101.777 44.7994 101.777 44.749 101.802 44.6859C101.827 44.6102 101.903 44.484 101.941 44.4084C102.017 44.2696 102.105 44.1308 102.181 43.992C102.257 43.8532 102.346 43.7271 102.434 43.5883C102.485 43.5126 102.535 43.4243 102.586 43.3486C102.649 43.2603 102.902 42.9323 102.965 42.7809L102.978 42.8061ZM99.9303 28.9285C99.475 28.6257 99.1841 27.6038 99.2474 27.074C99.3359 26.2791 100.474 25.3708 101.068 24.9292C101.511 24.6012 101.979 24.2984 102.46 24.0335C102.725 23.8821 103.168 23.6424 103.471 23.5919C103.56 23.5793 103.648 23.6046 103.699 23.6929C103.749 23.7686 103.749 23.8695 103.699 23.9452L100.234 28.878C100.158 28.979 100.031 29.0042 99.9303 28.9411V28.9285ZM93.7589 32.1582C93.7589 32.1582 93.7589 32.1834 93.7589 32.1961C93.7589 33.609 93.0128 34.4922 91.7482 35.0094C90.8882 35.3627 89.5351 36.4729 88.6625 36.4981C88.5613 36.4981 88.4855 36.4476 88.4475 36.3593C88.4096 36.271 88.4475 36.1701 88.5107 36.107L93.2657 31.8933C93.2657 31.8933 93.3669 31.8302 93.4301 31.8428C93.4301 31.8428 93.4301 31.8428 93.4428 31.8428C93.4554 31.8302 93.4807 31.805 93.4933 31.7923C93.506 31.7797 93.5313 31.7545 93.5439 31.7419C93.6325 31.6536 93.7716 31.6536 93.8601 31.7419C93.9486 31.8302 93.9486 31.969 93.8601 32.0573C93.8221 32.0951 93.7969 32.1204 93.7589 32.1582C93.7589 32.1582 93.7589 32.1582 93.7463 32.1708L93.7589 32.1582ZM86.0194 54.3371C85.9309 54.4255 85.7918 54.4255 85.7033 54.3371C85.6148 54.2488 85.6148 54.1101 85.7033 54.0217C85.7159 54.0091 85.7286 53.9965 85.7412 53.9839C85.7539 53.9713 85.7792 53.9461 85.7918 53.9334C85.855 53.8704 85.9562 53.8451 86.0321 53.883C86.1712 53.3026 86.8667 52.3312 87.1829 51.9275C87.5876 51.3976 87.9417 50.8677 88.2452 50.2748C88.3843 50.0099 88.536 49.6314 88.7637 49.4421C88.9787 49.2529 89.2822 49.1898 89.5604 49.1646C90.0789 49.1015 90.6353 49.0889 91.1664 49.0637C91.5332 49.051 91.7988 48.9753 92.1402 48.8618C92.7219 48.6599 93.1266 48.5716 93.7589 48.5842C93.8727 48.5842 93.9613 48.6599 93.9739 48.7735C94.0498 49.2277 93.7336 49.7197 93.4681 50.0603C93.3163 50.2622 93.1393 50.4514 92.9749 50.628C92.8737 50.7416 92.7472 50.8551 92.6461 50.9813C92.3046 51.4355 91.9885 51.9275 91.6723 52.3943C91.5205 52.6214 91.3561 52.8485 91.1917 53.0629C91.0147 53.29 90.8882 53.5423 90.7618 53.7947C90.6353 54.0344 90.5215 54.2741 90.3318 54.4759C90.0283 54.7913 89.6363 54.8923 89.2189 54.9049C88.4475 54.9301 86.7656 54.7282 86.1333 54.2236C86.1333 54.2236 86.1333 54.2236 86.1333 54.2362C86.108 54.2614 86.07 54.2993 86.0447 54.3245L86.0194 54.3371ZM73.2088 72.7187C73.2847 72.7818 73.3606 72.8196 73.4618 72.8322C74.2458 72.8827 75.4978 70.4983 75.814 69.9179C76.1681 69.2619 76.5095 68.5932 76.8889 67.9498C77.1165 67.5587 77.4959 66.9405 77.8753 66.6882C78.0144 66.5873 78.2041 66.5116 78.3558 66.4233C78.6467 66.2719 78.9502 66.1205 79.2411 65.9817C80.0757 65.578 80.9104 65.1743 81.745 64.7832C82.605 64.3795 83.4649 63.9758 84.3375 63.5847C84.641 63.4459 84.9445 63.3197 85.248 63.1936C85.3745 63.1431 85.6148 63.0296 85.7412 63.017C85.8298 63.0043 85.9183 63.0422 85.9689 63.1305C86.0194 63.2062 86.0068 63.3071 85.9436 63.3828C85.5895 63.8244 85.5136 65.0355 85.5009 65.578C85.4883 66.2088 85.501 66.9784 85.6274 67.5966C85.678 67.811 85.7665 68.0129 85.9562 68.1517C86.4241 68.4923 87.2082 68.3409 87.7014 68.1643C88.0555 68.0381 88.4349 67.8363 88.7257 67.584C90.5847 65.9439 92.3299 64.1902 94.0751 62.4366C94.4039 62.1086 94.7074 61.7554 95.0235 61.4147C95.4661 60.9353 95.9214 60.4559 96.3767 59.9891C96.9205 59.4466 97.5148 58.8789 98.1471 58.4247C98.5392 58.1472 99.1968 57.7309 99.7026 57.8822C104.571 59.3205 110.174 61.0867 113.689 64.9346C116.155 67.6344 116.13 69.1105 116.8 72.5168C117.041 73.7658 117.306 75.0779 117.015 76.3395C116.864 77.0207 116.788 77.7146 116.686 78.3959C116.598 79.0519 116.484 79.7206 116.219 80.3261C115.46 82.0671 112.981 84.9941 113.98 87C114.094 86.836 114.22 86.6594 114.322 86.4954C114.688 85.9403 115.042 85.3725 115.397 84.8174C116.408 83.19 117.395 81.5499 118.381 79.9098C119.266 78.4337 120.152 76.945 121.049 75.469C121.606 74.548 122.15 73.6144 122.731 72.7061C125.817 67.8363 129.168 63.1431 132.191 58.2481C133.708 55.788 135.302 53.3783 136.857 50.9434C137.376 50.1234 137.894 49.3034 138.413 48.4833C138.754 47.9534 139.083 47.411 139.45 46.8937C139.804 46.3891 140.259 45.7204 140.879 45.5312C141.233 45.4176 141.625 45.4555 141.992 45.4807C142.573 45.5186 143.13 45.5564 143.724 45.5564C145.204 45.5438 146.696 45.5564 148.176 45.5564C150.54 45.5564 152.905 45.5564 155.257 45.5438C157.825 45.5312 160.404 45.5059 162.972 45.405C163.882 45.3672 164.805 45.3293 165.716 45.2536C165.981 45.2284 166.247 45.2032 166.512 45.1653C166.512 45.1401 166.512 45.1275 166.512 45.1022C166.512 45.0644 166.512 45.0391 166.512 45.0265C166.399 44.9887 166.184 44.9635 166.095 44.9508H141.473C141.397 44.9508 141.334 44.9256 141.283 44.8625C141.245 44.7994 141.233 44.7237 141.258 44.6481C141.422 44.2317 141.637 43.828 141.852 43.4369C142.131 42.9323 142.434 42.4529 142.75 41.9608C143.496 40.8128 144.293 39.69 145.102 38.5924C145.849 37.5705 146.595 36.5738 147.354 35.5645C147.948 34.7823 148.542 34.0128 149.111 33.218C149.744 32.3601 150.389 31.5148 151.034 30.6695C151.995 29.4079 152.956 28.1589 153.917 26.8973C156.37 23.6929 158.824 20.4884 161.264 17.2587C162.757 15.2906 164.224 13.2973 165.69 11.3039C166.98 9.5377 168.258 7.77146 169.497 5.96737C170.408 4.65531 171.318 3.29278 172.127 1.90502C172.292 1.61485 172.924 0.50464 173 0.025232C172.911 0 172.836 0 172.747 0C172.102 0.050464 171.445 0.933585 171.103 1.41299C170.762 1.90502 170.445 2.43489 170.066 2.90168C168.688 4.63008 167.385 6.42155 166.07 8.20041C164.616 10.1685 163.161 12.1492 161.606 14.0416C158.583 17.6876 155.687 21.4598 152.88 25.2699C150.174 28.9411 147.556 32.6881 145.039 36.4981C144.66 37.0658 144.306 37.6462 143.952 38.2265C143.522 38.933 143.092 39.6269 142.662 40.3334C142.181 41.1156 141.688 41.8852 141.17 42.6547C140.765 43.2477 140.335 43.8785 139.854 44.4084C139.488 44.8121 138.084 44.9887 137.565 45.0518C136.263 45.2158 134.935 45.3041 133.62 45.3672C132.444 45.4302 131.28 45.4681 130.104 45.5059C129.333 45.5312 128.549 45.5438 127.79 45.5943C125.842 45.7078 123.882 45.7961 121.922 45.8844C120.556 45.9349 119.19 45.9853 117.825 45.998C117.369 45.998 116.901 45.998 116.434 45.9854C116.244 45.9854 115.801 45.9854 115.675 45.7835C115.675 45.7835 115.675 45.7709 115.675 45.7583C115.612 45.6069 115.586 45.4429 115.637 45.2915C115.763 44.9004 116.294 44.7616 116.649 44.6859C117.167 44.5724 117.736 44.5345 118.267 44.4714C118.634 44.4336 119.013 44.4083 119.38 44.3453C119.658 44.3074 119.962 44.257 120.227 44.156H120.253L125.691 42.8692C126.778 42.6547 127.929 42.5916 127.765 41.1787C127.537 40.9516 127.221 40.7749 126.943 40.6109C126.538 40.3586 126.222 40.0937 125.994 39.6647C125.855 39.3998 125.678 39.1096 125.374 39.0213C125.185 38.9582 124.957 38.9708 124.755 38.9582C124.426 38.9456 124.122 38.9078 123.806 38.8068C123.73 38.7816 123.68 38.7311 123.655 38.6554C123.553 38.3148 123.579 38.0625 123.579 37.7219C123.579 37.5579 123.566 37.4065 123.503 37.2551C123.477 37.2046 123.389 36.9523 123.313 36.9523C123.212 36.9523 123.136 36.9523 123.022 36.9397C122.82 36.8892 122.668 36.7504 122.554 36.5864C122.554 36.5864 122.554 36.5738 122.542 36.5612L121.277 34.2777C121.239 34.202 121.239 34.1137 121.277 34.0506C121.328 33.9497 121.378 33.8361 121.441 33.7352C121.555 33.5207 121.656 33.3063 121.77 33.0792C121.871 32.8773 121.973 32.6881 122.074 32.4862C122.137 32.3601 122.213 32.2213 122.289 32.1077C123.022 31.0732 123.288 29.8621 122.529 28.7645C121.96 27.9445 120.86 27.3389 119.861 27.3389C119.785 27.3389 119.671 27.3641 119.595 27.3767C119.405 27.4146 119.216 27.4524 119.026 27.4903C118.495 27.6038 117.951 27.7174 117.42 27.8309C116.876 27.9445 116.332 28.0706 115.776 28.1968C115.586 28.2346 115.397 28.2851 115.207 28.3356C115.131 28.3482 115.042 28.3734 114.967 28.3986C114.347 28.7771 113.727 29.143 113.108 29.5088C112.741 29.7359 112.387 29.9504 112.033 30.1901C111.767 30.3667 111.489 30.556 111.236 30.7704C109.086 32.5998 107.126 34.8833 105.495 37.1794C105.292 37.4569 105.153 37.5957 104.862 37.7597C104.748 37.8354 104.673 37.8859 104.597 37.9994C104.42 38.2265 104.281 38.5419 104.167 38.8068C103.876 39.4881 103.269 39.9927 102.852 40.5857C102.7 40.7876 102.561 41.0525 102.434 41.267C102.194 41.6707 101.954 42.087 101.713 42.4907C101.46 42.9197 101.208 43.3612 100.955 43.7902C100.841 43.992 100.702 44.2191 100.588 44.4336C100.563 44.484 100.537 44.5219 100.487 44.5471C100.423 44.585 100.348 44.585 100.284 44.5471C100.107 44.4588 99.9556 44.3327 99.867 44.156C99.2474 42.9701 101.65 40.4343 102.333 39.526C103.737 37.6336 105.052 35.6655 106.443 33.7604C107.72 32.0068 108.947 30.2027 110.186 28.4239C111.615 26.3675 113.057 24.2984 114.638 22.3429C116.042 20.6146 117.407 18.8609 118.824 17.1325C120.354 15.2654 121.935 13.436 123.642 11.7203C124.224 11.1273 124.831 10.5344 125.425 9.95403C126.424 8.99521 127.423 8.0364 128.447 7.10281C129.054 6.54771 129.687 5.9926 130.306 5.46273C130.863 4.99594 131.432 4.52915 132.014 4.1002C132.431 3.79742 132.912 3.45679 133.379 3.2297C133.658 3.09092 134.1 2.92691 134.379 3.154C134.429 3.20447 134.454 3.25493 134.454 3.33063C134.454 3.40632 134.416 3.45679 134.366 3.50725L133.417 4.22636C133.417 4.22636 133.417 4.27683 133.417 4.31468C133.405 4.54176 133.215 4.71839 133.051 4.85716C132.874 5.02117 132.684 5.15995 132.52 5.34919C132.077 5.85383 132.039 6.40893 132.216 7.0145C132.317 7.0145 132.418 7.0145 132.507 7.00188C133.278 6.83788 134.012 5.60151 134.492 5.00856C135.681 3.55771 135.871 3.25493 135.795 1.41299C135.201 1.13544 134.341 0.731729 133.708 0.807425C133.152 0.870505 132.595 1.31206 132.178 1.6527C131.773 1.98071 131.369 2.32135 130.977 2.67459C130.408 3.16662 129.839 3.64603 129.257 4.11282C128.258 4.93286 127.284 5.81598 126.336 6.6991C125.412 7.55699 124.502 8.45273 123.617 9.34846C121.808 11.1904 120.177 13.1837 118.368 15.013C117.369 16.0097 116.509 17.1956 115.675 18.3437C114.992 19.2773 114.322 20.2235 113.588 21.1318C112.716 22.2042 111.944 23.4027 111.185 24.5508C110.515 25.56 109.858 26.5945 109.124 27.566C107.569 29.6476 106.089 31.805 104.559 33.9118C103.8 34.959 103.054 36.0187 102.32 37.0784C101.562 38.1634 100.815 39.2484 100.107 40.3586C99.9808 40.5605 99.8291 40.7623 99.69 40.9642C99.4624 41.2922 99.2221 41.6076 98.9818 41.9356C98.7289 42.2762 98.476 42.6169 98.2104 42.9449C98.1092 43.0837 97.8436 43.4243 97.6919 43.5126C97.2619 43.7775 95.8582 43.4495 95.3776 43.3234C94.9224 43.2098 93.6325 42.8566 93.291 42.5538C93.2278 42.5033 93.2025 42.4276 93.2151 42.3519C93.3922 41.2165 95.2006 39.5638 95.972 38.6807C96.4273 38.1634 96.8067 37.3055 97.0975 36.6874C97.4137 36.0187 97.8057 35.123 98.2863 34.5679C98.3115 34.5426 98.3368 34.5174 98.3748 34.5048C98.6656 34.3912 98.9059 34.3408 99.2094 34.4291C99.4876 34.5048 99.5888 34.5426 99.8923 34.5048C100.069 34.4796 100.196 34.4669 100.348 34.366C100.626 34.1768 100.917 34.1515 101.245 34.1389C101.65 34.1137 102.055 34.1642 102.472 34.1768C102.776 34.1768 103.13 34.1894 103.408 34.0632C103.61 33.9749 103.749 33.8235 103.863 33.6343C103.876 33.546 103.876 33.4703 103.863 33.382C103.762 32.8899 103.041 32.4358 102.637 32.2087C102.32 32.032 102.004 31.8554 101.688 31.6788C101.46 31.5526 101.157 31.3634 100.993 31.1615C100.98 31.1363 100.967 31.1111 100.955 31.0858C100.841 30.6695 101.625 29.2944 101.827 28.9285C102.51 27.7048 103.269 26.5062 104.066 25.3582C104.85 24.2354 105.71 23.0873 106.671 22.1032C107.139 21.6238 108.15 20.6272 108.896 20.8038C108.998 20.829 109.061 20.9047 109.073 21.0057C109.099 21.3211 109.061 22.0023 109.238 22.242C109.352 22.406 109.579 22.4439 109.769 22.4439C109.933 22.3177 110.073 21.9897 110.136 21.8257C110.275 21.4346 110.351 20.9804 110.376 20.5641C110.401 19.9964 110.313 19.1637 109.832 18.7726C109.073 18.1544 107.72 19.0376 107.113 19.4791C106.165 20.1604 105.254 20.8795 104.293 21.5481C103.282 22.2546 102.257 22.8728 101.144 23.4279C100.057 23.9704 99.3865 24.7778 98.5012 25.5726C97.401 26.5693 97.6287 27.1496 97.8942 28.4491C97.9954 28.8907 98.1345 29.2818 98.3748 29.6602C98.5392 29.9252 98.7542 30.1901 98.8427 30.4803C99.0197 31.048 98.7162 31.6283 98.4254 32.0951C97.6287 33.382 96.4652 34.038 94.935 33.8992C94.8718 33.8992 94.8086 33.8614 94.7706 33.8109C94.7327 33.7604 94.72 33.6974 94.7327 33.6343L95.5041 30.0387L95.0488 29.1934C94.113 29.471 92.1908 31.0858 91.5585 31.6157C89.5857 33.281 87.6887 35.0851 85.8424 36.8892C84.1478 38.5419 82.4912 40.2198 80.8471 41.9356C80.2022 42.6043 79.5699 43.2855 78.9376 43.9668C78.5202 44.421 78.0903 44.8878 77.6856 45.3672C76.8257 46.3764 74.5746 49.3538 73.3985 49.6818C72.88 49.8206 72.311 49.9215 71.7798 50.0099C71.0463 50.1234 70.3002 50.2243 69.5541 50.3253C68.8333 50.4136 68.1251 50.4893 67.4042 50.565C66.8731 50.6154 66.3293 50.6659 65.7982 50.7037L50.9895 52.8611C48.9028 53.1891 46.7783 53.2143 44.6664 53.2269C43.7053 53.2269 42.7442 53.2269 41.783 53.2648C40.9484 53.29 40.1011 53.3531 39.2791 53.4919C34.7265 54.2741 30.098 54.4759 25.6338 55.7375C24.4325 56.0782 23.1425 56.2926 21.9032 56.4566C20.7145 56.6206 19.5257 56.7594 18.337 56.8982C17.8564 56.9487 17.3885 57.0117 16.908 57.0748C16.5792 57.1253 16.2377 57.1631 15.9216 57.2514C15.4284 57.3776 14.9225 57.5164 14.4293 57.6425C13.8729 57.7939 13.2785 57.9453 12.7094 58.021C11.5333 58.1724 10.3446 58.3238 9.16849 58.5004C7.9671 58.6897 6.72778 58.9041 5.55168 59.2448C4.94466 59.4214 4.29971 59.5097 3.69269 59.6611C3.02244 59.8125 1.9981 60.09 1.60607 60.7082C1.45431 60.9479 1.41637 61.2003 1.44167 61.4652C2.13721 61.5157 3.0098 61.1624 3.56623 60.8344C3.76857 60.7082 4.14795 60.4559 4.37558 60.6578C4.40088 60.683 4.41352 60.7082 4.42617 60.7335C4.47675 60.7335 4.56528 60.7082 4.59057 60.6956C4.66645 60.6704 4.71703 60.6452 4.79291 60.6073C5.09642 60.4181 5.34934 60.3424 5.70344 60.2667C6.75307 60.027 7.828 59.8377 8.87763 59.6611C10.4078 59.3962 11.9507 59.1312 13.4808 58.8915C15.1754 58.6266 16.87 58.3617 18.5773 58.1346C19.2222 58.0463 19.8672 57.9706 20.5121 57.8949C20.9042 57.857 21.3341 57.8066 21.7262 57.8066C21.8147 57.8066 21.8906 57.857 21.9285 57.9327C21.9664 58.0084 21.9664 58.0967 21.9032 58.1724C21.802 58.3112 21.3847 58.3995 21.2203 58.4374C20.7777 58.5509 20.3351 58.6392 19.8798 58.7275C18.5646 58.9925 17.2494 59.2322 15.9342 59.4719C14.7328 59.6863 13.5314 59.9008 12.33 60.1279C11.8874 60.2036 11.4322 60.2919 10.9895 60.3676C10.7366 60.4181 10.4711 60.4685 10.2181 60.519C9.25702 60.7335 8.38443 61.1372 7.37273 61.1498C6.61396 61.1498 6.58867 61.0867 5.89313 61.4021C5.69079 61.4904 5.4758 61.604 5.26082 61.6797C5.13436 61.7175 5.02054 61.7554 4.89408 61.7049C4.84349 61.6923 4.80556 61.6544 4.75497 61.6418C4.66645 61.6166 4.55263 61.604 4.46411 61.604C4.24912 61.604 3.6674 61.8563 3.45241 61.932C2.90863 62.1338 2.35219 62.2978 1.75782 62.3105C1.56813 62.3105 1.3405 62.3105 1.1508 62.2852C0.99905 62.26 0.847295 62.2095 0.79671 62.0581C0.695541 61.7806 1.0117 61.7301 0.695541 61.44C0.518494 61.276 0.164401 61.6418 0 61.8184L0.0885234 62.9665C0.556433 63.1684 2.30161 63.017 2.69364 62.9791C4.41352 62.8151 6.14605 62.5502 7.84064 62.26C9.43406 61.9951 11.0148 61.7049 12.5956 61.4021C13.5694 61.2129 14.5431 61.0236 15.5169 60.8344C16.8068 60.5947 18.1094 60.4055 19.4119 60.2036C20.8662 59.9765 22.3585 59.7368 23.7875 59.3836C24.1922 59.2826 24.6095 59.1943 25.0142 59.1186C25.6718 58.9798 26.342 58.8537 26.9996 58.7149C28.7448 58.3743 30.5026 58.0336 32.2478 57.7056C34.1827 57.3398 36.1175 56.9865 38.0651 56.6333C38.7353 56.5197 39.3929 56.3936 40.0632 56.28C40.2655 56.2422 40.4678 56.2169 40.6828 56.1791C40.784 56.1665 40.8978 56.1412 40.999 56.1412C42.4027 56.0782 43.7432 55.7375 45.0963 55.3843C46.3989 55.0436 47.7268 54.6778 49.0672 54.6147C50.4077 54.5516 51.7356 54.4633 53.0761 54.375C55.0995 54.2488 57.1355 54.1353 59.1589 54.0344C61.372 53.9208 63.5977 53.8325 65.8108 53.8073C66.6328 53.8073 67.4548 53.8073 68.2768 53.8451C68.7068 53.8704 69.3518 53.9082 69.7564 54.0596C69.8197 54.0848 69.8702 54.1227 69.8955 54.1984C70.0473 54.6021 69.7691 55.1067 69.5541 55.4347C69.3897 55.6871 69.0229 56.1412 68.7574 56.2926C67.6192 56.9487 59.1336 55.8763 57.692 55.3843C57.4643 55.3086 56.87 55.3338 56.617 55.3338C56.01 55.359 55.3903 55.4095 54.7833 55.4726C53.8602 55.5609 52.9496 55.6744 52.0265 55.7628C51.255 55.8258 50.5342 55.8637 50.0157 56.4693L50.5469 57.7939C50.8377 57.8066 51.1412 57.8066 51.4321 57.8066C51.9632 57.8066 52.4817 57.8066 53.0129 57.8066C54.366 57.7939 55.7318 57.7687 57.0849 57.7435C58.6151 57.7182 60.1453 57.7056 61.6755 57.7435C62.1181 57.7435 63.8507 57.7687 64.1921 57.9958C64.3944 58.1346 65.7349 59.6989 65.8361 59.9134C65.874 59.9891 65.8867 60.0648 65.8993 60.1405C65.9626 60.5821 65.6844 61.0362 65.4188 61.3895C65.2164 61.6544 64.9635 61.9194 64.7865 62.1843C64.3186 62.8656 63.8633 63.5721 63.4207 64.2786C62.9781 64.9977 62.5354 65.7168 62.1181 66.4485C61.3214 67.8741 60.8914 69.5016 59.905 70.8137L55.4536 80.1117C55.3524 80.5028 55.0363 81.0074 54.8339 81.3606C54.6442 81.7013 54.4292 82.0293 54.2395 82.3699C54.1004 82.6222 53.974 82.8872 53.8475 83.1521C53.7716 83.3161 53.6958 83.4801 53.6072 83.6315C53.3922 83.9595 52.9623 84.2497 52.6335 84.4642C52.5576 84.5146 52.4817 84.5146 52.4058 84.4768C52.33 84.439 52.2794 84.3633 52.2794 84.2876C52.2667 83.9469 52.33 83.6568 52.4564 83.3414C52.5576 83.1143 52.6714 82.8998 52.7852 82.6727C52.9117 82.4078 53.0002 82.1428 53.0634 81.8653C53.1646 81.3985 53.2658 80.9317 53.367 80.4775C53.4808 80.0107 53.6199 79.443 53.8222 79.0141C54.5557 77.4244 55.2133 75.6077 55.5547 73.892C55.7318 72.9962 55.9847 72.151 56.3009 71.3057C56.617 70.4352 56.9585 69.5773 57.2493 68.7068C57.3758 68.3283 57.5276 67.9498 57.6667 67.5713C57.7552 67.3316 57.8437 67.0793 57.9449 66.8396C57.9828 66.7261 58.0334 66.5999 58.0713 66.4864C58.0587 66.1962 57.9955 65.8682 57.8311 65.6285C57.7425 65.4897 57.6034 65.3762 57.439 65.3635C57.1482 65.3509 56.9332 65.6663 56.8194 65.8934C56.4147 66.7891 56.0353 67.7101 55.7065 68.6311C55.4915 69.2493 55.3018 69.8675 55.1374 70.4983C55.011 70.9777 54.8971 71.4571 54.7833 71.9239C54.6189 72.5547 54.4545 73.1728 54.2648 73.8036C53.9993 74.6868 53.5693 75.5068 53.3037 76.3899C52.7599 78.2319 52.3553 80.1243 51.7609 81.9536C51.6091 82.4078 51.4447 82.8619 51.293 83.3287C50.8883 84.6282 50.5848 86.0538 52.0644 86.6972C53.329 86.0916 55.5927 82.0419 56.2376 80.8812C56.8952 79.7079 57.5276 78.5094 58.1472 77.3109C58.5898 76.4656 59.0198 75.6077 59.4624 74.7751C60.6259 72.6304 61.4985 70.3469 62.5102 68.1264C62.6999 67.6975 62.9907 67.2559 63.231 66.8522C63.6104 66.234 64.0024 65.6285 64.4071 65.0229C64.7865 64.4426 65.1912 63.8622 65.5958 63.2945C65.874 62.9034 66.1649 62.4871 66.4811 62.1338C66.5316 62.0834 66.5949 62.0581 66.6708 62.0581C66.7466 62.0581 66.8099 62.096 66.8478 62.1591C67.3916 63.0296 67.3157 65.8303 67.2525 66.8522C67.1766 68.0129 66.911 70.4226 66.089 71.3057C66.0258 71.3814 65.7476 71.6715 65.7602 71.7851C65.7602 71.8482 65.8361 71.9617 65.8614 72.0248C65.9373 72.2014 65.9752 72.378 65.9752 72.5799C65.9879 73.5135 65.3303 74.7877 65.7729 75.6834C66.3167 75.3428 66.8604 74.7498 67.2651 74.3083C67.948 73.5513 68.593 72.7313 69.2506 71.9491C69.9714 71.0786 70.7428 70.1576 71.5901 69.4007C72.2098 68.8456 73.0697 68.2021 73.9297 68.1769C74.0561 68.1769 74.1573 68.2652 74.1573 68.3914C74.1952 69.0474 73.8159 69.8675 73.5629 70.473C73.3479 70.9777 72.7789 72.1257 73.0318 72.6682C73.0571 72.7061 73.0697 72.7439 73.1077 72.7818L73.2088 72.7187Z" fill="#594343"/>
</svg>
